<?xml version="1.0" encoding="UTF-8"?>
<svg version="1.1" xmlns="http://www.w3.org/2000/svg" width="512" height="512">
<path d="M0 0 C10.5853252 9.66564618 17.46848472 24.12006091 18.3125 38.4140625 C18.94131871 55.74248444 14.75927797 70.57226342 3.125 83.8125 C-0.90949177 88.07928069 -5.10428914 91.75898471 -10 95 C-8.60201172 95.51046875 -8.60201172 95.51046875 -7.17578125 96.03125 C8.80728427 102.03782658 22.78593711 110.76970368 34.2109375 123.62890625 C35.85894924 125.19529737 35.85894924 125.19529737 37.76953125 124.92578125 C40.99701731 123.5861767 44.16272008 122.13589542 47.3125 120.625 C52.16922965 118.31180485 57.04276515 116.09063203 62 114 C61.31035156 113.53851563 60.62070313 113.07703125 59.91015625 112.6015625 C45.37464238 102.51244039 35.05087802 88.82105947 31.40234375 71.24609375 C28.98488533 51.74213313 32.77659218 34.6965773 44.75 18.8125 C55.19535975 6.35690121 69.83468563 -1.9213373 86 -4 C105.09928906 -5.56712115 121.82847638 -0.61437108 136.65625 11.8203125 C149.17300106 23.46089098 156.73910534 39.42748115 157.40039062 56.49047852 C157.69074635 74.65872419 151.66830056 90.62831159 139.21337891 103.94702148 C135.23549016 108.00122299 130.93922622 111.21939857 126 114 C127.10794922 114.43699219 127.10794922 114.43699219 128.23828125 114.8828125 C134.68082334 117.48602519 140.67470843 120.36596968 146.625 123.9609375 C148.87896372 125.14760972 148.87896372 125.14760972 151.03515625 124.9453125 C153.78619105 123.62175301 155.37921859 121.74918441 157.4375 119.5 C168.39594655 108.269592 182.9654111 99.62423986 198 95 C197.28714844 94.443125 196.57429688 93.88625 195.83984375 93.3125 C182.759342 82.89035056 172.37161114 70.15183054 170 53 C168.49471868 35.02861357 171.90855413 19.77832299 183.1015625 5.27734375 C194.4723552 -8.0421537 209.08271832 -14.64827221 226.4140625 -16.21875 C243.60589224 -16.89074334 258.8851687 -10.13280884 271.4140625 1.1796875 C283.68066926 13.69921399 288.4223857 28.87452513 288.36572266 45.98974609 C288.048554 62.64837485 280.90077717 76.52702855 269 88 C266.08651592 90.46321836 263.10468661 92.78341524 260 95 C260.90878906 95.32871094 261.81757813 95.65742188 262.75390625 95.99609375 C278.57178428 101.90069805 291.1614075 109.96267813 303 122 C303.83402344 122.8353125 304.66804688 123.670625 305.52734375 124.53125 C320.85589008 140.67207828 330.63700061 163.38870929 331.5 185.6875 C331.29133237 190.8826044 330.21940189 193.9104895 327 198 C322.39432373 201.5428279 317.71994662 202.12646989 312.03288269 202.12025452 C310.57113113 202.12231651 310.57113113 202.12231651 309.07984924 202.12442017 C307.49381142 202.11902725 307.49381142 202.11902725 305.87573242 202.11352539 C304.75334167 202.11367142 303.63095093 202.11381744 302.47454834 202.1139679 C298.76816875 202.11327176 295.06183955 202.10549328 291.35546875 202.09765625 C288.78428678 202.09579101 286.21310445 202.09436761 283.641922 202.09336853 C277.56824059 202.08994173 271.49457995 202.08206183 265.42090636 202.07201904 C258.50435862 202.06083146 251.58781001 202.05534079 244.67125547 202.05032361 C230.44749396 202.0398785 216.22374762 202.02229555 202 202 C202.33 202.99 202.66 203.98 203 205 C204.00769545 217.37317861 204.00769545 217.37317861 201.1875 221.625 C200.1046875 222.800625 200.1046875 222.800625 199 224 C198.484375 224.598125 197.96875 225.19625 197.4375 225.8125 C193.8881809 228.74454621 189.49373185 228.14539869 185.15603638 228.14044189 C184.34845756 228.14341302 183.54087875 228.14638414 182.70882785 228.1494453 C179.99353759 228.15814055 177.27829138 228.15964123 174.56298828 228.16113281 C172.61994329 228.16576035 170.67689922 228.17078493 168.7338562 228.17617798 C163.44874306 228.18930904 158.16364263 228.19574817 152.87851572 228.20018864 C149.57834991 228.20311787 146.27818759 228.20722236 142.97802353 228.21169281 C132.65757517 228.22536881 122.33713477 228.2350353 112.01667798 228.2388947 C100.09364121 228.24337763 88.17071896 228.26093605 76.24771702 228.2898953 C67.03746114 228.31149113 57.82723753 228.32159784 48.61695659 228.32293582 C43.11317539 228.32398524 37.60950182 228.3299222 32.10574722 228.34775543 C26.92982211 228.36420012 21.75408596 228.36640916 16.57814407 228.35761642 C14.67741898 228.35684415 12.77668387 228.36121374 10.87598419 228.37107468 C8.2830731 228.38373903 5.69083688 228.3779476 3.09793091 228.36749268 C1.96723511 228.37957728 1.96723511 228.37957728 0.81369698 228.39190602 C-3.64626737 228.34978832 -6.44553745 227.72631132 -10 225 C-14.17409162 220.24617343 -15.13903951 217.85922122 -15.125 211.5625 C-15.12886719 209.83193359 -15.12886719 209.83193359 -15.1328125 208.06640625 C-15 205 -15 205 -14 202 C-14.58438308 202.00276538 -15.16876616 202.00553076 -15.77085781 202.00837994 C-30.01924053 202.07476066 -44.26759994 202.12433922 -58.5161047 202.15543652 C-65.40670783 202.17087637 -72.29720746 202.19191038 -79.18774414 202.22631836 C-85.84021834 202.25952161 -92.49261346 202.27686476 -99.14517403 202.28463173 C-101.68043266 202.29016532 -104.21568557 202.30097106 -106.75089836 202.31719017 C-110.30793739 202.33903689 -113.8645353 202.34196382 -117.42163086 202.34057617 C-118.98609703 202.35675491 -118.98609703 202.35675491 -120.58216858 202.3732605 C-127.90521481 202.34244397 -135.10868458 201.89131542 -140.5 196.5 C-145.61801184 187.96998026 -143.01147096 177.108737 -140.90429688 167.92651367 C-136.3887937 149.88904174 -126.90162427 134.2853157 -114 121 C-113.17628906 120.08347656 -113.17628906 120.08347656 -112.3359375 119.1484375 C-101.96960658 107.96505587 -86.49030563 99.4568328 -72 95 C-72.6290625 94.52691406 -73.258125 94.05382812 -73.90625 93.56640625 C-86.83308542 83.5792578 -97.32522825 70.60065788 -100 54 C-101.0513639 42.33844326 -100.75519688 30.83707878 -96 20 C-95.59910156 19.07316406 -95.19820312 18.14632812 -94.78515625 17.19140625 C-88.09015962 3.51032617 -76.7235277 -6.85791666 -62.53125 -12.33984375 C-39.87658703 -19.64025693 -18.12338718 -15.44122615 0 0 Z M-72 15 C-72.47953125 15.46535156 -72.9590625 15.93070312 -73.453125 16.41015625 C-80.64888337 23.8057968 -83.48085708 33.36913629 -83.625 43.5 C-83.44632985 55.16181378 -79.33590791 65.71274525 -71 74 C-61.25359692 82.25326726 -49.85006231 87.04819239 -37 86 C-24.99283675 84.09050504 -14.46743658 78.79715336 -7 69 C-0.38897504 57.6869476 2.77940612 47.49548019 0.5390625 34.28125 C-2.42723918 23.25358729 -9.07090593 13.25387767 -18.86328125 7.2421875 C-36.92698581 -2.2601933 -57.85309319 -1.11175498 -72 15 Z M196.890625 15.51953125 C188.82030361 26.10765952 186.17255423 36.88345218 187 50 C188.86956321 61.02725418 195.21456767 71.14235935 204 78 C215.19117517 84.87043496 225.96726112 87.66096152 238.875 84.875 C244.96917849 83.24937211 249.83711173 80.56621727 255 77 C256.3303125 76.13375 256.3303125 76.13375 257.6875 75.25 C266.5045726 66.67122666 271.32462541 56.3561137 271.5 44.0625 C271.35683593 33.1227014 268.29970048 24.15961284 261 16 C259.8553125 14.700625 259.8553125 14.700625 258.6875 13.375 C249.6254397 5.36666765 239.64326664 0.55404071 227.328125 0.7890625 C215.35168222 1.87417644 205.17240988 6.81692397 196.890625 15.51953125 Z M57 31 C49.82070737 39.92362204 47.24084699 51.23404808 47.6171875 62.51171875 C48.95608193 74.71205267 53.89310305 84.7815808 63 93 C63.71542969 93.72123047 63.71542969 93.72123047 64.4453125 94.45703125 C73.66402661 103.25266428 85.55116795 105.50112668 97.81640625 105.27734375 C108.73735895 104.77856813 117.80352597 99.7240673 125.75 92.5 C126.4925 91.675 127.235 90.85 128 90 C128.825 89.113125 129.65 88.22625 130.5 87.3125 C138.91918056 76.98107653 141.09495833 64.98703743 140 52 C138.29677617 43.01472938 134.81623928 36.00677013 129 29 C128.48824219 28.36449219 127.97648437 27.72898437 127.44921875 27.07421875 C119.7372647 18.4437193 108.53792535 13.63592823 97.16796875 12.7890625 C80.96845566 12.24838555 67.4551525 18.70727525 57 31 Z M-107.5859375 138.94140625 C-114.22212241 147.3493881 -119.05397701 156.16457842 -122.5 166.3125 C-122.86496582 167.38673218 -122.86496582 167.38673218 -123.23730469 168.48266602 C-125.0219355 174.1667803 -125.38292927 178.82929274 -126 185 C-87.72 185 -49.44 185 -10 185 C-6.535 177.575 -6.535 177.575 -3 170 C3.58901009 158.59996667 10.61763133 148.83900801 20.41015625 140.0078125 C22.2036115 138.16652056 22.2036115 138.16652056 22.01171875 136.0078125 C15.66449234 123.41138634 -3.51535127 115.47273688 -16 111 C-49.6110511 100.0846464 -84.96697841 113.05526418 -107.5859375 138.94140625 Z M166 135 C166.47546702 139.28910876 168.92917691 141.10125368 172 143.9375 C181.90484862 153.48105794 188.26059722 164.73690921 194.06787109 177.05639648 C195.34548976 179.72038867 196.67870035 182.3574007 198 185 C236.28 185 274.56 185 314 185 C311.71645473 162.16454725 301.86369962 142.54616325 284.33886719 127.58154297 C247.18743821 97.54490238 199.6850359 103.35435041 166 135 Z M26.4453125 156.53515625 C12.78785354 171.04333235 2 191.67647322 2 212 C62.72 212 123.44 212 186 212 C183.65849146 186.24340603 172.24840898 164.91470867 152.640625 148.05078125 C113.2323496 117.44524192 61.28717392 121.95966992 26.4453125 156.53515625 Z " fill="#ffff" transform="translate(162,283)"/>
<path d="M0 0 C2.76525025 2.14059317 5.29443257 4.35939656 7.78125 6.81640625 C11.86136307 11.10073988 11.86136307 11.10073988 17.10546875 13.42578125 C17.79253906 13.38839844 18.47960937 13.35101562 19.1875 13.3125 C20.35925781 13.26416016 20.35925781 13.26416016 21.5546875 13.21484375 C23.98626967 13.00120634 26.39225162 12.69017704 28.8125 12.375 C40.6559835 11.14854962 50.87913308 15.03092152 60.5078125 21.75 C69.84550348 29.34676554 74.43745097 38.75195301 76.02685547 50.48046875 C76.60386385 54.65412791 77.33685453 57.69017461 80 61 C82.58046412 62.56349665 82.58046412 62.56349665 85.5625 63.75 C97.64125077 69.52679384 104.26234794 77.72893026 109 90 C112.92317405 102.49666217 110.85893554 114.50115456 105 126 C104.34 126.99 103.68 127.98 103 129 C102.1101231 134.22802678 103.41609633 137.14658035 105.875 141.8125 C111.55929743 152.65701069 112.12441211 163.06361428 109.28125 175.0234375 C105.30196659 187.27002524 96.4202378 196.26774359 85.1875 202.1875 C84.27355469 202.63480469 83.35960937 203.08210937 82.41796875 203.54296875 C79.71358476 205.17258948 78.51527645 206.23297344 77 209 C76.46461772 211.54094128 76.04287424 213.99875023 75.6875 216.5625 C73.61981083 229.05071986 67.909116 238.20963222 57.65234375 245.71875 C46.07219427 253.20639024 34.51875185 253.99227666 21.125 252.25 C17.30164101 251.86491348 16.1701547 251.91956323 12.5625 253.625 C9.9880716 255.87557045 9.9880716 255.87557045 8.1875 258.375 C1.80807403 266.03031116 -7.42459621 269.36552775 -17 271 C-30.317668 271.99214719 -41.00550904 268.68497135 -51.8125 261 C-54 259 -54 259 -56.0625 256.375 C-58.06390547 253.92166427 -59.09150148 253.09911174 -62 252 C-64.42403527 251.97524646 -64.42403527 251.97524646 -67 252.375 C-81.33559846 253.91503113 -93.85590445 253.04311121 -105.71875 243.97265625 C-116.04917141 235.03967199 -121.1244024 225.58543081 -122.34765625 211.9453125 C-123.1580352 208.28647578 -124.35195648 206.63915747 -127 204 C-129.92959549 202.23381776 -129.92959549 202.23381776 -133.1875 200.75 C-144.61600336 194.81128277 -150.61492339 187.00650348 -155.08203125 175.12109375 C-158.51425238 163.4515419 -157.44285687 152.43486523 -151.875 141.8125 C-148.68600504 135.72738394 -148.68600504 135.72738394 -149 129 C-150.42788682 125.96682225 -151.96949583 123.00744412 -153.52734375 120.0390625 C-158.39138515 110.0013325 -157.80072537 98.68548593 -154.3125 88.25 C-148.91611662 74.94278937 -140.48291514 67.86118497 -127.7578125 61.67578125 C-124.78830248 59.87136227 -123.99545577 59.25632141 -123 56 C-122.68456919 54.19288674 -122.37360527 52.38443945 -122.11474609 50.56835938 C-120.39914769 38.82801232 -115.89869046 29.36087086 -106.49609375 21.75 C-95.33436181 13.9245604 -83.53410437 10.69666064 -70 13 C-65.86203549 13.5999026 -62.53056578 13.98251532 -58.89453125 11.6484375 C-56.83651668 9.84120614 -54.90653535 7.96599072 -53 6 C-39.66336564 -7.56488971 -16.26660041 -9.72411099 0 0 Z M-43.125 20.5 C-43.57746094 21.09039062 -44.02992188 21.68078125 -44.49609375 22.2890625 C-47.80017239 26.04798833 -52.30295795 28.43431932 -57 30 C-59.57407774 30.0973511 -62.11420498 30.14055304 -64.6875 30.125 C-65.77333374 30.12536255 -65.77333374 30.12536255 -66.88110352 30.12573242 C-70.46845604 30.10510848 -73.9095174 29.96503337 -77.4375 29.3125 C-84.43236696 28.69891518 -90.60552372 31.66096473 -96 36 C-101.25035325 41.17281638 -104.3076979 45.34509254 -105.41015625 52.7578125 C-106.86205571 62.49407949 -108.85364066 68.94084796 -116.5859375 75.35546875 C-119.32262654 77.2197828 -122.1183564 78.55354867 -125.125 79.9375 C-132.68654469 83.55140345 -136.16425412 88.04610233 -138.9375 95.875 C-141.32340362 105.30363117 -138.96466059 111.97304633 -134.375 120.3359375 C-131.08754425 126.70538302 -130.69121312 134.73024478 -132.7890625 141.57421875 C-134.23378617 144.82208991 -135.91743203 147.85627056 -137.6875 150.9375 C-140.66507376 157.8851721 -140.5313588 164.51729909 -138.078125 171.609375 C-134.77671211 178.92989923 -129.97536339 183.7805977 -122.609375 187.06640625 C-114.84899115 190.5864606 -110.57586867 194.86949344 -107.25 202.75 C-106.09427376 206.11151232 -105.64681726 209.41904062 -105.1875 212.9375 C-104.06764761 220.09913667 -101.42157326 225.15378969 -95.81640625 229.81640625 C-88.97659596 234.60312003 -83.29720127 236.40147748 -75 236 C-74.06414062 235.75636719 -74.06414062 235.75636719 -73.109375 235.5078125 C-65.93660581 233.78103473 -58.21213708 234.42100724 -51.4921875 237.39453125 C-47.85376497 239.73840533 -45.10676802 242.83883302 -42.18212891 245.98486328 C-36.84853661 251.53277688 -30.62222729 253.95666404 -23 254.5 C-14.41948034 253.888354 -8.25298137 250.75570529 -2.4375 244.5 C3.1059552 238.55373994 7.93719728 235.41405822 16.15234375 234.7421875 C20.63325161 234.66614785 24.66914219 234.84510458 29 236 C36.90681147 236.68162168 43.93386881 234.5872653 50.3125 229.75 C55.98937059 223.94110916 58.16479631 219.19231426 59.4375 211.125 C60.72036542 203.18881544 62.76435212 196.60814449 69.109375 191.203125 C72.6376867 188.7454734 76.28498649 186.84586659 80.1875 185.0625 C85.804396 182.35475332 88.87222421 178.06110748 91.8125 172.6875 C95.14850304 162.32833266 93.62357343 155.15693494 88.875 145.625 C88.54242188 144.99851563 88.20984375 144.37203125 87.8671875 143.7265625 C85.04629745 138.11019583 85.19100857 132.10884078 86 126 C86.94277658 123.32845885 88.15153361 120.83413463 89.4375 118.3125 C93.4275469 110.48051706 95.10301457 104.52393395 92.9375 95.875 C89.47553909 86.19965072 84.45778919 82.42590872 75.54882812 77.99951172 C68.15557312 74.24231386 63.16055949 69.27615156 60.5390625 61.26953125 C59.88333414 58.50881981 59.47500103 55.74460444 59.0625 52.9375 C57.60815283 43.67621719 53.43254206 38.59251703 46 33 C41.26070564 29.97491849 36.56898014 29.04050167 31 29 C30.40703125 29.15210937 29.8140625 29.30421875 29.203125 29.4609375 C20.76078312 31.5266169 10.69892 31.10026628 3.16015625 26.6953125 C-0.02243042 24.19758625 -2.43740256 21.18314307 -5.02734375 18.09375 C-10.07792206 12.73313619 -15.77414957 11.74793772 -22.9375 11.4375 C-31.24984801 11.70650803 -37.7731136 13.9603955 -43.125 20.5 Z " fill="#ffff" transform="translate(279,6)"/>
<path d="M0 0 C15.95955091 16.56869408 22.63438749 37.34423543 22.61914062 59.99536133 C22.44983634 68.61455505 20.98318943 76.25798818 18.24609375 84.40625 C17.89546875 85.45941406 17.54484375 86.51257813 17.18359375 87.59765625 C9.27663157 108.65543399 -7.63111592 123.52174981 -27.62890625 132.78125 C-47.04639077 140.58291789 -69.41563432 140.90782267 -88.9074707 133.1496582 C-108.57587742 124.75204415 -125.09814898 110.1530636 -133.57421875 90.30859375 C-141.52885969 70.37208631 -143.21906597 47.50021103 -134.90820312 27.35644531 C-125.45132106 5.78230565 -109.86493583 -10.83479142 -87.75390625 -19.59375 C-55.81933438 -30.00933344 -24.34369368 -22.92796114 0 0 Z M-105.44140625 12.59375 C-118.67937995 26.40109891 -123.31680242 42.81285278 -123.03125 61.3984375 C-122.38365433 78.30036234 -114.33694813 93.28094972 -102.21875 104.8203125 C-89.04981537 116.15128072 -72.77025878 122.38516865 -55.32421875 121.7890625 C-36.7876657 119.80155462 -20.74162848 112.05100546 -8.50390625 97.71875 C3.62162059 81.65927401 7.33635489 63.77054668 4.8125 44.01171875 C1.75995429 29.84866505 -5.63286408 19.28523436 -15.75390625 9.40625 C-16.33785156 8.80167969 -16.92179687 8.19710937 -17.5234375 7.57421875 C-42.77731019 -16.65671227 -82.03321882 -9.25121943 -105.44140625 12.59375 Z " fill="#ffff" transform="translate(314.75390625,81.59375)"/>
<path d="M0 0 C4.9463484 4.19474721 7.55021382 8.83244994 8.25 15.31640625 C8.55179517 21.49377609 7.75850776 26.02992621 4 31 C1.14193371 34.06132499 -1.79779645 36.99061605 -4.83203125 39.875 C-7.02340966 41.98300341 -9.03465392 44.16433838 -11.00390625 46.48046875 C-16.11329397 52.40045678 -21.68938401 57.8753999 -27.21630859 63.40161133 C-29.13278151 65.32029046 -31.04108362 67.24686111 -32.94921875 69.17382812 C-34.17659379 70.4041344 -35.40444183 71.63396904 -36.6328125 72.86328125 C-37.19751251 73.43516678 -37.76221252 74.00705231 -38.34402466 74.5962677 C-43.89266959 80.11315888 -48.76573276 83.07012709 -56.6875 83.3125 C-57.86892578 83.36857422 -57.86892578 83.36857422 -59.07421875 83.42578125 C-69.41676469 81.92065774 -75.6216088 75.12793771 -82.62255859 67.97436523 C-84.37628444 66.18619033 -86.1529274 64.42341533 -87.93359375 62.66210938 C-89.06914819 61.51965853 -90.2033124 60.37582381 -91.3359375 59.23046875 C-91.86093842 58.7104277 -92.38593933 58.19038666 -92.92684937 57.65458679 C-97.51494032 52.91859454 -100.44211361 47.80084599 -100.375 41 C-100.14876778 34.50811895 -97.93933851 29.2346505 -93.5703125 24.35546875 C-88.67237493 20.12764701 -82.6687036 18.27486096 -76.2578125 18.62109375 C-68.29024927 19.95821076 -63.25620468 24.13046033 -58 30 C-53.51616871 26.35966172 -49.42564002 22.459368 -45.41796875 18.3046875 C-44.91532501 17.78706848 -44.41268127 17.26944946 -43.89480591 16.73614502 C-41.79569261 14.57429221 -39.6972752 12.41255218 -37.6237793 10.22607422 C-26.65919839 -1.30816235 -15.51760057 -8.71746589 0 0 Z M-16.71832275 14.39793396 C-17.34784851 15.05221878 -17.97737427 15.7065036 -18.62597656 16.38061523 C-19.34392395 17.11815536 -20.06187134 17.8556955 -20.80157471 18.61558533 C-21.5734613 19.42177811 -22.3453479 20.22797089 -23.140625 21.05859375 C-24.78473168 22.74064947 -26.42927681 24.42227672 -28.07421875 26.10351562 C-30.66505979 28.7687666 -33.25093398 31.43847032 -35.82861328 34.11645508 C-38.31522418 36.69376086 -40.82022035 39.25202775 -43.328125 41.80859375 C-44.09191467 42.6127623 -44.85570435 43.41693085 -45.64263916 44.24546814 C-51.68809402 50.374802 -51.68809402 50.374802 -55.87841797 51.08203125 C-61.97132184 50.9219174 -65.08084451 47.13624859 -69.125 42.9375 C-71.69869685 40.27384111 -73.91335616 38.05776256 -77 36 C-79.96076291 36.35888035 -80.84658021 36.84658021 -83 39 C-82.94815244 43.28112686 -81.02266251 45.4258726 -78.05053711 48.35180664 C-77.51823486 48.85446045 -76.98593262 49.35711426 -76.4375 49.875 C-75.89681885 50.4002124 -75.3561377 50.9254248 -74.79907227 51.46655273 C-71.17583243 54.96056422 -67.46599827 58.34809178 -63.62109375 61.59765625 C-62 63 -62 63 -60.59765625 64.74609375 C-59.03357869 66.26300335 -59.03357869 66.26300335 -56.68707275 65.83294678 C-53.37014752 64.80475646 -51.86513782 63.372533 -49.40917969 60.92675781 C-48.53187195 60.06205872 -47.65456421 59.19735962 -46.75067139 58.30645752 C-45.80722779 57.35585402 -44.8643081 56.40473032 -43.921875 55.453125 C-42.94550973 54.47945575 -41.96855145 53.50638082 -40.99102783 52.53387451 C-38.94708341 50.49581993 -36.91052987 48.45072517 -34.87890625 46.40039062 C-32.27748285 43.77617807 -29.65851287 41.17033392 -27.03373337 38.5695076 C-25.01386743 36.5641135 -23.00364753 34.54926737 -20.99619293 32.53145599 C-20.03428767 31.56688728 -19.06941557 30.60526764 -18.10152435 29.64670563 C-16.74907157 28.30443946 -15.410824 26.94790612 -14.07324219 25.59082031 C-13.30888855 24.8232843 -12.54453491 24.05574829 -11.75701904 23.26495361 C-9.81287355 20.75877739 -9.22621473 19.14563101 -9 16 C-10.14646548 14.10338257 -10.14646548 14.10338257 -12 13 C-14.98133183 12.68445946 -14.98133183 12.68445946 -16.71832275 14.39793396 Z " fill="#ffff" transform="translate(302,99)"/>
</svg>
