<?xml version="1.0" encoding="UTF-8"?>
<svg version="1.1" xmlns="http://www.w3.org/2000/svg" width="512" height="512">
<path d="M0 0 C2.37127814 1.33571664 4.67670947 2.74791171 6.97998047 4.19775391 C7.83180908 4.72224121 8.6836377 5.24672852 9.5612793 5.78710938 C12.35531894 7.51466558 15.13664457 9.26153414 17.91748047 11.01025391 C18.92713867 11.63915527 19.93679687 12.26805664 20.97705078 12.91601562 C24.02465199 14.81465488 27.06623096 16.72248408 30.10498047 18.63525391 C31.06734619 19.23877686 32.02971191 19.8422998 33.02124023 20.46411133 C33.9086792 21.028479 34.79611816 21.59284668 35.71044922 22.17431641 C36.49959717 22.67398926 37.28874512 23.17366211 38.10180664 23.68847656 C39.91748047 25.01025391 39.91748047 25.01025391 40.91748047 27.01025391 C41.35024277 33.43074385 40.12393053 38.39090373 38.10498047 44.44775391 C30.46044615 69.10710712 28.1709102 97.77499108 34.91748047 123.01025391 C35.19156738 124.12303711 35.19156738 124.12303711 35.47119141 125.25830078 C40.27348739 144.57788231 48.6200264 163.28819237 60.91748047 179.01025391 C61.59939453 179.91130859 62.28130859 180.81236328 62.98388672 181.74072266 C76.7051817 199.25243062 93.25946345 212.72153676 112.91748047 223.01025391 C114.07505859 223.61611328 115.23263672 224.22197266 116.42529297 224.84619141 C152.1759231 242.84323975 193.42160803 243.7557948 231.11669922 231.70166016 C252.84547902 224.30462873 271.50985493 211.83189282 287.91748047 196.01025391 C288.69607422 195.29482422 289.47466797 194.57939453 290.27685547 193.84228516 C301.02370624 183.68613009 309.0981762 171.0394778 315.91748047 158.01025391 C316.52333984 156.85267578 317.12919922 155.69509766 317.75341797 154.50244141 C322.82483191 144.42822031 326.08471634 133.9027466 328.91748047 123.01025391 C329.26037109 121.73666016 329.60326172 120.46306641 329.95654297 119.15087891 C335.53599383 94.01727781 332.96025359 66.13857326 324.89941406 41.95605469 C323.21395416 36.76373368 322.20105007 32.4723193 322.91748047 27.01025391 C326.637175 21.77135782 332.74119469 18.95278071 338.22998047 15.82275391 C346.53658433 11.03744754 346.53658433 11.03744754 354.67529297 5.97509766 C355.3877417 5.51449951 356.10019043 5.05390137 356.83422852 4.5793457 C358.13915034 3.7275283 359.43801464 2.86632422 360.72924805 1.99389648 C364.78007283 -0.63861123 368.06580458 -1.92228362 372.91748047 -1.98974609 C376.05745439 -1.00564348 377.41115996 0.09473727 379.00439453 2.97558594 C380.11768988 5.47816162 381.0941445 8.00325073 382.04248047 10.57275391 C382.37634766 11.42933594 382.71021484 12.28591797 383.05419922 13.16845703 C388.91748047 28.44747817 388.91748047 28.44747817 388.91748047 35.01025391 C389.76862427 35.24917358 389.76862427 35.24917358 390.63696289 35.49291992 C397.97753162 37.61772509 405.09512742 40.21793236 412.22998047 42.94775391 C413.95958008 43.59260742 413.95958008 43.59260742 415.72412109 44.25048828 C416.8359375 44.67523438 417.94775391 45.09998047 419.09326172 45.53759766 C420.09268799 45.91650146 421.09211426 46.29540527 422.12182617 46.68579102 C425.28595717 48.1848226 427.43251515 49.52477569 429.91748047 52.01025391 C430.55239868 55.27368164 430.55239868 55.27368164 430.56445312 59.19384766 C430.57759552 60.26773239 430.57759552 60.26773239 430.59100342 61.36331177 C430.61297689 63.72541244 430.5984543 66.08563485 430.58154297 68.44775391 C430.58491175 70.09155638 430.58976489 71.73535643 430.59603882 73.37915039 C430.60340728 76.82250712 430.59270623 80.26521487 430.56933594 83.70849609 C430.54084727 88.12077996 430.55725151 92.53154329 430.58719826 96.94377136 C430.60527248 100.33764082 430.59951284 103.73115017 430.5865593 107.12503052 C430.58322558 108.75172099 430.58731122 110.37844423 430.59895706 112.00509644 C430.61166902 114.27983076 430.5922895 116.55210872 430.56445312 118.82666016 C430.56047516 120.12031494 430.55649719 121.41396973 430.55239868 122.74682617 C429.91748047 126.01025391 429.91748047 126.01025391 427.60560608 128.35626221 C425.48282193 129.66240183 423.57950591 130.78024488 421.26049805 131.65771484 C420.58662552 131.9176825 419.91275299 132.17765015 419.21846008 132.44549561 C418.15101814 132.84106659 418.15101814 132.84106659 417.06201172 133.24462891 C416.31916428 133.5275177 415.57631683 133.81040649 414.81095886 134.10186768 C413.25018859 134.69427563 411.68775646 135.28232183 410.1237793 135.86621094 C407.72375036 136.76258074 405.32913125 137.67232828 402.93505859 138.58447266 C401.41517196 139.15947351 399.89499936 139.73371919 398.37451172 140.30712891 C397.65681107 140.57893982 396.93911041 140.85075073 396.19966125 141.13079834 C391.15136953 143.01025391 391.15136953 143.01025391 388.91748047 143.01025391 C388.80533203 143.99380859 388.69318359 144.97736328 388.57763672 145.99072266 C387.96080287 150.26779494 386.73697405 154.23721284 385.35498047 158.32275391 C385.09394531 159.09893066 384.83291016 159.87510742 384.56396484 160.67480469 C382.1028797 167.79847015 379.171931 174.68098054 376.04248047 181.53369141 C375.72939941 182.24533447 375.41631836 182.95697754 375.09375 183.69018555 C373.91748047 186.01025391 373.91748047 186.01025391 372.08105469 188.60961914 C368.62797026 193.86056469 368.62797026 193.86056469 368.2232666 199.97094727 C369.84206802 205.36864919 372.46706155 210.33166949 375.04248047 215.32275391 C376.16632841 217.58903576 377.27614697 219.86108537 378.3732605 222.14042664 C379.05624454 223.5495951 379.7564833 224.95057792 380.47659302 226.34114075 C382.6483999 230.69895135 383.83905075 234.06513383 382.91748047 239.01025391 C380.93336574 242.02727622 378.47277757 244.47217827 375.91748047 247.01025391 C374.80752213 248.15432205 374.80752213 248.15432205 373.67514038 249.32150269 C371.17648279 251.88376679 368.65027681 254.4161226 366.11669922 256.94384766 C364.74032036 258.32166161 364.74032036 258.32166161 363.33613586 259.72731018 C361.41068439 261.65422339 359.4834674 263.57934766 357.55493164 265.50317383 C355.08228332 267.97007729 352.61421728 270.44150927 350.14741802 272.91425991 C347.78543333 275.28071512 345.41965958 277.64336658 343.05419922 280.00634766 C342.16778244 280.89478867 341.28136566 281.78322968 340.36808777 282.69859314 C339.54996109 283.51356766 338.73183441 284.32854218 337.88891602 285.16821289 C337.16834518 285.88798813 336.44777435 286.60776337 335.70536804 287.34934998 C333.23214525 289.6469136 332.18300078 289.98610264 328.75830078 290.29760742 C324.32980458 289.96628655 321.27140817 288.51110841 317.46435547 286.41259766 C316.03763153 285.67529264 314.6081602 284.94328452 313.17626953 284.21606445 C312.43928833 283.84170258 311.70230713 283.4673407 310.94299316 283.08163452 C298.50718142 276.31079465 298.50718142 276.31079465 284.94873047 275.80712891 C280.87371468 277.5465477 277.33018593 279.94390017 273.81835938 282.62744141 C270.98329594 284.68983535 268.10323549 285.87343702 264.85498047 287.19775391 C263.21722656 287.88804687 263.21722656 287.88804687 261.54638672 288.59228516 C257.16431852 290.30454647 252.74779173 291.87518293 248.29248047 293.38525391 C247.52154053 293.64846436 246.75060059 293.9116748 245.95629883 294.18286133 C242.41191338 295.3507055 239.68434001 296.01025391 235.91748047 296.01025391 C235.75820068 296.57768311 235.5989209 297.1451123 235.43481445 297.72973633 C233.31000929 305.07030506 230.70980202 312.18790086 227.97998047 319.32275391 C227.55007813 320.47582031 227.12017578 321.62888672 226.67724609 322.81689453 C226.04012695 324.48461914 226.04012695 324.48461914 225.39013672 326.18603516 C225.01123291 327.18546143 224.6323291 328.1848877 224.24194336 329.21459961 C222.74291178 332.37873061 221.40295868 334.52528859 218.91748047 337.01025391 C215.65405273 337.64517212 215.65405273 337.64517212 211.73388672 337.65722656 C210.66000198 337.67036896 210.66000198 337.67036896 209.56442261 337.68377686 C207.20232193 337.70575033 204.84209952 337.69122774 202.47998047 337.67431641 C200.83617799 337.67768519 199.19237794 337.68253833 197.54858398 337.68881226 C194.10522726 337.69618072 190.6625195 337.68547967 187.21923828 337.66210938 C182.80695442 337.63362071 178.39619109 337.65002495 173.98396301 337.67997169 C170.59009356 337.69804592 167.1965842 337.69228628 163.80270386 337.67933273 C162.17601338 337.67599902 160.54929014 337.68008466 158.92263794 337.6917305 C156.64790361 337.70444246 154.37562566 337.68506293 152.10107422 337.65722656 C150.16059204 337.65125961 150.16059204 337.65125961 148.1809082 337.64517212 C144.91748047 337.01025391 144.91748047 337.01025391 142.57147217 334.69837952 C141.26533255 332.57559536 140.14748949 330.67227934 139.27001953 328.35327148 C139.01005188 327.67939896 138.75008423 327.00552643 138.48223877 326.31123352 C138.08666779 325.24379158 138.08666779 325.24379158 137.68310547 324.15478516 C137.40021667 323.41193771 137.11732788 322.66909027 136.8258667 321.9037323 C136.23345874 320.34296202 135.64541255 318.78052989 135.06152344 317.21655273 C134.16515363 314.8165238 133.2554061 312.42190468 132.34326172 310.02783203 C131.76826087 308.50794539 131.19401519 306.9877728 130.62060547 305.46728516 C130.34879456 304.7495845 130.07698364 304.03188385 129.79693604 303.29243469 C127.91748047 298.24414297 127.91748047 298.24414297 127.91748047 296.01025391 C126.93392578 295.89810547 125.95037109 295.78595703 124.93701172 295.67041016 C120.65993943 295.05357631 116.69052153 293.82974748 112.60498047 292.44775391 C111.82880371 292.18671875 111.05262695 291.92568359 110.25292969 291.65673828 C103.12926423 289.19565313 96.24675384 286.26470444 89.39404297 283.13525391 C88.6823999 282.82217285 87.97075684 282.5090918 87.23754883 282.18652344 C84.91748047 281.01025391 84.91748047 281.01025391 82.31811523 279.17382812 C77.06716968 275.7207437 77.06716968 275.7207437 70.95678711 275.31604004 C65.55908519 276.93484146 60.59606489 279.55983498 55.60498047 282.13525391 C53.33869861 283.25910185 51.066649 284.3689204 48.78730774 285.46603394 C47.37813927 286.14901798 45.97715645 286.84925674 44.58659363 287.56936646 C40.22878303 289.74117334 36.86260054 290.93182419 31.91748047 290.01025391 C28.90045815 288.02613917 26.45555611 285.565551 23.91748047 283.01025391 C23.15476837 282.27028168 22.39205627 281.53030945 21.60623169 280.76791382 C19.04396759 278.26925623 16.51161178 275.74305025 13.98388672 273.20947266 C13.06534409 272.29188675 12.14680145 271.37430084 11.20042419 270.4289093 C9.27351098 268.50345783 7.34838672 266.57624084 5.42456055 264.64770508 C2.95765708 262.17505675 0.48622511 259.70699072 -1.98652554 257.24019146 C-4.35298074 254.87820676 -6.71563221 252.51243301 -9.07861328 250.14697266 C-9.96705429 249.26055588 -10.8554953 248.3741391 -11.77085876 247.46086121 C-12.99332054 246.23367119 -12.99332054 246.23367119 -14.24047852 244.98168945 C-15.32014137 243.90083321 -15.32014137 243.90083321 -16.4216156 242.79814148 C-18.71917923 240.32491869 -19.05836826 239.27577422 -19.36987305 235.85107422 C-19.03855217 231.42257802 -17.58337404 228.36418161 -15.48486328 224.55712891 C-14.74755826 223.13040496 -14.01555014 221.70093364 -13.28833008 220.26904297 C-12.9139682 219.53206177 -12.53960632 218.79508057 -12.15390015 218.0357666 C-5.38306027 205.59995486 -5.38306027 205.59995486 -4.87939453 192.04150391 C-6.61881332 187.96648811 -9.0161658 184.42295937 -11.69970703 180.91113281 C-13.76210098 178.07606938 -14.94570265 175.19600893 -16.27001953 171.94775391 C-16.73021484 170.85591797 -17.19041016 169.76408203 -17.66455078 168.63916016 C-19.37681209 164.25709196 -20.94744856 159.84056517 -22.45751953 155.38525391 C-22.72072998 154.61431396 -22.98394043 153.84337402 -23.25512695 153.04907227 C-24.42297112 149.50468682 -25.08251953 146.77711345 -25.08251953 143.01025391 C-25.64994873 142.85097412 -26.21737793 142.69169434 -26.80200195 142.52758789 C-34.14257068 140.40278272 -41.26016648 137.80257545 -48.39501953 135.07275391 C-50.12461914 134.42790039 -50.12461914 134.42790039 -51.88916016 133.77001953 C-53.55688477 133.13290039 -53.55688477 133.13290039 -55.25830078 132.48291016 C-56.25772705 132.10400635 -57.25715332 131.72510254 -58.28686523 131.3347168 C-61.45099623 129.83568521 -63.59755421 128.49573212 -66.08251953 126.01025391 C-66.71743774 122.74682617 -66.71743774 122.74682617 -66.72949219 118.82666016 C-66.73825378 118.110737 -66.74701538 117.39481384 -66.75604248 116.65719604 C-66.77801595 114.29509537 -66.76349337 111.93487296 -66.74658203 109.57275391 C-66.74995081 107.92895143 -66.75480395 106.28515138 -66.76107788 104.64135742 C-66.76844634 101.1980007 -66.75774529 97.75529294 -66.734375 94.31201172 C-66.70588633 89.89972786 -66.72229058 85.48896452 -66.75223732 81.07673645 C-66.77031154 77.682867 -66.7645519 74.28935764 -66.75159836 70.89547729 C-66.74826464 69.26878682 -66.75235028 67.64206358 -66.76399612 66.01541138 C-66.77670808 63.74067705 -66.75732856 61.4683991 -66.72949219 59.19384766 C-66.72551422 57.90019287 -66.72153625 56.60653809 -66.71743774 55.27368164 C-66.08251953 52.01025391 -66.08251953 52.01025391 -63.77064514 49.66424561 C-61.64786099 48.35810598 -59.74454497 47.24026293 -57.42553711 46.36279297 C-56.75166458 46.10282532 -56.07779205 45.84285767 -55.38349915 45.57501221 C-54.67187119 45.31129822 -53.96024323 45.04758423 -53.22705078 44.77587891 C-52.11277962 44.35154572 -52.11277962 44.35154572 -50.97599792 43.91864014 C-49.41522765 43.32623218 -47.85279552 42.73818598 -46.28881836 42.15429688 C-43.88878943 41.25792707 -41.49417031 40.34817953 -39.10009766 39.43603516 C-37.58021102 38.8610343 -36.06003842 38.28678862 -34.53955078 37.71337891 C-33.4629998 37.30566254 -33.4629998 37.30566254 -32.36470032 36.88970947 C-27.3164086 35.01025391 -27.3164086 35.01025391 -25.08251953 35.01025391 C-24.97423828 34.03701172 -24.86595703 33.06376953 -24.75439453 32.06103516 C-24.1131875 27.60061073 -22.77949047 23.45471893 -21.33251953 19.19775391 C-20.93154053 18.01342773 -20.93154053 18.01342773 -20.52246094 16.80517578 C-15.29715215 1.70915016 -15.29715215 1.70915016 -11.37158203 -1.30224609 C-7.28614746 -2.52927081 -3.82779292 -1.81921131 0 0 Z M-3.08251953 19.01025391 C-3.33159058 19.80290649 -3.33159058 19.80290649 -3.58569336 20.61157227 C-4.35467497 23.05721653 -5.12484207 25.50248599 -5.89501953 27.94775391 C-6.15605469 28.77855469 -6.41708984 29.60935547 -6.68603516 30.46533203 C-7.21544468 32.14506348 -7.75172059 33.82264551 -8.29467773 35.49804688 C-8.81834418 37.16787264 -9.30432039 38.85000379 -9.7512207 40.54199219 C-11.42594449 46.52012013 -11.42594449 46.52012013 -14.59423828 48.88525391 C-15.64224609 49.25650391 -16.69025391 49.62775391 -17.77001953 50.01025391 C-28.57732614 53.91063524 -39.32447415 57.97598689 -50.08251953 62.01025391 C-50.08251953 79.83025391 -50.08251953 97.65025391 -50.08251953 116.01025391 C-39.07410567 120.20075719 -39.07410567 120.20075719 -28.06396484 124.38671875 C-26.67946222 124.91471239 -25.29501816 125.44285963 -23.91064453 125.97119141 C-23.1969873 126.24165283 -22.48333008 126.51211426 -21.74804688 126.79077148 C-19.85350108 127.51500045 -17.96745796 128.26137575 -16.08251953 129.01025391 C-15.29868896 129.30134033 -14.5148584 129.59242676 -13.70727539 129.89233398 C-11.33068685 131.52755546 -11.03902728 133.19137389 -10.25830078 135.93603516 C-9.95674072 136.94996338 -9.65518066 137.9638916 -9.34448242 139.00854492 C-8.87449829 140.64907837 -8.87449829 140.64907837 -8.39501953 142.32275391 C-3.55460392 158.25736094 2.24291136 173.64345611 11.17504883 187.77612305 C13.82502293 192.12469197 14.31578037 194.97090858 13.91748047 200.01025391 C12.98111118 202.65067824 12.0135166 205.04026889 10.81982422 207.55322266 C10.35014977 208.58954582 10.35014977 208.58954582 9.87098694 209.64680481 C8.87795684 211.83633765 7.86848171 214.01762907 6.85498047 216.19775391 C5.83848545 218.38881192 4.82621541 220.58126765 3.82826233 222.78083801 C3.20939963 224.14483564 2.57992895 225.50408224 1.93870544 226.85771179 C0.33124076 230.28383945 0.33124076 230.28383945 0.14131165 233.98510742 C1.08998676 236.46034995 2.30862138 237.80207524 4.16455078 239.69311523 C4.84906311 240.39676712 5.53357544 241.10041901 6.23883057 241.82539368 C6.98356628 242.57346786 7.728302 243.32154205 8.49560547 244.09228516 C9.64098785 245.25264534 9.64098785 245.25264534 10.80950928 246.43644714 C12.42631561 248.06843848 14.04721749 249.69638103 15.671875 251.32055664 C18.15982259 253.8150758 20.62280678 256.33257814 23.08544922 258.85205078 C24.65819436 260.43359568 26.23236625 262.01372332 27.80810547 263.59228516 C28.54474426 264.3504805 29.28138306 265.10867584 30.04034424 265.8898468 C30.73746521 266.57773788 31.43458618 267.26562897 32.15283203 267.97436523 C32.76048401 268.58629227 33.36813599 269.1982193 33.99420166 269.82868958 C35.9041968 271.26606984 35.9041968 271.26606984 38.45211792 270.78167725 C41.66663936 269.77583863 44.65568152 268.46336788 47.72216797 267.06884766 C49.04097549 266.47920095 50.35999255 265.89002269 51.67919922 265.30126953 C53.73756716 264.37610797 55.79393155 263.44709114 57.84667969 262.50952148 C59.84182242 261.60096344 61.84373941 260.70895581 63.84716797 259.81884766 C65.62969971 259.01145142 65.62969971 259.01145142 67.44824219 258.18774414 C72.67391245 256.41410532 76.37267742 256.26937898 81.36279297 258.66259766 C82.5957378 259.41394182 83.82197409 260.17636866 85.04248047 260.94775391 C91.15351283 264.56945302 97.33488295 267.74998742 103.85498047 270.57275391 C104.71824951 270.94948242 105.58151855 271.32621094 106.47094727 271.71435547 C111.44712616 273.80304405 116.38771686 275.47523287 121.60498047 276.86181641 C138.3516792 281.34085075 138.3516792 281.34085075 142.51513672 285.77978516 C143.91748047 289.01025391 143.91748047 289.01025391 145.91748047 297.01025391 C148.88748047 304.93025391 151.85748047 312.85025391 154.91748047 321.01025391 C172.73748047 321.01025391 190.55748047 321.01025391 208.91748047 321.01025391 C213.10798375 310.00184004 213.10798375 310.00184004 217.29394531 298.99169922 C217.82193896 297.60719659 218.3500862 296.22275253 218.87841797 294.83837891 C219.14887939 294.12472168 219.41934082 293.41106445 219.69799805 292.67578125 C220.42222701 290.78123545 221.16860231 288.89519233 221.91748047 287.01025391 C222.35411011 285.83450806 222.35411011 285.83450806 222.79956055 284.63500977 C224.43478202 282.25842122 226.09860045 281.96676166 228.84326172 281.18603516 C230.36415405 280.73369507 230.36415405 280.73369507 231.91577148 280.2722168 C233.00946045 279.95889404 234.10314941 279.64557129 235.22998047 279.32275391 C251.1645875 274.48233829 266.55068267 268.68482301 280.68334961 259.75268555 C285.03191854 257.10271144 287.87813515 256.61195401 292.91748047 257.01025391 C295.5579048 257.94662319 297.94749545 258.91421777 300.46044922 260.10791016 C301.15133133 260.42102646 301.84221344 260.73414276 302.55403137 261.05674744 C304.74356421 262.04977753 306.92485563 263.05925267 309.10498047 264.07275391 C311.29603848 265.08924892 313.48849421 266.10151897 315.68806458 267.09947205 C317.0520622 267.71833474 318.4113088 268.34780542 319.76493835 268.98902893 C323.19106601 270.59649361 323.19106601 270.59649361 326.89233398 270.78642273 C329.36757651 269.83774761 330.7093018 268.619113 332.6003418 266.76318359 C333.30399368 266.07867126 334.00764557 265.39415894 334.73262024 264.68890381 C335.48069443 263.94416809 336.22876862 263.19943237 336.99951172 262.43212891 C338.1598719 261.28674652 338.1598719 261.28674652 339.34367371 260.1182251 C340.97566504 258.50141877 342.60360759 256.88051689 344.2277832 255.25585938 C346.72230236 252.76791178 349.2398047 250.30492759 351.75927734 247.84228516 C353.34082225 246.26954002 354.92094989 244.69536813 356.49951172 243.11962891 C357.25770706 242.38299011 358.0159024 241.64635132 358.79707336 240.88739014 C359.48496445 240.19026917 360.17285553 239.49314819 360.8815918 238.77490234 C361.49351883 238.16725037 362.10544586 237.55959839 362.73591614 236.93353271 C364.17329641 235.02353757 364.17329641 235.02353757 363.68890381 232.47561646 C362.68306519 229.26109501 361.37059445 226.27205286 359.97607422 223.20556641 C359.38642751 221.88675888 358.79724925 220.56774183 358.20849609 219.24853516 C357.28333453 217.19016721 356.3543177 215.13380283 355.41674805 213.08105469 C354.50819001 211.08591196 353.61618238 209.08399496 352.72607422 207.08056641 C351.91867798 205.29803467 351.91867798 205.29803467 351.0949707 203.47949219 C349.32133188 198.25382192 349.17660554 194.55505695 351.56982422 189.56494141 C352.32116838 188.33199657 353.08359522 187.10576029 353.85498047 185.88525391 C357.47667959 179.77422154 360.65721399 173.59285142 363.47998047 167.07275391 C363.85670898 166.20948486 364.2334375 165.34621582 364.62158203 164.45678711 C366.71027061 159.48060822 368.38245944 154.54001751 369.76904297 149.32275391 C374.24807732 132.57605517 374.24807732 132.57605517 378.68701172 128.41259766 C381.91748047 127.01025391 381.91748047 127.01025391 389.91748047 125.01025391 C401.79748047 120.55525391 401.79748047 120.55525391 413.91748047 116.01025391 C413.91748047 98.19025391 413.91748047 80.37025391 413.91748047 62.01025391 C402.9090666 57.81975063 402.9090666 57.81975063 391.89892578 53.63378906 C390.51442316 53.10579542 389.1299791 52.57764818 387.74560547 52.04931641 C387.03194824 51.77885498 386.31829102 51.50839355 385.58300781 51.22973633 C383.68846202 50.50550736 381.80241889 49.75913207 379.91748047 49.01025391 C379.13872559 48.73221924 378.3599707 48.45418457 377.55761719 48.16772461 C375.04430346 46.39403893 374.70839815 44.35917509 373.84716797 41.45166016 C373.50814453 40.34371094 373.16912109 39.23576172 372.81982422 38.09423828 C372.48080078 36.93214844 372.14177734 35.77005859 371.79248047 34.57275391 C371.10641035 32.28117771 370.41647749 29.99075342 369.72216797 27.70166016 C369.42294434 26.68273682 369.1237207 25.66381348 368.81542969 24.61401367 C367.97619499 21.82410761 367.97619499 21.82410761 365.91748047 19.01025391 C362.47945734 21.13440844 359.04215266 23.25972277 355.60498047 25.38525391 C354.62851562 25.98853516 353.65205078 26.59181641 352.64599609 27.21337891 C351.70820313 27.79345703 350.77041016 28.37353516 349.80419922 28.97119141 C348.94012451 29.50534668 348.0760498 30.03950195 347.18579102 30.58984375 C345.4112457 31.7010594 343.65959019 32.84884743 341.91748047 34.01025391 C342.87735013 38.88959136 343.85995682 43.76187553 344.90576172 48.62353516 C345.17018066 49.85849731 345.17018066 49.85849731 345.43994141 51.1184082 C345.79325231 52.76500951 346.14926436 54.41103412 346.50830078 56.05639648 C346.67555664 56.83781006 346.8428125 57.61922363 347.01513672 58.42431641 C347.16474854 59.11477051 347.31436035 59.80522461 347.46850586 60.51660156 C348.57950493 66.6872076 349.08045285 72.73353096 349.12060547 78.99853516 C349.12761978 79.73518402 349.13463409 80.47183289 349.14186096 81.23080444 C349.15926538 83.59485051 349.16571301 85.95864613 349.16748047 88.32275391 C349.16815521 89.13016022 349.16882996 89.93756653 349.16952515 90.7694397 C349.1536223 102.73476964 348.83418903 114.34341966 345.91748047 126.01025391 C345.74055664 126.72052734 345.56363281 127.43080078 345.38134766 128.16259766 C344.08698232 133.17910166 342.56670199 138.10009828 340.91748047 143.01025391 C340.69721191 143.67621582 340.47694336 144.34217773 340.25 145.02832031 C332.47950322 168.15923267 319.26984275 188.05840158 302.91748047 206.01025391 C302.24330078 206.75662109 301.56912109 207.50298828 300.87451172 208.27197266 C280.59606479 229.58812262 251.9376561 244.64074762 223.66748047 251.82275391 C222.90089111 252.01764404 222.13430176 252.21253418 221.34448242 252.41333008 C208.34017489 255.52159657 195.53654598 256.38634832 182.22998047 256.32275391 C181.43755951 256.32093109 180.64513855 256.31910828 179.82870483 256.31723022 C167.98622864 256.27138761 156.46192374 255.89636473 144.91748047 253.01025391 C144.20720703 252.83333008 143.49693359 252.65640625 142.76513672 252.47412109 C137.74863271 251.17975576 132.8276361 249.65947543 127.91748047 248.01025391 C127.25151855 247.78998535 126.58555664 247.5697168 125.89941406 247.34277344 C102.7685017 239.57227665 82.8693328 226.36261618 64.91748047 210.01025391 C64.17111328 209.33607422 63.42474609 208.66189453 62.65576172 207.96728516 C34.77788277 181.44654433 15.79600299 139.88004795 14.62796021 101.51501465 C14.54808015 97.53393155 14.53407085 93.5545352 14.54248047 89.57275391 C14.54202728 88.73731049 14.5415741 87.90186707 14.54110718 87.04110718 C14.5674049 70.50893417 16.33333982 54.82067355 21.49951172 39.03369141 C22.01444416 36.5408409 21.86452818 35.38010548 20.91748047 33.01025391 C18.78557742 31.27640303 18.78557742 31.27640303 16.07763672 29.81103516 C14.60713867 28.95735352 14.60713867 28.95735352 13.10693359 28.08642578 C12.07503906 27.50441406 11.04314453 26.92240234 9.97998047 26.32275391 C8.95195313 25.72914063 7.92392578 25.13552734 6.86474609 24.52392578 C1.94427921 21.66902438 1.94427921 21.66902438 -3.08251953 19.01025391 Z " fill="#0018C4" transform="translate(74.08251953125,166.98974609375)"/>
<path d="M0 0 C13.39695155 9.41860816 23.24182775 22.19261825 26.18359375 38.53515625 C27.69872909 54.33776675 25.46317704 69.28977211 16.18359375 82.53515625 C13.64282251 85.33424566 11.01970495 87.95881918 8.2578125 90.5390625 C6.12962586 92.36444613 6.12962586 92.36444613 5.18359375 94.53515625 C6.1890625 94.67630859 6.1890625 94.67630859 7.21484375 94.8203125 C27.5063006 99.70628172 46.3974151 117.48427788 57.18359375 134.53515625 C57.6940625 135.30085937 58.20453125 136.0665625 58.73046875 136.85546875 C67.14401161 149.99620837 74.04532729 167.73670794 73.18359375 183.53515625 C71.40490085 186.66320239 70.34977213 187.95206706 67.18359375 189.53515625 C64.65079074 189.63937638 62.14509053 189.68295368 59.61174011 189.68232727 C58.82134993 189.68600396 58.03095976 189.68968065 57.21661836 189.69346875 C54.55350407 189.70453046 51.89042877 189.70835362 49.22729492 189.7121582 C47.32380549 189.71842093 45.42031729 189.72506756 43.51683044 189.73207092 C38.33496449 189.74949732 33.15310778 189.76003695 27.97121978 189.76827645 C24.73588573 189.77342267 21.50055456 189.77949854 18.26522255 189.78578758 C8.14873655 189.80484343 -1.96774213 189.81907426 -12.08424264 189.82739955 C-23.7735728 189.83717726 -35.46271386 189.86350913 -47.15197736 189.90390044 C-56.17962362 189.93402757 -65.20721557 189.94886515 -74.23491114 189.95218056 C-79.63031849 189.95453476 -85.0255239 189.96354329 -90.42087746 189.98864174 C-95.49587528 190.01186821 -100.57053744 190.01617757 -105.64557457 190.00588036 C-107.5092162 190.00538358 -109.37287405 190.0117457 -111.23646545 190.0254364 C-113.77924936 190.04307291 -116.3208179 190.03609042 -118.86360168 190.02290344 C-119.60251721 190.03387269 -120.34143273 190.04484193 -121.10273963 190.05614358 C-124.67105002 190.01141128 -126.69910826 189.60787043 -129.75828075 187.71145916 C-132.60341381 184.70295878 -132.68638283 182.63089395 -132.81640625 178.53515625 C-129.96628626 152.6804963 -116.43114105 128.40296977 -96.81640625 111.53515625 C-89.01630404 105.3128244 -75.260738 94.53515625 -64.81640625 94.53515625 C-66.82162387 91.93580007 -68.80499522 89.5459667 -71.19140625 87.28515625 C-83.08634495 74.8237919 -86.31834013 60.49956009 -86.09765625 43.8984375 C-85.86510778 37.25336507 -84.49422503 31.65714326 -81.81640625 25.53515625 C-81.29046875 24.33052734 -81.29046875 24.33052734 -80.75390625 23.1015625 C-74.0708889 9.71232288 -61.72858654 -0.41103132 -47.81640625 -5.46484375 C-31.95026715 -10.194812 -14.27343055 -8.56405833 0 0 Z M-61.62890625 24.78515625 C-68.7231869 34.60166087 -69.96997153 44.74976251 -68.81640625 56.53515625 C-66.55882716 67.31543039 -60.07184477 75.6462469 -51.2421875 82.02734375 C-41.26624726 88.22816973 -30.04438195 89.25823914 -18.6640625 86.875 C-7.4793152 83.25133012 0.98614427 75.3463862 6.50390625 65.078125 C10.55503226 55.63021924 10.78378355 44.35955161 7.62109375 34.59765625 C3.04450981 23.9242944 -5.2055444 15.67424019 -15.87890625 11.09765625 C-33.29580014 5.45487576 -50.02250414 11.01025439 -61.62890625 24.78515625 Z M-93.81640625 132.53515625 C-102.4424552 142.07321038 -113.81640625 159.05256049 -113.81640625 172.53515625 C-58.37640625 172.53515625 -2.93640625 172.53515625 54.18359375 172.53515625 C49.14000957 149.83902743 36.73108457 131.37404075 17.18359375 118.53515625 C-19.34985112 96.0415471 -63.90082906 102.18719493 -93.81640625 132.53515625 Z " fill="#0018C4" transform="translate(285.81640625,152.46484375)"/>
<path d="M0 0 C4.93789269 2.85515024 8.9037585 6.52460555 13 10.4375 C14.76310331 12.1101384 16.52936897 13.77791242 18.3125 15.42919922 C19.41338674 16.45395403 20.49783391 17.4967449 21.5625 18.55908203 C23.21269585 20.18550745 23.21269585 20.18550745 26 22 C30.32873852 21.6688845 33.71756588 20.39413755 37.58984375 18.49609375 C38.62173828 18.00302734 39.65363281 17.50996094 40.71679688 17.00195312 C42.86231213 15.95977137 45.00555503 14.91289841 47.14648438 13.86132812 C57.03662895 9.15379206 57.03662895 9.15379206 63 10 C67.14613048 11.79037453 69.20962547 13.85386952 71 18 C71.38737285 23.2655179 70.5981615 26.70707313 68.33984375 31.44921875 C67.79392578 32.62677734 67.24800781 33.80433594 66.68554688 35.01757812 C66.10424236 36.24154072 65.52154511 37.46484277 64.9375 38.6875 C63.78703221 41.10224598 62.65331156 43.52272481 61.52734375 45.94921875 C61.01937256 47.01487061 60.51140137 48.08052246 59.98803711 49.1784668 C58.95442108 52.13015953 58.73695407 53.19200542 60 56 C61.80541316 58.13183185 63.61937448 60.12774351 65.5625 62.125 C80.78623242 78.16757952 80.78623242 78.16757952 81.25 84.3125 C80.984656 88.22632394 80.36680088 89.93192479 78 93 C68.6234038 99.25106413 48.83460447 94.11657155 38 93 C37.53625977 93.83249268 37.07251953 94.66498535 36.59472656 95.52270508 C34.86659394 98.61951353 33.12694002 101.70971987 31.38378906 104.7980957 C30.63194628 106.13389562 29.88321039 107.47144929 29.13769531 108.81079102 C28.06353121 110.73927363 26.9782319 112.66110535 25.890625 114.58203125 C25.56128967 115.17901321 25.23195435 115.77599518 24.89263916 116.3910675 C22.33852828 120.86317276 20.12721808 123.33819882 15.1875 124.875 C11.04588572 125.03741625 8.61584638 123.97848198 5 122 C2.04363503 118.84058428 1.27546927 115.84800005 0.39453125 111.66015625 C0.13349609 110.43232422 -0.12753906 109.20449219 -0.39648438 107.93945312 C-0.65751953 106.66005859 -0.91855469 105.38066406 -1.1875 104.0625 C-1.46013672 102.78697266 -1.73277344 101.51144531 -2.01367188 100.19726562 C-4.17519617 89.86637131 -4.17519617 89.86637131 -4 85 C-5.23234375 84.88269531 -6.4646875 84.76539063 -7.734375 84.64453125 C-13.63966133 83.98440625 -19.42930033 82.86669347 -25.25 81.6875 C-26.3121875 81.48705078 -27.374375 81.28660156 -28.46875 81.08007812 C-38.33769857 79.07777261 -38.33769857 79.07777261 -42 75 C-43.03125 73.10546875 -43.03125 73.10546875 -43.5 71.1875 C-43.6753125 70.56230469 -43.850625 69.93710938 -44.03125 69.29296875 C-43.98267012 65.72841995 -42.98484132 62.906463 -41 60 C-38.55315572 57.94454942 -35.88006041 56.49076294 -33.0625 55 C-31.93146851 54.36989014 -31.93146851 54.36989014 -30.77758789 53.72705078 C-29.25203386 52.87727267 -27.72233886 52.0348835 -26.18847656 51.20019531 C-23.06636825 49.48798152 -20.00495372 47.68326031 -16.9375 45.875 C-15.29186124 44.91633259 -13.64611259 43.95785357 -12 43 C-12.09087891 42.1181604 -12.09087891 42.1181604 -12.18359375 41.21850586 C-13.15435262 31.64626338 -14.12257847 22.0569212 -14.4375 12.4375 C-14.47746094 11.30183594 -14.51742188 10.16617188 -14.55859375 8.99609375 C-13.81542981 5.01003264 -12.0666686 3.55017705 -9 1 C-5.89046621 -0.5547669 -3.43733239 -0.28644437 0 0 Z M4 26 C4.0721875 26.71542969 4.144375 27.43085937 4.21875 28.16796875 C4.73847901 33.74783716 5.15764949 39.33752807 5.375 44.9375 C5.44847656 46.49791016 5.44847656 46.49791016 5.5234375 48.08984375 C4.78904559 52.17284352 3.20825201 53.4066281 0 56 C-2.7011424 57.74221615 -5.48170766 59.29211913 -8.3125 60.8125 C-9.42334961 61.42254883 -9.42334961 61.42254883 -10.55664062 62.04492188 C-12.36689548 63.03764228 -14.18287755 64.01990693 -16 65 C-16 65.33 -16 65.66 -16 66 C-15.03175293 66.19577637 -15.03175293 66.19577637 -14.04394531 66.39550781 C-11.10917768 66.99807966 -8.17980313 67.62375458 -5.25 68.25 C-4.23421875 68.45496094 -3.2184375 68.65992188 -2.171875 68.87109375 C-1.1921875 69.08378906 -0.2125 69.29648438 0.796875 69.515625 C1.69760742 69.70415039 2.59833984 69.89267578 3.52636719 70.08691406 C6.57629474 71.21272625 7.98607394 72.45644476 10 75 C10.91308594 77.47363281 10.91308594 77.47363281 11.484375 80.203125 C11.69707031 81.1828125 11.90976562 82.1625 12.12890625 83.171875 C12.33386719 84.18765625 12.53882813 85.2034375 12.75 86.25 C12.97042969 87.28125 13.19085938 88.3125 13.41796875 89.375 C13.95871636 91.91416269 14.48549302 94.45541365 15 97 C16.89103398 94.54152056 18.6095749 92.08618599 20.15625 89.3984375 C20.53910156 88.74359375 20.92195313 88.08875 21.31640625 87.4140625 C22.10886317 86.04883969 22.8979015 84.68162709 23.68359375 83.3125 C25.57441229 80.09110544 26.84662464 78.10225024 30 76 C38.29307066 75.29598393 46.74155468 76.16671543 55 77 C54.175 76.030625 53.35 75.06125 52.5 74.0625 C51.95988281 73.42183594 51.41976562 72.78117187 50.86328125 72.12109375 C49.57441196 70.65389034 48.23387387 69.23108288 46.85546875 67.84765625 C42.97238174 63.86661749 39.70161741 60.49131754 39.4765625 54.7421875 C40.51602824 49.29662818 43.04246973 44.34830654 45.43359375 39.37890625 C47.14019579 36.31830436 47.14019579 36.31830436 47 34 C42.28865099 35.4702082 37.7699436 37.05732712 33.3125 39.1875 C29.67821824 40.82166489 27.0325466 41.71689717 23 41 C17.73730522 38.24904591 13.6075614 34.03494925 9.26953125 30.0234375 C6.97311103 27.88119749 6.97311103 27.88119749 4 26 Z " fill="#0018C4" transform="translate(364,67)"/>
<path d="M0 0 C3.5386994 1.65139305 4.81070153 2.71605229 7 6 C8.15904528 18.22110983 6.25267476 30.8447238 5 43 C5.83249268 43.46374023 6.66498535 43.92748047 7.52270508 44.40527344 C10.61951353 46.13340606 13.70971987 47.87305998 16.7980957 49.61621094 C18.13389562 50.36805372 19.47144929 51.11678961 20.81079102 51.86230469 C22.73927363 52.93646879 24.66110535 54.0217681 26.58203125 55.109375 C27.17901321 55.43871033 27.77599518 55.76804565 28.3910675 56.10736084 C32.86317276 58.66147172 35.33819882 60.87278192 36.875 65.8125 C37.03741625 69.95411428 35.97848198 72.38415362 34 76 C30.84058428 78.95636497 27.84800005 79.72453073 23.66015625 80.60546875 C22.43232422 80.86650391 21.20449219 81.12753906 19.93945312 81.39648438 C18.02036133 81.78803711 18.02036133 81.78803711 16.0625 82.1875 C14.78697266 82.46013672 13.51144531 82.73277344 12.19726562 83.01367188 C1.86637131 85.17519617 1.86637131 85.17519617 -3 85 C-3.04535889 85.58483154 -3.09071777 86.16966309 -3.13745117 86.7722168 C-3.73263139 93.56846846 -4.88531885 100.14509138 -6.3125 106.8125 C-6.51294922 107.82248047 -6.71339844 108.83246094 -6.91992188 109.87304688 C-8.92323068 119.26937148 -8.92323068 119.26937148 -13 123 C-14.89453125 124.03125 -14.89453125 124.03125 -16.8125 124.5 C-17.43769531 124.6753125 -18.06289062 124.850625 -18.70703125 125.03125 C-22.27158005 124.98267012 -25.093537 123.98484132 -28 122 C-30.05545058 119.55315572 -31.50923706 116.88006041 -33 114.0625 C-33.42007324 113.308479 -33.84014648 112.55445801 -34.27294922 111.77758789 C-35.12272733 110.25203386 -35.9651165 108.72233886 -36.79980469 107.18847656 C-38.51201848 104.06636825 -40.31673969 101.00495372 -42.125 97.9375 C-43.08366741 96.29186124 -44.04214643 94.64611259 -45 93 C-45.58789307 93.06058594 -46.17578613 93.12117188 -46.78149414 93.18359375 C-56.35373662 94.15435262 -65.9430788 95.12257847 -75.5625 95.4375 C-76.69816406 95.47746094 -77.83382812 95.51742187 -79.00390625 95.55859375 C-82.98996736 94.81542981 -84.44982295 93.0666686 -87 90 C-88.5547669 86.89046621 -88.28644437 84.43733239 -88 81 C-85.14484976 76.06210731 -81.47539445 72.0962415 -77.5625 68 C-75.8898616 66.23689669 -74.22208758 64.47063103 -72.57080078 62.6875 C-71.54604597 61.58661326 -70.5032551 60.50216609 -69.44091797 59.4375 C-67.81449255 57.78730415 -67.81449255 57.78730415 -66 55 C-66.3311155 50.67126148 -67.60586245 47.28243412 -69.50390625 43.41015625 C-69.99697266 42.37826172 -70.49003906 41.34636719 -70.99804688 40.28320312 C-72.04022863 38.13768787 -73.08710159 35.99444497 -74.13867188 33.85351562 C-78.84620794 23.96337105 -78.84620794 23.96337105 -78 18 C-76.20962547 13.85386952 -74.14613048 11.79037453 -70 10 C-64.7344821 9.61262715 -61.29292687 10.4018385 -56.55078125 12.66015625 C-54.78444336 13.4790332 -54.78444336 13.4790332 -52.98242188 14.31445312 C-51.75845928 14.89575764 -50.53515723 15.47845489 -49.3125 16.0625 C-46.89775402 17.21296779 -44.47727519 18.34668844 -42.05078125 19.47265625 C-40.98512939 19.98062744 -39.91947754 20.48859863 -38.8215332 21.01196289 C-35.86984047 22.04557892 -34.80799458 22.26304593 -32 21 C-29.86816815 19.19458684 -27.87225649 17.38062552 -25.875 15.4375 C-8.96655526 -0.60790205 -8.96655526 -0.60790205 0 0 Z M-12 26 C-13.35130724 27.35733987 -14.6804718 28.73674638 -16 30.125 C-26.31252587 40.50310632 -26.31252587 40.50310632 -32.75390625 41.37109375 C-37.03148453 40.88208059 -40.3873537 39.33228094 -44.25 37.5 C-48.94279376 35.02091911 -48.94279376 35.02091911 -54 34 C-52.5297918 38.71134901 -50.94267288 43.2300564 -48.8125 47.6875 C-47.17833511 51.32178176 -46.28310283 53.9674534 -47 58 C-49.75095409 63.26269478 -53.96505075 67.3924386 -57.9765625 71.73046875 C-60.11880251 74.02688897 -60.11880251 74.02688897 -62 77 C-60.92685547 76.89171875 -60.92685547 76.89171875 -59.83203125 76.78125 C-54.25216284 76.26152099 -48.66247193 75.84235051 -43.0625 75.625 C-42.02222656 75.57601562 -40.98195313 75.52703125 -39.91015625 75.4765625 C-35.82715648 76.21095441 -34.5933719 77.79174799 -32 81 C-30.25778385 83.7011424 -28.70788087 86.48170766 -27.1875 89.3125 C-26.78080078 90.05306641 -26.37410156 90.79363281 -25.95507812 91.55664062 C-24.96235772 93.36689548 -23.98009307 95.18287755 -23 97 C-22.67 97 -22.34 97 -22 97 C-21.86948242 96.35450195 -21.73896484 95.70900391 -21.60449219 95.04394531 C-21.00192034 92.10917768 -20.37624542 89.17980313 -19.75 86.25 C-19.54503906 85.23421875 -19.34007812 84.2184375 -19.12890625 83.171875 C-18.91621094 82.1921875 -18.70351562 81.2125 -18.484375 80.203125 C-18.29584961 79.30239258 -18.10732422 78.40166016 -17.91308594 77.47363281 C-16.78727375 74.42370526 -15.54355524 73.01392606 -13 71 C-10.52636719 70.08691406 -10.52636719 70.08691406 -7.796875 69.515625 C-6.8171875 69.30292969 -5.8375 69.09023437 -4.828125 68.87109375 C-3.81234375 68.66613281 -2.7965625 68.46117187 -1.75 68.25 C-0.71875 68.02957031 0.3125 67.80914062 1.375 67.58203125 C3.91416269 67.04128364 6.45541365 66.51450698 9 66 C6.54152056 64.10896602 4.08618599 62.3904251 1.3984375 60.84375 C0.74359375 60.46089844 0.08875 60.07804687 -0.5859375 59.68359375 C-1.95116031 58.89113683 -3.31837291 58.1020985 -4.6875 57.31640625 C-7.90889456 55.42558771 -9.89774976 54.15337536 -12 51 C-12.70401607 42.70692934 -11.83328457 34.25844532 -11 26 C-11.33 26 -11.66 26 -12 26 Z " fill="#0018C4" transform="translate(155,67)"/>
<path d="M0 0 C0.825 -0.01289062 1.65 -0.02578125 2.5 -0.0390625 C6.24117079 0.95468599 7.59194737 2.59762393 10 5.625 C11.61700315 8.8099625 12.8795295 12.09245176 14.125 15.4375 C14.45886719 16.30181641 14.79273438 17.16613281 15.13671875 18.05664062 C15.79319372 19.76218833 16.44215063 21.47065164 17.08300781 23.18212891 C17.67989356 24.77223507 18.28806756 26.35816443 18.90917969 27.93896484 C20.09418345 30.97649208 21 33.33359161 21 36.625 C22.670625 36.60759766 22.670625 36.60759766 24.375 36.58984375 C32.16759014 36.53140792 39.96329814 36.54284387 47.75 36.875 C49.62945312 36.94460937 49.62945312 36.94460937 51.546875 37.015625 C56.1238794 37.82333166 59.53848089 39.69845208 62.375 43.4375 C63.35285878 46.86000572 63.53535985 49.05593433 63 52.625 C58.65542337 60.08187334 50.44535076 65.17718754 43.69482422 70.31005859 C41.07054895 72.3461212 38.53717868 74.4817212 36 76.625 C37.13461723 84.31330182 39.03806404 91.66259029 41.32299805 99.07763672 C43.05866741 104.96088806 44.28700816 110.66488124 41.75 116.5 C39.81140938 118.85400289 38.91533206 119.75827966 36 120.625 C29.201924 121.23508374 25.73508703 119.87822089 20.1875 116.0625 C19.4968042 115.61229492 18.8061084 115.16208984 18.09448242 114.69824219 C14.92560242 112.62711727 11.80385397 110.4922854 8.6953125 108.33203125 C7.74398437 107.68621094 6.79265625 107.04039063 5.8125 106.375 C4.58466797 105.50101563 4.58466797 105.50101563 3.33203125 104.609375 C1.04712558 103.37747192 1.04712558 103.37747192 -1.3125 104.15234375 C-4.90072578 106.11856631 -8.36485428 108.23528792 -11.8125 110.4375 C-13.85358723 111.72856092 -15.89467034 113.01961908 -17.93676758 114.30908203 C-19.34814816 115.20925258 -20.75133775 116.12236082 -22.1472168 117.04638672 C-22.84113525 117.49900879 -23.53505371 117.95163086 -24.25 118.41796875 C-24.87003906 118.82942139 -25.49007812 119.24087402 -26.12890625 119.66479492 C-29.57918743 121.43540503 -32.17941662 121.12606012 -36 120.625 C-38.84124653 119.38967542 -40.42097859 118.3694561 -42.3125 115.9375 C-44.70489275 107.89036075 -41.70383439 100.11075473 -39.4375 92.375 C-38.76056144 90.05989561 -38.09219037 87.7422639 -37.43359375 85.421875 C-37.13509521 84.40448242 -36.83659668 83.38708984 -36.52905273 82.33886719 C-35.987325 79.55998138 -35.87691354 78.20033559 -37 75.625 C-38.43136392 74.03633192 -38.43136392 74.03633192 -40.28125 72.671875 C-40.95470459 72.13860596 -41.62815918 71.60533691 -42.32202148 71.0559082 C-43.40012085 70.22385864 -43.40012085 70.22385864 -44.5 69.375 C-45.96080716 68.21892699 -47.42044874 67.06137959 -48.87890625 65.90234375 C-49.94069092 65.06292236 -49.94069092 65.06292236 -51.02392578 64.20654297 C-61.33573635 55.95352729 -61.33573635 55.95352729 -63 52.625 C-63.40710593 48.39109838 -63.25575965 46.10911648 -61.25 42.3125 C-58.23584382 38.7122579 -56.40931146 37.80412112 -51.7421875 37.2109375 C-49.82792969 37.10652344 -49.82792969 37.10652344 -47.875 37 C-47.18792969 36.96205322 -46.50085938 36.92410645 -45.79296875 36.88500977 C-37.53299511 36.47627454 -29.26709846 36.53888439 -21 36.625 C-20.87850586 35.75625244 -20.75701172 34.88750488 -20.63183594 33.99243164 C-19.58518186 28.41418599 -17.34437091 23.3196131 -15.25 18.0625 C-14.81945312 16.93908203 -14.38890625 15.81566406 -13.9453125 14.65820312 C-8.07722827 -0.12620669 -8.07722827 -0.12620669 0 0 Z M-1 29.625 C-2.14702187 32.56203729 -3.2924112 35.49970857 -4.4375 38.4375 C-4.92573242 39.68756836 -4.92573242 39.68756836 -5.42382812 40.96289062 C-5.73642578 41.76533203 -6.04902344 42.56777344 -6.37109375 43.39453125 C-6.8031311 44.50211792 -6.8031311 44.50211792 -7.24389648 45.63208008 C-7.86971645 47.28160167 -8.4420957 48.95128709 -9 50.625 C-17.63780193 53.45191699 -26.98761975 53.25556046 -36 53.625 C-32.0259269 57.72014701 -27.82299017 61.19246195 -23.3046875 64.66015625 C-19.64200987 67.78274413 -18.1283371 69.52496773 -17.5625 74.375 C-17.7691786 81.60875109 -20.09368418 88.68907414 -22 95.625 C-17.51424914 93.1848346 -13.11429527 90.72613388 -8.875 87.875 C-5.17191002 85.58608218 -2.46417593 84.4710629 2 84.625 C8.91057103 87.14735843 15.01601986 91.41886903 21 95.625 C22.56330431 92.49839137 21.10631118 90.3204561 20.0625 87.0625 C16.25106299 73.983253 16.25106299 73.983253 18.9296875 68.83984375 C22.8511301 63.74660913 28.40932205 60.16088807 33.5859375 56.4453125 C34.38257813 55.84460938 35.17921875 55.24390625 36 54.625 C36 54.295 36 53.965 36 53.625 C34.80503906 53.57601562 33.61007812 53.52703125 32.37890625 53.4765625 C14.76739674 52.68478455 14.76739674 52.68478455 9 50.625 C7.9765625 48.56640625 7.9765625 48.56640625 7 45.625 C6.50189494 44.29388067 5.99890188 42.96458465 5.4921875 41.63671875 C4.95256179 40.19552326 4.41351113 38.75411233 3.875 37.3125 C3.59785156 36.57193359 3.32070313 35.83136719 3.03515625 35.06835938 C2.35626973 33.25409368 1.67806589 31.43957256 1 29.625 C0.34 29.625 -0.32 29.625 -1 29.625 Z " fill="#0018C4" transform="translate(256,7.375)"/>
</svg>
