<svg xmlns="http://www.w3.org/2000/svg" version="1.1" xmlns:xlink="http://www.w3.org/1999/xlink" xmlns:svgjs="http://svgjs.dev/svgjs" width="1500" height="500" preserveAspectRatio="none" viewBox="0 0 1500 500">
    <g mask="url(&quot;#SvgjsMask1077&quot;)" fill="none">
        <rect width="1500" height="500" x="0" y="0" fill="rgba(52, 38, 221, 1)"></rect>
        <path d="M39 500L539 0L884 0L384 500z" fill="url(&quot;#SvgjsLinearGradient1078&quot;)"></path>
        <path d="M371 500L871 0L1295.5 0L795.5 500z" fill="url(&quot;#SvgjsLinearGradient1078&quot;)"></path>
        <path d="M722 500L1222 0L1673.5 0L1173.5 500z" fill="url(&quot;#SvgjsLinearGradient1078&quot;)"></path>
        <path d="M1451 500L951 0L826.5 0L1326.5 500z" fill="url(&quot;#SvgjsLinearGradient1079&quot;)"></path>
        <path d="M1153 500L653 0L591.5 0L1091.5 500z" fill="url(&quot;#SvgjsLinearGradient1079&quot;)"></path>
        <path d="M797 500L297 0L-66 0L434 500z" fill="url(&quot;#SvgjsLinearGradient1079&quot;)"></path>
        <path d="M1055.3275399189688 500L1500 55.32753991896885L1500 500z" fill="url(&quot;#SvgjsLinearGradient1078&quot;)"></path>
        <path d="M0 500L444.67246008103115 500L 0 55.32753991896885z" fill="url(&quot;#SvgjsLinearGradient1079&quot;)"></path>
    </g>
    <defs>
        <mask id="SvgjsMask1077">
            <rect width="1500" height="500" fill="#ffffff"></rect>
        </mask>
        <linearGradient x1="0%" y1="100%" x2="100%" y2="0%" id="SvgjsLinearGradient1078">
            <stop stop-color="rgba(36, 7, 188, 1)" offset="0"></stop>
            <stop stop-opacity="0" stop-color="rgba(36, 7, 188, 1)" offset="0.66"></stop>
        </linearGradient>
        <linearGradient x1="100%" y1="100%" x2="0%" y2="0%" id="SvgjsLinearGradient1079">
            <stop stop-color="rgba(36, 7, 188, 1)" offset="0"></stop>
            <stop stop-opacity="0" stop-color="rgba(36, 7, 188, 1)" offset="0.66"></stop>
        </linearGradient>
    </defs>
</svg>