<?xml version="1.0" encoding="UTF-8"?>
<svg version="1.1" xmlns="http://www.w3.org/2000/svg" width="512" height="512">
<path d="M0 0 C1.65982929 -0.00461519 3.31965448 -0.01097224 4.97947121 -0.01890898 C9.51692673 -0.03554063 14.05404387 -0.02738411 18.59150028 -0.0149641 C23.49410813 -0.00589061 28.39665896 -0.01989473 33.29925537 -0.03088379 C42.89411316 -0.04864906 52.48884563 -0.04483789 62.08370829 -0.03323323 C69.88322889 -0.02419135 77.68271443 -0.02297817 85.48223877 -0.02732849 C87.14878209 -0.02824789 87.14878209 -0.02824789 88.84899294 -0.02918586 C91.10618704 -0.03046479 93.36338112 -0.03176165 95.62057519 -0.03307623 C116.77500389 -0.04447619 137.92936321 -0.03137746 159.08378053 -0.00987476 C177.22629858 0.00799568 195.36871426 0.0048914 213.51123047 -0.0135498 C234.59113691 -0.0349668 255.67098256 -0.04337761 276.75089836 -0.03110075 C278.99968337 -0.02982658 281.24846839 -0.0285691 283.49725342 -0.02732849 C284.60363305 -0.02671139 285.71001268 -0.02609429 286.84991896 -0.02545848 C294.6380183 -0.02200808 302.42607901 -0.02782727 310.21417236 -0.0372467 C319.70820809 -0.04847726 329.20211156 -0.04540436 338.69613218 -0.02412373 C343.53803248 -0.0136276 348.37971246 -0.00946701 353.22161102 -0.02272034 C357.65798218 -0.0346798 362.09392973 -0.02802333 366.53026271 -0.00681013 C368.13105692 -0.00235909 369.73188726 -0.00457649 371.33265805 -0.01431328 C384.8426016 -0.09015501 395.46438948 1.93741456 405.48974609 11.50793457 C416.45294995 22.99216197 417.63661857 36.05354417 417.65087891 51.19763184 C417.65584381 52.46363724 417.66080872 53.72964264 417.66592407 55.03401184 C417.67897931 58.49310423 417.68547995 61.95217726 417.68993473 65.41129041 C417.69287767 67.57918314 417.69698479 69.74707074 417.7014389 71.91496086 C417.71509807 78.71730986 417.72477146 85.51964692 417.72864079 92.32200867 C417.73311253 100.13757478 417.75062579 107.95296523 417.77964139 115.76847798 C417.80136484 121.83333482 417.81135079 127.89814263 417.81268191 133.96303791 C417.8137227 137.57403051 417.81947301 141.18485764 417.83750153 144.79580879 C417.85727613 148.8348034 417.85265114 152.87343761 417.84619141 156.91247559 C417.85540619 158.08544189 417.86462097 159.2584082 417.87411499 160.46691895 C417.80724748 173.91206481 415.79854997 186.5690614 406.45068359 196.72277832 C398.58333142 204.18703295 390.03872878 208.64287351 379.16064453 208.62145996 C377.87961853 208.62138443 376.59859253 208.6213089 375.27874756 208.62123108 C373.88553834 208.61612483 372.49232952 208.61090884 371.09912109 208.60559082 C369.66994272 208.60372489 368.24076371 208.60230181 366.81158447 208.6013031 C363.05674462 208.59749172 359.30194367 208.58767324 355.54711914 208.57659912 C351.71289598 208.56635532 347.87866651 208.56179912 344.04443359 208.5567627 C336.52618672 208.54604971 329.00797187 208.52898988 321.48974609 208.50793457 C321.49973885 209.55909958 321.49973885 209.55909958 321.50993347 210.63150024 C321.57016969 217.25185261 321.61578381 223.87212793 321.64518261 230.49269295 C321.66080526 233.89600488 321.68198044 237.29908942 321.71606445 240.70227051 C321.75504643 244.61923454 321.76948349 248.53610808 321.78271484 252.45324707 C321.80594063 254.27700363 321.80594063 254.27700363 321.82963562 256.13760376 C321.83176052 266.83490361 321.83176052 266.83490361 318.48974609 271.50793457 C315.33178503 273.0869151 311.88303974 273.32721628 308.48974609 272.50793457 C303.75472999 268.66646183 301.04898381 263.77289293 298.05224609 258.57043457 C293.1179478 250.17328019 287.99803603 241.91971596 282.73803711 233.72302246 C281.93064087 232.46413208 281.93064087 232.46413208 281.10693359 231.17980957 C280.51992676 230.3161377 279.93291992 229.45246582 279.328125 228.56262207 C277.85253339 226.11074926 276.83255688 223.95925896 275.78808594 221.32824707 C273.74977719 216.65988339 271.7036192 212.54258833 267.48974609 209.50793457 C258.84554907 206.72419347 249.312045 207.68554107 240.36474609 208.00793457 C237.85701659 208.04000189 235.34918318 208.06481477 232.84130859 208.08215332 C226.72041934 208.14020991 220.60687097 208.28869448 214.48974609 208.50793457 C214.23668701 209.39408699 214.23668701 209.39408699 213.97851562 210.29814148 C212.04697855 216.91356726 209.78592083 223.35823272 207.36474609 229.80871582 C206.97657715 230.84811813 206.5884082 231.88752045 206.18847656 232.9584198 C205.37324915 235.13806526 204.55633117 237.3170791 203.73779297 239.4954834 C202.48759063 242.826177 201.24622619 246.16007721 200.00537109 249.4942627 C199.20902887 251.62011339 198.41217182 253.74577132 197.61474609 255.87121582 C197.24591309 256.86398026 196.87708008 257.85674469 196.49707031 258.8795929 C192.01817047 270.74372238 192.01817047 270.74372238 188.48974609 272.50793457 C181.20873113 273.0951132 181.20873113 273.0951132 178.54272461 270.91784668 C176.07722312 268.0236898 174.8524344 265.04653182 173.57177734 261.52355957 C173.31290741 260.83872498 173.05403748 260.15389038 172.787323 259.44830322 C171.94855183 257.22192718 171.12523426 254.99018745 170.30224609 252.75793457 C169.7280809 251.22372501 169.1529607 249.68987253 168.5769043 248.15637207 C167.42143231 245.07576304 166.27196722 241.99301716 165.12744141 238.9083252 C163.64957468 234.92910356 162.14819276 230.95944699 160.63818359 226.99230957 C159.81767053 224.83092737 158.99734387 222.66947438 158.17724609 220.50793457 C157.79866455 219.51310059 157.42008301 218.5182666 157.0300293 217.49328613 C156.69060303 216.59062012 156.35117676 215.6879541 156.00146484 214.75793457 C155.56000122 213.59004395 155.56000122 213.59004395 155.10961914 212.39855957 C154.48974609 210.50793457 154.48974609 210.50793457 154.48974609 208.50793457 C125.16794548 204.94870269 125.16794548 204.94870269 97.74902344 211.52404785 C92.45353004 216.73572337 90.10139531 223.15031099 87.77880859 230.09338379 C85.56888848 235.94716081 82.0525147 240.93795532 78.61474609 246.13293457 C77.36839391 248.11257622 76.12730175 250.09554154 74.89208984 252.08215332 C73.75814226 253.89085178 72.62403851 255.69945235 71.48974609 257.50793457 C70.99619629 258.29635742 70.50264648 259.08478027 69.99414062 259.89709473 C68.727313 261.91673366 67.45394901 263.93202876 66.17724609 265.94543457 C65.50048828 267.01664551 64.82373047 268.08785645 64.12646484 269.19152832 C62.48974609 271.50793457 62.48974609 271.50793457 60.48974609 272.50793457 C53.23312186 273.0931462 53.23312186 273.0931462 50.38873291 270.85394287 C47.97808029 267.87582264 48.00373251 266.34355092 48.03564453 262.54602051 C48.03594666 261.34507751 48.03624878 260.14413452 48.03656006 258.90679932 C48.0572052 257.6150177 48.07785034 256.32323608 48.09912109 254.99230957 C48.10658538 253.65282028 48.11227743 252.31332005 48.11627197 250.97381592 C48.13151396 247.45542021 48.17078192 243.93768942 48.21508789 240.41955566 C48.25607245 236.82671096 48.27428969 233.23375837 48.29443359 229.64074707 C48.33727864 222.59620491 48.40551163 215.55211325 48.48974609 208.50793457 C47.69984787 208.51681702 46.90994965 208.52569946 46.09611511 208.53485107 C38.6090586 208.61539212 31.12221564 208.67609784 23.63483715 208.71518326 C19.78656035 208.73595387 15.93864502 208.76407529 12.09057617 208.80969238 C8.36875733 208.8535308 4.64728356 208.87715057 0.92522621 208.88744354 C-0.48640046 208.89476751 -1.89801077 208.90906724 -3.3094883 208.9308548 C-16.54225351 209.12677266 -26.76266997 206.81328408 -36.51025391 197.50793457 C-46.19094303 187.3671731 -48.11236845 176.69157382 -48.02783203 163.03137207 C-48.03326498 161.60918465 -48.04039417 160.18700287 -48.04907227 158.76483154 C-48.06716961 154.9341452 -48.06029505 151.10389407 -48.04755592 147.27320099 C-48.03735713 143.24515192 -48.04684055 139.21713761 -48.05310059 135.18908691 C-48.06035712 128.42746358 -48.05084193 121.66601559 -48.03173828 114.90441895 C-48.00997329 107.11136255 -48.01702608 99.3187249 -48.0390439 91.52567863 C-48.05725503 84.80853149 -48.05972845 78.09150966 -48.04928923 71.37434578 C-48.04308554 67.37394482 -48.04213173 63.37374004 -48.05543518 59.37335205 C-48.06707679 55.61053835 -48.05881852 51.84825919 -48.03585815 48.08550262 C-48.02813414 46.06358047 -48.03985561 44.04161255 -48.05236816 42.01971436 C-47.94073707 29.86926747 -44.99076306 20.39147783 -36.51025391 11.50793457 C-25.7704901 1.25541903 -14.29438565 -0.08694651 0 0 Z M-25.76025391 25.94543457 C-30.67050149 31.97106476 -31.63013091 38.37747699 -31.64396667 46.02827454 C-31.64823166 47.1005278 -31.65249664 48.17278107 -31.65689087 49.27752686 C-31.65643768 50.43871033 -31.6559845 51.5998938 -31.65551758 52.79626465 C-31.65887619 54.0311412 -31.6622348 55.26601776 -31.66569519 56.53831482 C-31.67355198 59.91450807 -31.67687187 63.2906398 -31.67751098 66.66683793 C-31.67822348 68.77991068 -31.6803616 70.89297705 -31.68300819 73.0060482 C-31.69225063 80.38859845 -31.6963445 87.77113068 -31.69555664 95.15368652 C-31.6949563 102.01782742 -31.70550231 108.88188961 -31.7213003 115.7460106 C-31.73440879 121.65365809 -31.73973914 127.56127996 -31.73910123 133.46894187 C-31.73884719 136.99088193 -31.74164595 140.51275202 -31.75227928 144.03467751 C-31.76382818 147.9669561 -31.75919322 151.89912814 -31.75317383 155.8314209 C-31.75879333 156.98653168 -31.76441284 158.14164246 -31.77020264 159.33175659 C-31.73188466 169.20440902 -31.2198606 177.83911078 -23.86962891 185.13684082 C-16.83370137 191.4844711 -9.99098713 192.61438895 -0.63452148 192.66564941 C0.02477859 192.67073013 0.68407867 192.67581085 1.36335754 192.68104553 C2.78414301 192.69168421 4.20494455 192.70032945 5.6257534 192.70716476 C7.87447548 192.71902642 10.12301173 192.73849264 12.37165833 192.76028442 C18.76113748 192.82169027 25.15059007 192.87606643 31.5402832 192.90930176 C35.45716285 192.93021766 39.37369033 192.9654808 43.29036903 193.01005936 C44.7810789 193.02422803 46.27185091 193.03294377 47.76262474 193.03611374 C49.84285969 193.04100984 51.92215301 193.06412677 54.00219727 193.09143066 C55.77707771 193.10356094 55.77707771 193.10356094 57.58781433 193.11593628 C60.48974609 193.50793457 60.48974609 193.50793457 62.36819458 194.79466248 C64.38204012 197.87099497 63.9735304 201.54737037 64.00146484 205.11340332 C64.02839165 206.37221062 64.02839165 206.37221062 64.05586243 207.65644836 C64.11003173 210.33605936 64.14388182 213.01549159 64.17724609 215.69543457 C64.21041339 217.51251678 64.2449025 219.32957537 64.28076172 221.14660645 C64.36576182 225.60025362 64.43254111 230.05384716 64.48974609 234.50793457 C66.88982152 231.5693602 69.14068157 228.64186405 71.15380859 225.42590332 C71.63156738 224.66583984 72.10932617 223.90577637 72.6015625 223.12268066 C73.10091309 222.32168945 73.60026367 221.52069824 74.11474609 220.69543457 C74.63601074 219.86608398 75.15727539 219.0367334 75.69433594 218.18225098 C78.29120469 214.04602972 80.8687968 209.89849054 83.42724609 205.73840332 C83.88147949 205.00275146 84.33571289 204.26709961 84.80371094 203.50915527 C85.66276061 202.11595907 86.51742406 200.72004657 87.3671875 199.32116699 C90.26688633 194.61936445 90.26688633 194.61936445 92.48974609 193.50793457 C94.7507685 193.40042869 97.01502062 193.35901391 99.27856445 193.34680176 C99.97629471 193.34183685 100.67402496 193.33687195 101.39289856 193.33175659 C103.70513895 193.31712999 106.01731076 193.3103327 108.32958984 193.30480957 C109.93380231 193.29905918 111.53801476 193.29330143 113.14222717 193.28753662 C116.50733766 193.27702567 119.87242423 193.27118341 123.23754883 193.2677002 C127.5531949 193.26221072 131.86852621 193.23817365 136.18407345 193.20972824 C139.49802073 193.19112251 142.81189181 193.18589741 146.12588692 193.18436432 C147.71713548 193.18133332 149.30838256 193.17328975 150.89958 193.16017914 C153.12380962 193.14315877 155.34726522 193.14498841 157.5715332 193.15148926 C158.83791122 193.14784363 160.10428925 193.144198 161.40904236 193.14044189 C164.48974609 193.50793457 164.48974609 193.50793457 166.32923889 194.8217926 C168.26286699 197.63122927 169.34817177 200.77888772 170.52099609 203.95715332 C170.79818481 204.68860062 171.07537354 205.42004791 171.36096191 206.17366028 C172.2448657 208.51145388 173.11743427 210.85329418 173.98974609 213.19543457 C174.57624288 214.75235521 175.1634749 216.3089991 175.75146484 217.86535645 C177.08705817 221.40555781 178.41472772 224.94863064 179.73754883 228.49362183 C180.98460026 231.83310697 182.23749811 235.17039509 183.48974609 238.50793457 C184.14974609 238.50793457 184.80974609 238.50793457 185.48974609 238.50793457 C185.93366699 237.31716309 186.37758789 236.1263916 186.83496094 234.89953613 C188.48393299 230.47812775 190.13581492 226.0578113 191.78857422 221.63781738 C192.50323522 219.72535342 193.21710875 217.81259499 193.93017578 215.89953613 C194.95576976 213.14843027 195.98419913 210.39839882 197.01318359 207.64855957 C197.33096771 206.79425354 197.64875183 205.93994751 197.97616577 205.05975342 C198.27632599 204.25922546 198.57648621 203.45869751 198.88574219 202.63391113 C199.14777435 201.93219788 199.40980652 201.23048462 199.67977905 200.50750732 C202.01358751 194.74601386 202.01358751 194.74601386 204.48974609 193.50793457 C206.74535572 193.39529073 209.0043434 193.34854095 211.26269531 193.33093262 C211.95881927 193.32436142 212.65494324 193.31779022 213.37216187 193.3110199 C215.67958683 193.29128259 217.98694673 193.27962416 220.29443359 193.26965332 C221.4757102 193.26354003 221.4757102 193.26354003 222.68085098 193.25730324 C226.84810372 193.23644184 231.01532351 193.22213977 235.18261719 193.21276855 C239.48929151 193.20169663 243.7954502 193.16728844 248.10194206 193.12759686 C251.41164113 193.10146881 254.72121654 193.09308021 258.03100967 193.08948708 C259.61865857 193.08461213 261.20630162 193.07297229 262.79384995 193.05444908 C265.01565346 193.03013452 267.23611236 193.03100755 269.45800781 193.03796387 C270.72216522 193.03209763 271.98632263 193.02623138 273.28878784 193.02018738 C277.08088922 193.59801022 278.16083516 194.53407257 280.48974609 197.50793457 C281.7558846 199.37122774 282.96697003 201.2725918 284.13427734 203.19934082 C284.81167969 204.30986816 285.48908203 205.42039551 286.18701172 206.5645752 C286.89233494 207.73304707 287.59741214 208.9016675 288.30224609 210.07043457 C294.32111798 219.9895662 294.32111798 219.9895662 300.43896484 229.84777832 C301.28527466 231.19730591 301.28527466 231.19730591 302.14868164 232.57409668 C302.59123291 233.21226318 303.03378418 233.85042969 303.48974609 234.50793457 C303.81974609 234.50793457 304.14974609 234.50793457 304.48974609 234.50793457 C304.50432861 233.37251221 304.51891113 232.23708984 304.53393555 231.06726074 C304.59188285 226.85697848 304.66911551 222.64723307 304.75219727 218.43737793 C304.7854635 216.61487538 304.81349016 214.79226938 304.83618164 212.96960449 C304.86969691 210.35042207 304.92200961 207.73218909 304.97802734 205.11340332 C304.98441727 204.29768356 304.99080719 203.48196381 304.99739075 202.64152527 C305.14327575 197.03610475 305.14327575 197.03610475 306.61427307 194.79367065 C309.38166748 192.89647522 311.59549983 193.12169805 314.9296875 193.1072998 C315.57891174 193.10032074 316.22813599 193.09334167 316.89703369 193.08615112 C319.04525688 193.06614548 321.1930004 193.06667439 323.34130859 193.06652832 C324.84005014 193.05475171 326.33877997 193.04138679 327.8374939 193.02650452 C331.78943979 192.99027373 335.7412821 192.9701134 339.69335938 192.95495605 C345.99714988 192.93016801 352.30071082 192.89008786 358.60429001 192.8330555 C360.79603312 192.81686282 362.98755655 192.81296002 365.17935181 192.81004333 C380.46894775 192.75256198 380.46894775 192.75256198 393.11865234 184.86730957 C399.06285218 178.27855795 400.60750829 171.80782483 400.62345886 162.9875946 C400.62772385 161.91534134 400.63198883 160.84308807 400.63638306 159.73834229 C400.63570328 157.99656708 400.63570328 157.99656708 400.63500977 156.21960449 C400.63836838 154.98472794 400.64172699 153.74985138 400.64518738 152.47755432 C400.65304417 149.10136107 400.65636406 145.72522934 400.65700316 142.34903121 C400.65771567 140.23595846 400.65985379 138.1228921 400.66250038 136.00982094 C400.67174282 128.62727069 400.67583669 121.24473846 400.67504883 113.86218262 C400.67444849 106.99804172 400.6849945 100.13397953 400.70079249 93.26985854 C400.71390098 87.36221105 400.71923133 81.45458918 400.71859342 75.54692727 C400.71833938 72.02498721 400.72113813 68.50311712 400.73177147 64.98119164 C400.74332036 61.04891304 400.73868541 57.116741 400.73266602 53.18444824 C400.73828552 52.02933746 400.74390503 50.87422668 400.74969482 49.68411255 C400.71137685 39.81146012 400.19935279 31.17675836 392.84912109 23.87902832 C385.86764382 17.58052165 379.07341666 16.38494715 369.77952862 16.37930012 C369.12696643 16.37754708 368.47440423 16.37579404 367.80206743 16.37398788 C365.61824226 16.36934074 363.43448404 16.37179006 361.25065613 16.3742218 C359.66796814 16.37235318 358.08528061 16.37005228 356.50259382 16.36735648 C352.15531582 16.36123839 347.80805705 16.36137209 343.46077573 16.36255085 C338.77150067 16.36275486 334.08223178 16.35723614 329.39295959 16.35249329 C320.20653728 16.34418616 311.02012137 16.34143842 301.83369561 16.34088091 C294.36680905 16.34040578 286.8999246 16.33835122 279.43303871 16.33518028 C258.26446659 16.3263736 237.09589954 16.32176094 215.92732557 16.32251076 C214.21545151 16.32257069 214.21545151 16.32257069 212.46899414 16.32263184 C211.32635187 16.32267272 210.1837096 16.3227136 209.00644181 16.32275572 C190.48629631 16.32316221 171.96617115 16.31359189 153.44603153 16.29949347 C134.43107801 16.28513255 115.4161344 16.27822313 96.40117532 16.27908725 C85.72516128 16.27941931 75.04916856 16.27666809 64.37315941 16.26590919 C55.28375663 16.25680794 46.19438483 16.25462587 37.10497948 16.26141862 C32.46796598 16.26468569 27.83101192 16.26473373 23.19400406 16.25606537 C18.94701551 16.24820779 14.70013361 16.24962424 10.45314769 16.2583495 C8.91885626 16.25988612 7.3845569 16.25806223 5.85027482 16.25248943 C-6.46226595 16.21073897 -16.96904518 16.20096224 -25.76025391 25.94543457 Z " fill="#0018C4" transform="translate(71.51025390625,7.4920654296875)"/>
<path d="M0 0 C3.84586547 3.14003604 6.332204 6.78398718 7.0625 11.75 C7.31127978 17.14919351 6.55019095 21.56602339 5.0625 26.6875 C4.87171875 27.37134766 4.6809375 28.05519531 4.484375 28.75976562 C4.01845063 30.42544526 3.54161589 32.08806675 3.0625 33.75 C4.47402344 33.69779297 4.47402344 33.69779297 5.9140625 33.64453125 C7.78191406 33.60392578 7.78191406 33.60392578 9.6875 33.5625 C10.91726562 33.52769531 12.14703125 33.49289063 13.4140625 33.45703125 C18.36297626 33.85442797 21.51783236 35.31256069 25.14453125 38.6875 C25.71558594 39.368125 26.28664063 40.04875 26.875 40.75 C27.45894531 41.430625 28.04289062 42.11125 28.64453125 42.8125 C33.51493502 49.46737677 31.38367478 60.3824359 30.24206543 68.15185547 C29.76798678 71.10863085 29.25556071 74.05692283 28.71875 77.00292969 C28.30844752 79.27241525 27.92681088 81.5455682 27.546875 83.8203125 C27.28814937 85.28675769 27.02779218 86.75291617 26.765625 88.21875 C26.5997287 89.22198303 26.5997287 89.22198303 26.43048096 90.2454834 C25.37603667 95.83409129 22.72151132 101.2988805 18.0625 104.75 C11.99846206 106.95427168 6.31722029 107.07186215 -0.09375 107.0859375 C-1.68539978 107.0959227 -1.68539978 107.0959227 -3.3092041 107.10610962 C-5.54482294 107.11620053 -7.78047169 107.12092775 -10.01611328 107.12060547 C-13.42661186 107.12498601 -16.8358231 107.16136509 -20.24609375 107.19921875 C-22.42447477 107.20508624 -24.60286189 107.20905609 -26.78125 107.2109375 C-27.79497681 107.22530853 -28.80870361 107.23967957 -29.85314941 107.25448608 C-37.09321547 107.20797782 -41.67211754 106.01538246 -46.9375 100.75 C-47.72125 101.554375 -48.505 102.35875 -49.3125 103.1875 C-53.39350563 107.17133882 -56.37462557 106.92266553 -61.83203125 106.953125 C-62.6164006 106.95882507 -63.40076996 106.96452515 -64.20890808 106.97039795 C-65.87078501 106.9798514 -67.53268072 106.9863833 -69.19458008 106.99023438 C-71.72966538 106.99992229 -74.26393379 107.03093404 -76.79882812 107.0625 C-78.41405769 107.06903197 -80.02929305 107.07428168 -81.64453125 107.078125 C-82.39990677 107.0904718 -83.15528229 107.1028186 -83.93354797 107.11553955 C-88.44507169 107.09657434 -91.41325944 106.64323446 -94.9375 103.75 C-97.20067616 100.29530993 -97.19603766 97.31081627 -97.2121582 93.24072266 C-97.21726913 92.59628708 -97.22238007 91.9518515 -97.22764587 91.28788757 C-97.24151517 89.16318402 -97.24058695 87.03880588 -97.23828125 84.9140625 C-97.24217013 83.43199544 -97.2465052 81.9499295 -97.25126648 80.46786499 C-97.2587233 77.36265449 -97.2584417 74.25755769 -97.25317383 71.15234375 C-97.24738493 67.18227606 -97.26429835 63.21267577 -97.2875185 59.24268532 C-97.30228614 56.18166402 -97.30312336 53.12075444 -97.30000877 50.05970383 C-97.30052063 48.59654186 -97.30573292 47.13337341 -97.31582069 45.67024612 C-97.32822494 43.61921535 -97.32137042 41.56908392 -97.30981445 39.51806641 C-97.31044388 38.35320709 -97.3110733 37.18834778 -97.3117218 35.9881897 C-96.88753164 32.31761735 -95.84699962 29.89666969 -93.9375 26.75 C-90.58876458 25.07563229 -86.81717138 25.54365953 -83.1328125 25.51171875 C-81.81952469 25.49961113 -81.81952469 25.49961113 -80.47970581 25.48725891 C-78.62532533 25.47341779 -76.77091937 25.46269576 -74.91650391 25.45483398 C-72.08056434 25.43760971 -69.24578714 25.39372357 -66.41015625 25.34960938 C-64.60938358 25.33948345 -62.80860099 25.33096703 -61.0078125 25.32421875 C-60.15978058 25.30671066 -59.31174866 25.28920258 -58.4380188 25.27116394 C-54.61276071 25.28525718 -52.57760345 25.30696853 -49.37060547 27.52661133 C-47.9375 29.75 -47.9375 29.75 -47.9375 33.75 C-46.4965974 33.52042223 -45.05972985 33.26543646 -43.625 33 C-42.82449219 32.86078125 -42.02398437 32.7215625 -41.19921875 32.578125 C-38.30432908 31.5181654 -37.62184197 30.30675323 -35.9375 27.75 C-35.18761128 26.10980782 -34.49517858 24.44254447 -33.8515625 22.7578125 C-33.47773438 21.80519531 -33.10390625 20.85257813 -32.71875 19.87109375 C-31.95155186 17.88311748 -31.18848785 15.89354054 -30.4296875 13.90234375 C-27.98926243 7.70934724 -25.74597688 2.32840981 -20.05078125 -1.52734375 C-13.1968661 -4.03995039 -6.23318781 -4.15545854 0 0 Z M-11.9375 14.75 C-12.64807786 16.29063342 -13.35575414 17.83260494 -14.0625 19.375 C-14.51882812 20.37015625 -14.97515625 21.3653125 -15.4453125 22.390625 C-16.47889144 24.71753048 -17.47111364 27.06308067 -18.4296875 29.421875 C-18.92726563 30.64390625 -19.42484375 31.8659375 -19.9375 33.125 C-20.39125 34.26710938 -20.845 35.40921875 -21.3125 36.5859375 C-24.23826729 42.282744 -28.95388985 46.43378555 -34.9375 48.75 C-37.00959028 49.17309169 -39.09342399 49.54117091 -41.18359375 49.86328125 C-42.26181396 50.03255127 -43.34003418 50.20182129 -44.45092773 50.3762207 C-45.27149658 50.49956787 -46.09206543 50.62291504 -46.9375 50.75 C-47.20061438 55.08216696 -47.35928059 59.41226832 -47.5 63.75 C-47.57541016 64.97074219 -47.65082031 66.19148438 -47.72851562 67.44921875 C-47.97039905 74.29159842 -47.97039905 74.29159842 -45.06982422 80.26953125 C-42.78585585 82.31151168 -40.47332218 84.03489719 -37.9375 85.75 C-37.21353027 86.47155273 -36.48956055 87.19310547 -35.74365234 87.93652344 C-31.63435208 90.59215963 -28.05140857 90.25137052 -23.26171875 90.140625 C-22.3365596 90.13496521 -21.41140045 90.12930542 -20.45820618 90.12347412 C-17.51327014 90.1011448 -14.56956614 90.05095486 -11.625 90 C-9.62436657 89.97993054 -7.62371401 89.96168055 -5.62304688 89.9453125 C-0.72739236 89.90129125 4.16734518 89.83228747 9.0625 89.75 C9.94593895 84.98300759 10.8184369 80.21419003 11.6809082 75.44335938 C11.97576715 73.82106781 12.27359525 72.19931295 12.57446289 70.578125 C13.00670806 68.24614448 13.42819672 65.91243476 13.84765625 63.578125 C14.05226219 62.49352997 14.05226219 62.49352997 14.26100159 61.38702393 C15.13880091 56.49899903 15.13880091 56.49899903 14.0625 51.75 C12.43572663 50.12322663 10.57321659 50.56463414 8.328125 50.50390625 C7.36132812 50.47103516 6.39453125 50.43816406 5.3984375 50.40429688 C3.35687022 50.34356671 1.31519917 50.28622151 -0.7265625 50.23242188 C-1.69851562 50.19826172 -2.67046875 50.16410156 -3.671875 50.12890625 C-4.56100586 50.1038501 -5.45013672 50.07879395 -6.36621094 50.05297852 C-9.20469729 49.71851578 -11.37746377 49.01238778 -13.9375 47.75 C-17.14514479 41.33471042 -14.21925878 32.8086962 -12.4375 26.3125 C-11.96694011 24.54344918 -11.49810124 22.77393939 -11.03125 21.00390625 C-10.82177734 20.23377197 -10.61230469 19.4636377 -10.39648438 18.67016602 C-9.86000526 16.75484335 -9.86000526 16.75484335 -9.9375 14.75 C-10.5975 14.75 -11.2575 14.75 -11.9375 14.75 Z M-79.9375 42.75 C-79.9375 58.26 -79.9375 73.77 -79.9375 89.75 C-74.9875 89.75 -70.0375 89.75 -64.9375 89.75 C-64.9375 74.24 -64.9375 58.73 -64.9375 42.75 C-69.8875 42.75 -74.8375 42.75 -79.9375 42.75 Z " fill="#0018C4" transform="translate(168.9375,52.25)"/>
<path d="M0 0 C10.23906578 7.73254248 18.72711365 17.59665562 20.6875 30.6875 C22.11678455 48.13329299 19.50517553 61.04058775 8.03125 74.65234375 C0.02533375 83.28136197 -10.26078398 88.35475631 -21.96875 89.00390625 C-38.65548452 89.56319388 -50.64291019 85.89777041 -63.0625 74.375 C-73.05541038 63.81645319 -75.82689781 52.26922077 -75.73217773 38.15722656 C-75.32139743 24.03483761 -69.475381 12.95884274 -59.25 3.28125 C-42.59283172 -10.42061423 -18.05009418 -11.9794347 0 0 Z M-52.3125 20.6875 C-58.27293793 29.46506033 -59.1109482 37.14798372 -58.3125 47.6875 C-56.46916828 55.8159266 -51.90405791 62.56958399 -45 67.2578125 C-36.37680822 72.22182092 -27.27160589 73.26565789 -17.453125 71.0390625 C-8.51018024 67.78960742 -2.59931027 62.15351418 1.77734375 53.80078125 C5.10847632 46.06626313 4.9773904 36.16266844 2.125 28.3125 C-1.83576766 19.87855767 -7.78378212 14.36068164 -16.3125 10.6875 C-29.4537691 6.37163057 -43.3553662 10.49627221 -52.3125 20.6875 Z " fill="#0018C4" transform="translate(411.3125,311.3125)"/>
<path d="M0 0 C10.23906578 7.73254248 18.72711365 17.59665562 20.6875 30.6875 C22.11678455 48.13329299 19.50517553 61.04058775 8.03125 74.65234375 C0.02533375 83.28136197 -10.26078398 88.35475631 -21.96875 89.00390625 C-38.65548452 89.56319388 -50.64291019 85.89777041 -63.0625 74.375 C-73.05541038 63.81645319 -75.82689781 52.26922077 -75.73217773 38.15722656 C-75.32139743 24.03483761 -69.475381 12.95884274 -59.25 3.28125 C-42.59283172 -10.42061423 -18.05009418 -11.9794347 0 0 Z M-52.3125 20.6875 C-58.27293793 29.46506033 -59.1109482 37.14798372 -58.3125 47.6875 C-56.46916828 55.8159266 -51.90405791 62.56958399 -45 67.2578125 C-36.37680822 72.22182092 -27.27160589 73.26565789 -17.453125 71.0390625 C-8.51018024 67.78960742 -2.59931027 62.15351418 1.77734375 53.80078125 C5.10847632 46.06626313 4.9773904 36.16266844 2.125 28.3125 C-1.83576766 19.87855767 -7.78378212 14.36068164 -16.3125 10.6875 C-29.4537691 6.37163057 -43.3553662 10.49627221 -52.3125 20.6875 Z " fill="#0018C4" transform="translate(283.3125,311.3125)"/>
<path d="M0 0 C10.23906578 7.73254248 18.72711365 17.59665562 20.6875 30.6875 C22.11678455 48.13329299 19.50517553 61.04058775 8.03125 74.65234375 C0.02533375 83.28136197 -10.26078398 88.35475631 -21.96875 89.00390625 C-38.65548452 89.56319388 -50.64291019 85.89777041 -63.0625 74.375 C-73.05541038 63.81645319 -75.82689781 52.26922077 -75.73217773 38.15722656 C-75.32139743 24.03483761 -69.475381 12.95884274 -59.25 3.28125 C-42.59283172 -10.42061423 -18.05009418 -11.9794347 0 0 Z M-52.3125 20.6875 C-58.27293793 29.46506033 -59.1109482 37.14798372 -58.3125 47.6875 C-56.46916828 55.8159266 -51.90405791 62.56958399 -45 67.2578125 C-36.37680822 72.22182092 -27.27160589 73.26565789 -17.453125 71.0390625 C-8.51018024 67.78960742 -2.59931027 62.15351418 1.77734375 53.80078125 C5.10847632 46.06626313 4.9773904 36.16266844 2.125 28.3125 C-1.83576766 19.87855767 -7.78378212 14.36068164 -16.3125 10.6875 C-29.4537691 6.37163057 -43.3553662 10.49627221 -52.3125 20.6875 Z " fill="#0018C4" transform="translate(155.3125,311.3125)"/>
<path d="M0 0 C1.34411709 -0.00898953 2.68823329 -0.0181117 4.03234863 -0.02735901 C6.84646008 -0.04379636 9.66045341 -0.05153833 12.47460938 -0.05444336 C15.3317603 -0.05873459 18.18800278 -0.0794763 21.04492188 -0.1159668 C57.35628707 -0.57155794 57.35628707 -0.57155794 73.28125 12.37109375 C74.11398437 12.99757813 74.94671875 13.6240625 75.8046875 14.26953125 C84.71047133 21.82680522 90.97155047 33.97718688 93.28125 45.37109375 C93.53893374 48.73789438 93.51508178 52.08595341 93.4765625 55.4609375 C93.4737326 56.4054628 93.47090271 57.3499881 93.46798706 58.32313538 C93.45685684 61.31842099 93.4317656 64.31339961 93.40625 67.30859375 C93.39621095 69.34830295 93.38708672 71.38801687 93.37890625 73.42773438 C93.35694096 78.40897115 93.32246076 83.38998053 93.28125 88.37109375 C88.00125 88.37109375 82.72125 88.37109375 77.28125 88.37109375 C77.23226562 86.2003125 77.18328125 84.02953125 77.1328125 81.79296875 C77.07852267 79.64805259 77.02132649 77.50323177 76.96386719 75.35839844 C76.92601094 73.88842115 76.89109 72.41836479 76.859375 70.94824219 C76.51072908 54.9759008 75.69304902 40.45236546 64.30078125 28.19140625 C53.90447214 18.82065181 41.61680739 17.22192089 28.171875 17.203125 C27.32381287 17.1997966 26.47575073 17.1964682 25.60198975 17.19303894 C23.81702206 17.18800517 22.03204508 17.18562951 20.24707031 17.18579102 C17.55257206 17.183611 14.85848822 17.16543494 12.1640625 17.14648438 C-2.79735195 17.09582369 -17.47792168 17.23529722 -29.33203125 27.671875 C-41.68695814 40.67386844 -41.97520467 56.03748213 -42.34375 73.12109375 C-42.38204461 74.60809289 -42.42110242 76.09507258 -42.4609375 77.58203125 C-42.55705076 81.17826912 -42.63758867 84.77436515 -42.71875 88.37109375 C-47.99875 88.37109375 -53.27875 88.37109375 -58.71875 88.37109375 C-58.84387118 82.5219675 -58.93379541 76.67364767 -58.9934082 70.82348633 C-59.01830072 68.84027509 -59.05222777 66.85715311 -59.09594727 64.87426758 C-59.46429818 47.71778226 -57.926767 34.1617187 -46.71875 20.37109375 C-46.09226563 19.53835938 -45.46578125 18.705625 -44.8203125 17.84765625 C-33.35180918 4.33272854 -16.86307794 0.0710388 0 0 Z " fill="#0018C4" transform="translate(234.71875,415.62890625)"/>
<path d="M0 0 C1.19256912 -0.01606293 2.38513824 -0.03212585 3.61384583 -0.04867554 C9.0957505 -0.09345061 14.57752563 -0.13466978 20.05957031 -0.15722656 C22.93717889 -0.17047515 25.81406297 -0.19815878 28.69140625 -0.23925781 C32.19098651 -0.28922361 35.6899188 -0.31342547 39.18984032 -0.32045364 C41.14097948 -0.33024119 43.09194983 -0.36433466 45.0428009 -0.39926147 C58.35285888 -0.36835141 70.94548754 3.17802558 81.0925293 12.19287109 C82.0825293 13.67787109 82.0825293 13.67787109 83.0925293 15.19287109 C79.4625293 19.15287109 75.8325293 23.11287109 72.0925293 27.19287109 C70.2569043 26.07912109 68.4212793 24.96537109 66.5300293 23.81787109 C56.664544 18.08131692 47.16554244 17.04053522 35.9831543 17.02490234 C35.13509216 17.02157394 34.28703003 17.01824554 33.41326904 17.01481628 C31.62830136 17.00978252 29.84332438 17.00740685 28.05834961 17.00756836 C25.36385136 17.00538834 22.66976752 16.98721228 19.9753418 16.96826172 C5.01392735 16.91760103 -9.66664238 17.05707456 -21.52075195 27.49365234 C-33.87567884 40.49564578 -34.16392537 55.85925948 -34.5324707 72.94287109 C-34.57076531 74.42987023 -34.60982312 75.91684992 -34.6496582 77.40380859 C-34.74577146 81.00004646 -34.82630937 84.5961425 -34.9074707 88.19287109 C-40.5174707 88.19287109 -46.1274707 88.19287109 -51.9074707 88.19287109 C-51.95384914 83.58852271 -51.99352881 78.98501274 -52.01733398 74.38061523 C-52.02727699 72.82036566 -52.04083617 71.26013413 -52.05834961 69.69995117 C-52.28374225 49.07652485 -49.71694715 30.61684863 -34.9074707 15.19287109 C-25.28466793 6.30623902 -13.2526003 0.16273681 0 0 Z " fill="#0018C4" transform="translate(98.907470703125,415.80712890625)"/>
<path d="M0 0 C1.34701802 -0.00457542 2.69403372 -0.00988496 4.04104614 -0.0158844 C6.84988957 -0.02476272 9.65844789 -0.02245406 12.46728516 -0.01245117 C16.03322078 -0.00097763 19.59816362 -0.02117385 23.16396904 -0.05036831 C25.94216975 -0.06888393 28.72013933 -0.06840756 31.49838638 -0.06273079 C33.44124819 -0.06250677 35.38408882 -0.07926011 37.32687378 -0.09654236 C51.48371073 0.01338582 65.62854885 4.88695168 76.19921875 14.62109375 C87.03381835 26.28525666 93.2593233 39.64719582 93.078125 55.5234375 C93.0752951 56.4679628 93.07246521 57.4124881 93.06954956 58.38563538 C93.05841934 61.38092099 93.0333281 64.37589961 93.0078125 67.37109375 C92.99777345 69.41080295 92.98864922 71.45051687 92.98046875 73.49023438 C92.95850346 78.47147115 92.92402326 83.45248053 92.8828125 88.43359375 C87.6028125 88.43359375 82.3228125 88.43359375 76.8828125 88.43359375 C76.83382812 86.2628125 76.78484375 84.09203125 76.734375 81.85546875 C76.68008517 79.71055259 76.62288899 77.56573177 76.56542969 75.42089844 C76.52757344 73.95092115 76.4926525 72.48086479 76.4609375 71.01074219 C76.11229158 55.0384008 75.29461152 40.51486546 63.90234375 28.25390625 C53.50603464 18.88315181 41.21836989 17.28442089 27.7734375 17.265625 C26.92537537 17.2622966 26.07731323 17.2589682 25.20355225 17.25553894 C23.41858456 17.25050517 21.63360758 17.24812951 19.84863281 17.24829102 C17.15413456 17.246111 14.46005072 17.22793494 11.765625 17.20898438 C-5.51336901 16.98390835 -5.51336901 16.98390835 -21.6796875 22.43359375 C-22.65035156 22.94921875 -23.62101562 23.46484375 -24.62109375 23.99609375 C-26.49361964 25.07448112 -28.31925166 26.23496986 -30.1171875 27.43359375 C-34.38802084 23.37870142 -38.04595886 19.47040872 -41.1171875 14.43359375 C-29.16537857 3.26125062 -16.05940437 -0.03721208 0 0 Z " fill="#0018C4" transform="translate(363.1171875,415.56640625)"/>
<path d="M0 0 C44.88 0 89.76 0 136 0 C136 5.28 136 10.56 136 16 C91.12 16 46.24 16 0 16 C0 10.72 0 5.44 0 0 Z " fill="#0018C4" transform="translate(240,128)"/>
<path d="M0 0 C36.96 0 73.92 0 112 0 C112 5.28 112 10.56 112 16 C75.04 16 38.08 16 0 16 C0 10.72 0 5.44 0 0 Z " fill="#0018C4" transform="translate(240,88)"/>
<path d="M0 0 C10.56 0 21.12 0 32 0 C32 5.28 32 10.56 32 16 C21.44 16 10.88 16 0 16 C0 10.72 0 5.44 0 0 Z " fill="#0018C4" transform="translate(392,128)"/>
</svg>
