<?xml version="1.0" encoding="UTF-8"?>
<svg version="1.1" xmlns="http://www.w3.org/2000/svg" width="512" height="512">
<path d="M0 0 C1.5401241 0.08056034 3.08278119 0.1307761 4.625 0.125 C5.66527344 0.12886719 5.66527344 0.12886719 6.7265625 0.1328125 C9.11245301 0.035451 9.11245301 0.035451 11.8828125 -0.4921875 C22.50369234 -2.22240602 33.20109962 -1.63052479 42.1875 4.6875 C58.62147983 18.21164034 63.15555363 38.17996713 65.26538086 58.56396484 C66.00096739 66.46577839 66.18323496 74.31703153 66.1875 82.25 C66.19974609 83.46429688 66.21199219 84.67859375 66.22460938 85.9296875 C66.23504454 92.31600764 65.92068968 97.89630632 64 104 C64.763125 104.515625 65.52625 105.03125 66.3125 105.5625 C70.54979634 109.40562924 71.75520201 112.59680022 72.3203125 118.14453125 C72.80226796 132.71565132 67.3548726 146.63255146 57.6328125 157.55078125 C55.85668938 159.12719675 54.12198038 160.00957818 52 161.0625 C46.79169106 164.05135911 45.63596631 168.97907092 43.55859375 174.35546875 C40.09734896 182.4490562 33.1693137 192.91534315 25 197 C25.33 199.31 25.66 201.62 26 204 C27.03125 203.319375 28.0625 202.63875 29.125 201.9375 C31.62177868 200.28962607 32.85876349 199.99752551 35.8984375 200.05078125 C39.91247139 201.27925762 41.65330681 203.19062284 44.5 206.25 C51.05357991 213.21788669 55.41149081 217.44103452 64.875 218.9375 C72.27752665 220.28000191 79.04702032 222.23044929 86.01123047 225.07006836 C88.86078689 226.2290771 90.8858388 227 94 227 C95.64801129 224.77236216 95.64801129 224.77236216 97.1875 221.9375 C100.857777 215.89829687 105.09553345 210.30148885 112 208 C113.58465839 207.97539623 115.17058864 208.00846205 116.75390625 208.078125 C131.16095102 208.78539001 131.16095102 208.78539001 144 203 C150.29022077 199.25787258 154.55025073 197.39921377 162 198 C167.12345631 199.53787269 171.65547147 201.6675442 176.0625 204.6875 C182.06317973 208.56120612 187.9714315 208.02894027 194.93383789 207.85375977 C208.20339198 207.59655657 208.20339198 207.59655657 213 212 C216.4302887 216.14759545 219.2462247 220.520367 221.6875 225.3125 C225.45174144 229.68715898 230.689078 231.01352403 236 233 C242.44209309 235.51477056 247.12902505 238.47917362 250 245 C250.89261058 248.78517839 251.4560771 252.61394779 251.88793945 256.47705078 C252.79912023 264.00335568 255.97587239 268.28937283 261.5625 273.375 C266.56882647 278.2825174 268.78632793 282.14935651 269.18359375 289.30859375 C268.99077709 293.18543941 268.19359486 296.25310474 267 299.9375 C264.03532272 310.00681462 264.87488637 315.50268745 268.125 325.53515625 C269.52999348 331.09867954 269.60666729 335.91721828 267.11328125 341.17578125 C264.31334841 345.76374138 260.5420526 349.73811011 256.3984375 353.12890625 C253.07946054 357.10194871 252.72503584 360.78533821 252 365.8125 C250.91465086 373.23828158 249.47753974 380.50707286 243.23583984 385.3762207 C240.37325682 387.10496246 238.37024425 388 235 388 C243.00338884 402.53807968 251.07902142 417.01549899 259.51806641 431.30664062 C267 444.00405849 267 444.00405849 267 448.1875 C266 451 266 451 263.7578125 452.7109375 C260.54709176 454.21169932 259.30058498 454.15157967 255.875 453.4375 C254.33199219 453.13005859 254.33199219 453.13005859 252.7578125 452.81640625 C251.51773437 452.54699219 250.27765625 452.27757812 249 452 C247.33101615 451.65356248 245.66172386 451.30860876 243.9921875 450.96484375 C239.32340552 449.99794396 234.66086619 449.00432891 230 448 C229.85304688 448.59683594 229.70609375 449.19367188 229.5546875 449.80859375 C227.96303222 455.96482367 226.06945855 461.99063535 224 468 C223.7510498 468.7417749 223.50209961 469.4835498 223.24560547 470.24780273 C221.98407632 473.84691979 221.00051112 476.59236095 218 479 C214.5625 479.4375 214.5625 479.4375 211 479 C207.73173617 476.27657822 205.83209409 473.2627613 203.8203125 469.546875 C202.93122192 467.922052 202.93122192 467.922052 202.02416992 466.2644043 C201.39744385 465.10465088 200.77071777 463.94489746 200.125 462.75 C198.79473567 460.31139618 197.45876157 457.87595567 196.12109375 455.44140625 C195.78203506 454.82340652 195.44297638 454.2054068 195.09364319 453.56867981 C191.02427958 446.18093915 186.72766349 438.92732663 182.39306641 431.69238281 C179.74173277 427.21820863 177.33499515 423.07638283 176 418 C175.28714844 418.34933594 174.57429688 418.69867188 173.83984375 419.05859375 C165.03261088 423.24291838 158.44541601 425.08349416 149 422 C146.0625 420.375 146.0625 420.375 144 419 C143.34 419 142.68 419 142 419 C141.59910156 419.70157227 141.19820313 420.40314453 140.78515625 421.12597656 C140.21667969 422.12081055 139.64820313 423.11564453 139.0625 424.140625 C138.4221582 425.26146484 137.78181641 426.38230469 137.12207031 427.53710938 C135.69544034 430.03383655 134.26757147 432.5298499 132.83886719 435.02539062 C129.4165905 441.00545232 126.00051357 446.98857722 122.61999512 452.99237061 C121.17975597 455.54944381 119.7348205 458.1038486 118.28955078 460.65808105 C117.6000212 461.87981801 116.91282008 463.10287223 116.22802734 464.32727051 C115.26734371 466.04443961 114.29790428 467.75670125 113.328125 469.46875 C112.7805957 470.44263672 112.23306641 471.41652344 111.66894531 472.41992188 C109.9825629 475.02695659 108.38318155 477.01074231 106 479 C100.01464106 479.73504408 100.01464106 479.73504408 97.42651367 477.86010742 C95.48933751 475.33411988 94.71864892 472.82713363 93.73828125 469.80078125 C93.34189453 468.59228516 92.94550781 467.38378906 92.53710938 466.13867188 C92.12870964 464.86334419 91.72050903 463.58795273 91.3125 462.3125 C90.8934094 461.02511972 90.4734965 459.73800681 90.05273438 458.45117188 C89.0270298 455.30331991 88.00982584 452.15297456 87 449 C79.77037218 449.68162991 72.89738392 451.03042692 65.84179688 452.71484375 C61.29421214 453.73685552 57.57164376 454.44663382 53 453 C50.5029925 449.25448875 50.61587674 447.44280071 51 443 C52.29418945 439.93652344 52.29418945 439.93652344 54.11328125 436.859375 C54.44232956 436.29285217 54.77137787 435.72632935 55.11039734 435.14263916 C56.16376882 433.33643557 57.23734398 431.54330293 58.3125 429.75 C58.99163756 428.59457362 59.66938129 427.4383268 60.34570312 426.28125 C61.75391404 423.87645714 63.17041514 421.4768178 64.59228516 419.08007812 C67.4422839 414.26529722 70.24236209 409.42174928 73.04296875 404.578125 C73.53372391 403.72941833 74.02447906 402.88071167 74.53010559 402.00628662 C75.68718368 400.00444855 76.84384671 398.00237228 78 396 C70.74170816 395.74375228 63.48440884 395.54900841 56.22249031 395.43006611 C52.84916245 395.37293807 49.47895387 395.29565422 46.10742188 395.17016602 C30.92863705 393.77259967 30.92863705 393.77259967 17.07348633 398.35473633 C14.5473165 401.1298058 12.78610537 403.71628955 11 407 C9.84716098 408.38379399 8.66572616 409.74516021 7.4375 411.0625 C6.88964844 411.69285156 6.34179688 412.32320313 5.77734375 412.97265625 C2.95478988 416.19222869 0.0766466 419.36146458 -2.79296875 422.5390625 C-4.8207613 424.80014092 -6.82161921 427.08143712 -8.8125 429.375 C-9.37453125 430.01179688 -9.9365625 430.64859375 -10.515625 431.3046875 C-11.7219546 432.68244289 -12.89712989 434.08743017 -14.0625 435.5 C-16 437 -16 437 -18.9375 437.5625 C-22.86853339 436.84047346 -24.39560257 434.81274923 -27 432 C-27.79216919 431.16456665 -27.79216919 431.16456665 -28.6003418 430.31225586 C-30.36741871 428.44544706 -32.12268356 426.56816707 -33.875 424.6875 C-34.49850342 424.01887939 -35.12200684 423.35025879 -35.7644043 422.66137695 C-39.35681162 418.79802206 -42.90437297 414.90715797 -46.34375 410.90625 C-49.19940458 407.61955322 -52.14806779 404.41597387 -55.08203125 401.19921875 C-57 399 -57 399 -59 396 C-61.52766252 395.54434903 -61.52766252 395.54434903 -64.53526306 395.62145996 C-66.29985619 395.60915596 -66.29985619 395.60915596 -68.10009766 395.59660339 C-70.04589722 395.60582573 -70.04589722 395.60582573 -72.03100586 395.61523438 C-73.4057307 395.61113104 -74.78045207 395.60567158 -76.15516663 395.59895325 C-79.11923125 395.58720877 -82.08310958 395.58475075 -85.04719353 395.58930969 C-89.73196339 395.59610288 -94.41648684 395.58027997 -99.10121155 395.56091309 C-109.0466277 395.52300648 -118.99202268 395.51025039 -128.9375 395.5 C-139.669884 395.48893579 -150.40215523 395.47363748 -161.13446146 395.42928743 C-165.79351447 395.41089661 -170.45228736 395.40705112 -175.11136806 395.41422272 C-178.00799223 395.41574187 -180.90447559 395.40497782 -183.80106163 395.39084435 C-185.78882791 395.38491702 -187.77662106 395.3939607 -189.76437378 395.40339661 C-190.94358902 395.39519394 -192.12280426 395.38699127 -193.3377533 395.37854004 C-194.36479842 395.37782753 -195.39184355 395.37711502 -196.45001125 395.37638092 C-199.38708185 394.94286633 -200.23772642 394.3349156 -202 392 C-203.29856591 389.40286817 -203.13415982 387.50346203 -203.14526367 384.5949707 C-203.15164352 383.46231277 -203.15802338 382.32965485 -203.16459656 381.16267395 C-203.16626579 379.31291206 -203.16626579 379.31291206 -203.16796875 377.42578125 C-203.17296135 375.51903877 -203.17296135 375.51903877 -203.17805481 373.57377625 C-203.18313009 370.87100756 -203.18589437 368.16833925 -203.18530273 365.46557617 C-203.18520232 362.04572323 -203.1987231 358.62608363 -203.21607494 355.20628071 C-203.23007414 351.90444577 -203.22929004 348.60264529 -203.23046875 345.30078125 C-203.23765427 344.09392166 -203.24483978 342.88706207 -203.25224304 341.64363098 C-203.17270908 311.30396167 -193.25477299 281.80025613 -173 259 C-172.35417969 258.22269531 -171.70835937 257.44539063 -171.04296875 256.64453125 C-154.99533713 237.65537856 -127.64000129 221.03181008 -102.546875 218.67578125 C-101.10054687 218.58876953 -101.10054687 218.58876953 -99.625 218.5 C-92.22897959 217.56366171 -87.87112455 211.53433467 -83.12890625 206.28515625 C-80.65712174 203.5864821 -78.37004211 201.55229679 -75 200 C-70.72003296 200.17469253 -68.19771446 201.17125259 -65 204 C-63.66337877 200.53996752 -63.66337877 200.53996752 -64 197 C-66.24842206 194.55426743 -68.73305119 192.55736608 -71.29296875 190.44140625 C-78.65802248 183.79904177 -82.78509009 174.22990263 -86 165 C-86 164.34 -86 163.68 -86 163 C-86.87011719 162.8453125 -86.87011719 162.8453125 -87.7578125 162.6875 C-95.22944161 160.39654752 -100.36290475 152.48082979 -104 146 C-109.25773191 135.79038763 -113.42051503 125.02191965 -110.3125 113.4375 C-108.24440143 108.19831695 -106.04034916 105.52017458 -101 103 C-100.34 103 -99.68 103 -99 103 C-99.09087891 102.28569824 -99.18175781 101.57139648 -99.27539062 100.83544922 C-102.79670505 72.81391254 -105.17798312 44.83629249 -87.4140625 20.859375 C-77.28625676 8.40169845 -61.83623353 1.64283184 -46.21191406 -0.68359375 C-31.12086773 -2.17021552 -14.99858639 -2.01597121 0 0 Z M-76.05859375 29.05859375 C-88.18177962 43.26748902 -88.88507344 62.26789404 -88 80 C-87.55441706 85.3650308 -86.83195327 90.68144158 -86 96 C-84.95203782 95.15356901 -83.91207308 94.29723808 -82.875 93.4375 C-82.29492188 92.96183594 -81.71484375 92.48617187 -81.1171875 91.99609375 C-74.77242397 86.0142226 -71.05012006 79.70697673 -67.52148438 71.7890625 C-66.48458342 69.65900918 -65.50780184 67.8280002 -64 66 C-58.75216974 64.22191163 -54.76554859 65.33059458 -49.5625 66.875 C-26.45735157 73.19310959 -3.90360694 68.52702272 16.6953125 56.96484375 C18.90980389 55.64818989 21.07975826 54.25379344 23.19921875 52.7890625 C26.76800905 50.50941682 28.84501369 50.29443629 33 51 C35.75812648 54.75529528 37.33136397 59.03357842 38.9375 63.375 C39.19692383 64.07399414 39.45634766 64.77298828 39.72363281 65.49316406 C43.68224181 76.39773383 46.37384675 87.5099435 48 99 C50.68727974 96.79753018 51.89134581 95.6191438 52.50170898 92.14111328 C52.49985596 91.04524902 52.49800293 89.94938477 52.49609375 88.8203125 C52.50044434 86.97735596 52.50044434 86.97735596 52.50488281 85.09716797 C52.48264648 83.78635254 52.46041016 82.47553711 52.4375 81.125 C52.4310144 80.45615784 52.42452881 79.78731567 52.41784668 79.09820557 C52.2571287 62.99128111 51.57536486 45.94831147 45 31 C44.64164063 30.1853125 44.28328125 29.370625 43.9140625 28.53125 C40.59192601 21.84238458 35.85478348 16.97022267 29.1875 13.5625 C23.08615953 12.48579286 17.00057014 12.43569658 11 14 C4.58962313 14.56369367 -1.76447387 13.73183182 -8.125 13 C-32.13469349 10.30611474 -57.95719334 10.95719334 -76.05859375 29.05859375 Z M25 67 C22.71184856 68.14559105 20.52467024 69.34635001 18.3125 70.625 C3.56864505 78.80451623 -11.64874285 82.37405833 -28.5 82.25 C-29.55058594 82.25773437 -30.60117188 82.26546875 -31.68359375 82.2734375 C-37.85232829 82.25818723 -43.60616553 81.71319813 -49.64257812 80.42871094 C-52.25656116 79.88071913 -52.25656116 79.88071913 -56 80 C-57.65935303 82.26909655 -57.65935303 82.26909655 -59.0625 85.25 C-61.73140288 90.34718885 -64.22266357 93.11021802 -68.6875 96.83203125 C-74.41334819 102.44622933 -75.05594053 108.06464651 -75.21484375 115.87109375 C-75.21872382 119.24550513 -75.16016553 122.60810074 -75.04956055 125.98071289 C-74.93784299 129.42691968 -74.90611876 132.86660399 -74.88867188 136.31445312 C-74.67844216 153.57624931 -72.91855018 168.29796771 -60.67578125 181.5078125 C-55.32587921 186.59735824 -49.89238918 190.34106015 -43 193 C-42.17886719 193.31839844 -41.35773438 193.63679688 -40.51171875 193.96484375 C-27.22389967 198.13771892 -9.00721866 198.0436154 4 193 C4.85207031 192.67128906 5.70414062 192.34257812 6.58203125 192.00390625 C19.51281541 186.26351206 27.75532943 175.74398372 33.23828125 163.04296875 C34.69554867 159.13450279 35.1343696 155.69874348 35.17700195 151.52319336 C35.18983719 150.42361801 35.20267242 149.32404266 35.21589661 148.19114685 C35.22328354 147.00271683 35.23067047 145.8142868 35.23828125 144.58984375 C35.25038887 142.73487022 35.25038887 142.73487022 35.26274109 140.84242249 C35.27658238 138.21551919 35.28730432 135.58859791 35.29516602 132.96166992 C35.30393446 130.30531339 35.3269243 127.65023126 35.35668945 124.99389648 C35.57361353 105.62463615 35.14896779 86.0099036 27 68 C26.01 67.505 26.01 67.505 25 67 Z M-95.84375 116.25390625 C-98.04755617 119.58195138 -97.59370071 123.23439825 -97 127 C-94.88574352 133.61963637 -92.36585432 138.5426821 -88 144 C-88 134.43 -88 124.86 -88 115 C-93.54472772 114.43764206 -93.54472772 114.43764206 -95.84375 116.25390625 Z M50 115 C48.69338505 116.08108449 48.69338505 116.08108449 48.88647461 118.68383789 C48.89171143 119.85164795 48.89694824 121.01945801 48.90234375 122.22265625 C48.90556641 123.48271484 48.90878906 124.74277344 48.91210938 126.04101562 C48.92046597 127.38151109 48.92893093 128.72200588 48.9375 130.0625 C48.9425134 131.40689942 48.94707658 132.7513006 48.95117188 134.09570312 C48.96300512 137.39717941 48.97949029 140.69856803 49 144 C54.67915615 138.55974455 57.70978266 131.27554313 58.9375 123.5 C59.16442497 119.28673277 59.16442497 119.28673277 57 116 C53.48618881 115.09308537 53.48618881 115.09308537 50 115 Z M-51 205 C-52.98 209.455 -52.98 209.455 -55 214 C-50.85936531 218.22689791 -46.64732967 222.25298059 -42.16796875 226.1171875 C-39.75157049 228.2157532 -37.37470976 230.354397 -35 232.5 C-34.16210938 233.2528125 -33.32421875 234.005625 -32.4609375 234.78125 C-30.87548976 236.21066955 -29.29679117 237.64762875 -27.7265625 239.09375 C-27.03304687 239.7228125 -26.33953125 240.351875 -25.625 241 C-25.01914063 241.556875 -24.41328125 242.11375 -23.7890625 242.6875 C-21.16402504 244.62209198 -21.16402504 244.62209198 -18 245 C-15.87740666 243.39895817 -14.11815797 241.86104344 -12.25 240 C-11.1751225 238.97068194 -10.09960162 237.94203531 -9.0234375 236.9140625 C-8.50362305 236.41036133 -7.98380859 235.90666016 -7.44824219 235.38769531 C-5.6410331 233.65604048 -3.77134932 232.00818248 -1.875 230.375 C2.04077166 226.98351576 5.87343332 223.50381551 9.703125 220.015625 C11.73812959 218.22980465 13.80900749 216.58796705 16 215 C14.88786134 211.50470706 13.68426809 208.25530808 12 205 C10.76636719 205.30744141 10.76636719 205.30744141 9.5078125 205.62109375 C-10.88334899 210.5422863 -30.63440527 209.91583321 -51 205 Z M149.1875 215.875 C140.34279471 221.45594001 133.45665819 222.41258337 123.1796875 221.01367188 C118.92250134 220.59335186 117.42602462 220.72501591 113.68359375 223.140625 C111.16770344 225.82131162 109.44842843 228.22960712 107.6875 231.4375 C102.09613496 240.51280927 94.57056297 243.47247506 84.72265625 246.82421875 C81.72249789 247.82697632 81.72249789 247.82697632 80 251 C79.6619997 253.0650994 79.33126527 255.13211604 79.0637207 257.20751953 C77.49573109 269.29019121 73.78170535 275.92602266 64.63671875 284.078125 C62.59614566 286.4742156 62.1763459 287.86289918 62 291 C62.74959414 293.94597025 62.74959414 293.94597025 63.9375 297 C67.41237953 307.75154364 66.72683854 316.50865561 62.77734375 327.02734375 C61.84998045 330.57369286 61.87164521 332.50857432 63 336 C65.35862902 338.73830932 65.35862902 338.73830932 68.3125 341.25 C76.70900652 349.15725914 78.31158999 356.6131771 79.3125 367.8984375 C80.13440895 371.60636766 80.95516768 372.76678689 84 375 C87.20835555 376.30153683 87.20835555 376.30153683 90.75 377.3125 C100.7617585 380.73976173 105.6774317 385.54230949 110.67578125 394.765625 C111.98494179 396.97459204 113.00805927 398.39344841 115 400 C117.14032991 400.34801335 117.14032991 400.34801335 119.5 400.15234375 C120.38196045 400.12156738 121.2639209 400.09079102 122.17260742 400.05908203 C123.10564697 400.01895996 124.03868652 399.97883789 125 399.9375 C136.97363714 399.6922092 144.81613269 402.09207826 154.7109375 408.92578125 C157.69495742 410.32613189 158.90146944 410.06101198 162 409 C165.0388229 407.34810581 167.93507928 405.52493084 170.8671875 403.69140625 C178.70379315 399.46042091 185.74280684 399.88428151 194.34960938 400.51757812 C199.44764654 400.76013822 199.44764654 400.76013822 203.88671875 398.58203125 C205.44770287 396.7980494 206.74522066 395.0090883 208 393 C208.53367187 392.18273437 209.06734375 391.36546875 209.6171875 390.5234375 C210.03226563 389.81445312 210.44734375 389.10546875 210.875 388.375 C216.05199363 380.52300453 223.60869742 378.19560112 232.2421875 375.2109375 C235.27176384 374.17608578 235.27176384 374.17608578 237 371 C237.52074863 368.26750032 237.96887916 365.56137724 238.375 362.8125 C240.24650022 351.60339579 243.15673065 346.24422384 251.85546875 338.58984375 C254.58465853 335.29393697 254.90731385 333.24965999 255 329 C254.27826304 325.82766196 254.27826304 325.82766196 253.0625 322.75 C249.70094922 312.48965686 250.54492923 305.06398474 254.125 294.9453125 C255.00903507 291.9695873 255.52953978 290.05846338 255 287 C252.98563557 284.52985703 252.98563557 284.52985703 250.3125 282.25 C242.21176066 274.43530371 239.51080393 267.95773591 238.16235352 256.93920898 C237.72604021 253.72409558 237.2491137 251.35630446 235.375 248.67578125 C232.30920606 246.51258125 229.06986882 245.24797874 225.5625 244 C216.20673578 240.65142755 212.20516784 236.34353494 207.48242188 227.95703125 C205.66177749 224.92154981 204.32012178 223.16355949 201.140625 221.5390625 C197.62263716 220.93522877 194.72982139 221.08653039 191.1875 221.5 C180.79619027 222.35779882 174.74449337 220.29041696 165.95898438 214.74438477 C159.06895635 210.49078734 155.726581 211.74430184 149.1875 215.875 Z M-77.6875 220.1875 C-78.33074219 220.77917969 -78.97398437 221.37085938 -79.63671875 221.98046875 C-81.25614413 223.91277261 -81.25614413 223.91277261 -80.76074219 226.27978516 C-79.91110405 229.31786865 -78.7027333 231.77365306 -77.19140625 234.54296875 C-76.61358398 235.60894287 -76.03576172 236.67491699 -75.44042969 237.77319336 C-74.82071289 238.89991455 -74.20099609 240.02663574 -73.5625 241.1875 C-72.93375977 242.34193604 -72.30501953 243.49637207 -71.65722656 244.68579102 C-69.78078031 248.12898837 -67.89130836 251.56494223 -66 255 C-65.46938965 255.96615234 -64.9387793 256.93230469 -64.39208984 257.92773438 C-59.45010185 267.11641218 -59.45010185 267.11641218 -54 276 C-50.54894544 274.49508808 -48.13275903 272.48416021 -45.375 269.9375 C-42.64407662 267.42602582 -39.91355869 264.92412895 -37.125 262.4765625 C-36.2175 261.67992187 -35.31 260.88328125 -34.375 260.0625 C-33.53710938 259.33160156 -32.69921875 258.60070312 -31.8359375 257.84765625 C-29.76504878 256.19766697 -29.76504878 256.19766697 -30 254 C-31.44683052 252.49726114 -31.44683052 252.49726114 -33.375 250.9375 C-36.62941067 248.17182591 -39.83413833 245.36691808 -43 242.5 C-46.61404058 239.23854875 -50.25789354 236.01640845 -53.9296875 232.8203125 C-56.34827961 230.6937768 -58.73653963 228.53530894 -61.125 226.375 C-68.84476079 217.69388264 -68.84476079 217.69388264 -77.6875 220.1875 Z M34 217 C29.63151246 220.79497102 25.29594745 224.62300718 21 228.5 C17.38595942 231.76145125 13.74210646 234.98359155 10.0703125 238.1796875 C7.65172039 240.3062232 5.26346037 242.46469106 2.875 244.625 C-0.6845614 247.83849293 -4.28439311 250.96884701 -8 254 C-3.82624748 263.50688074 7.06210304 270.66533164 15 277 C16.02614948 275.14328875 17.05215989 273.28650064 18.078125 271.4296875 C18.40126678 270.84502213 18.72440857 270.26035675 19.05734253 269.65797424 C20.85149231 266.41071429 22.64278622 263.16192369 24.42919922 259.91040039 C27.84880273 253.68935357 31.28309218 247.48060221 34.8046875 241.31640625 C35.36897461 240.31689941 35.93326172 239.31739258 36.51464844 238.28759766 C37.57025048 236.41932927 38.63822138 234.55798375 39.71972656 232.70458984 C40.18604492 231.87266113 40.65236328 231.04073242 41.1328125 230.18359375 C41.54418457 229.46743896 41.95555664 228.75128418 42.37939453 228.01342773 C43.23128879 225.96382418 43.23128879 225.96382418 42.22460938 223.83129883 C40.82851182 221.74355406 39.45837855 220.63891903 37.375 219.25 C36.74335938 218.82203125 36.11171875 218.3940625 35.4609375 217.953125 C34.97882813 217.63859375 34.49671875 217.3240625 34 217 Z M-150 256 C-151.31484375 257.09441406 -151.31484375 257.09441406 -152.65625 258.2109375 C-174.49086707 277.16289445 -184.06115984 301.0132391 -189 329 C-189 346.16 -189 363.32 -189 381 C-146.76 381 -104.52 381 -61 381 C-59.08332123 375.24996368 -57.31577566 369.68144195 -55.89941406 363.8215332 C-55.71205185 363.05932465 -55.52468964 362.29711609 -55.33164978 361.5118103 C-54.7220121 359.02582715 -54.11828889 356.53846361 -53.515625 354.05078125 C-53.0915382 352.30681723 -52.66744549 350.56285465 -52.24334717 348.81889343 C-51.35957265 345.17938351 -50.47938353 341.53902574 -49.60107422 337.89819336 C-48.47617174 333.23862634 -47.33691271 328.58269467 -46.19430923 323.9274416 C-45.31495429 320.33390617 -44.44595123 316.73792534 -43.57976532 313.1411953 C-43.16414836 311.4231124 -42.74469678 309.70595231 -42.32129669 307.98977089 C-41.73091196 305.59243437 -41.15524745 303.19200574 -40.58300781 300.7902832 C-40.40646164 300.08728592 -40.22991547 299.38428864 -40.04801941 298.6599884 C-39.06586836 294.45536175 -38.9987531 291.20117096 -40 287 C-43.88834412 286.58560261 -43.88834412 286.58560261 -45.9296875 288.53125 C-46.57164062 289.1809375 -47.21359375 289.830625 -47.875 290.5 C-51.59699933 293.92396214 -51.59699933 293.92396214 -55.3125 294.625 C-58.38237725 293.91107506 -59.00486799 293.35665955 -61 291 C-62.05298349 289.2474808 -63.0480778 287.45968704 -64.00390625 285.65234375 C-64.5747998 284.58081055 -65.14569336 283.50927734 -65.73388672 282.40527344 C-66.3373291 281.2609082 -66.94077148 280.11654297 -67.5625 278.9375 C-68.5085331 277.15907805 -69.45674375 275.38182982 -70.4052124 273.60470581 C-71.34966196 271.83509888 -72.29275519 270.0647683 -73.23583984 268.29443359 C-82.14840597 249.06754031 -82.14840597 249.06754031 -94 232 C-113.52989635 230.8119796 -135.63740512 243.98329562 -150 256 Z M55 232 C52.6024451 236.3323831 50.20693119 240.66589003 47.8125 245 C47.45296234 245.65060394 47.09342468 246.30120789 46.72299194 246.9715271 C41.16921774 257.0248547 35.66696071 267.10384478 30.2512207 277.23242188 C28.01695314 281.38803438 25.75294977 285.52159686 23.3359375 289.57421875 C22.96130371 290.20287842 22.58666992 290.83153809 22.20068359 291.47924805 C21 293 21 293 17.8125 294.5 C11.87540192 293.72136419 8.30860225 289.96183345 4 286 C3.01 286.66 2.02 287.32 1 288 C1.57874957 297.9867949 4.0996376 307.45383571 6.47265625 317.1328125 C6.92021623 318.97925911 7.36718252 320.82584972 7.81358337 322.6725769 C8.98311608 327.50393235 10.16064137 332.33330433 11.33990479 337.16229248 C12.75690698 342.97213312 14.16385901 348.78441485 15.5725174 354.59628296 C17.70736429 363.39940457 19.85486591 372.19935089 22 381 C37.84 381 53.68 381 70 381 C69.01 377.7 68.02 374.4 67 371 C66.69863461 368.79808833 66.44059381 366.58925159 66.25 364.375 C65.30839282 357.689589 62.8182822 354.51713956 58 350 C53.0705686 344.86517563 49.12088237 339.98035379 48.94140625 332.5859375 C49.25311314 328.30162583 50.07875796 324.52527146 51.5625 320.5 C54.26653516 312.82964285 53.31442357 306.61298237 50.9375 298.9375 C48.67003186 291.49762234 48.44617257 286.71567429 51.4375 279.5625 C53.51486078 276.2263667 56.28270522 273.75304167 59.125 271.0625 C63.53872621 266.75879336 65.42778346 264.06765461 66 258 C67.11312616 249.16680531 68.55625573 242.44374427 75 236 C72.98337313 235.32071516 70.96144639 234.65715509 68.9375 234 C67.81214844 233.62875 66.68679688 233.2575 65.52734375 232.875 C61.8728298 231.9684539 58.74787181 231.93750292 55 232 Z M-25.625 270 C-26.140625 270.47695313 -26.65625 270.95390625 -27.1875 271.4453125 C-28.46242802 272.6258014 -29.73174919 273.81234038 -31 275 C-29.75907695 278.43640229 -28.65848239 281.44509484 -26 284 C-21.25230606 285.00319823 -16.75381569 284.95520596 -12 284 C-9.3773523 281.6799655 -8.13023414 279.28795385 -7 276 C-8.16406323 274.83593677 -9.32870939 273.67245135 -10.49609375 272.51171875 C-11.5403339 271.46205398 -12.57347976 270.40128152 -13.59765625 269.33203125 C-15.02861348 267.85185191 -16.51152221 266.42232322 -18 265 C-21.34802621 265 -23.29485951 267.811797 -25.625 270 Z M-27 298 C-29.78902807 309.40073625 -32.56303072 320.80501215 -35.31780434 332.214077 C-36.59737356 337.51141536 -37.88212344 342.80738499 -39.17871094 348.10058594 C-40.42933785 353.2069793 -41.66635745 358.31649231 -42.89393234 363.42847443 C-43.36513509 365.38012725 -43.84126443 367.33059728 -44.32234573 369.27983856 C-44.99434077 372.00620133 -45.64883811 374.73620977 -46.29931641 377.46777344 C-46.6046505 378.68049927 -46.6046505 378.68049927 -46.91615295 379.91772461 C-47.93262954 384.19024359 -47.93262954 384.19024359 -47.18812561 388.43249512 C-45.92524021 390.09863127 -44.64880052 391.65632093 -43.20703125 393.171875 C-42.66248291 393.74993896 -42.11793457 394.32800293 -41.55688477 394.92358398 C-40.98123779 395.52630127 -40.40559082 396.12901855 -39.8125 396.75 C-38.62939361 398.00574332 -37.44709514 399.26224834 -36.265625 400.51953125 C-35.69908203 401.12104004 -35.13253906 401.72254883 -34.54882812 402.34228516 C-31.61161397 405.48599325 -28.7958687 408.73087227 -26 412 C-25.13375 413.00740234 -25.13375 413.00740234 -24.25 414.03515625 C-22.83063796 415.68779307 -21.41489521 417.34353732 -20 419 C-16.8376284 417.62803835 -15.0063782 416.1434878 -12.8125 413.5 C-10.09157432 410.28383089 -7.32846673 407.12239599 -4.5 404 C-2.99985857 402.33346063 -1.49985359 400.66679842 0 399 C0.66773438 398.26136719 1.33546875 397.52273438 2.0234375 396.76171875 C2.93996094 395.73498047 2.93996094 395.73498047 3.875 394.6875 C4.40867188 394.09324219 4.94234375 393.49898438 5.4921875 392.88671875 C5.98976562 392.26410156 6.48734375 391.64148438 7 391 C7.55850647 390.31218445 8.11701294 389.6243689 8.69244385 388.91571045 C10.54003158 384.7957873 9.51404089 381.65354144 8.42871094 377.46191406 C8.22593033 376.61422958 8.02314972 375.7665451 7.81422424 374.89317322 C7.13989818 372.09565887 6.43751326 369.30602418 5.734375 366.515625 C5.26002717 364.57500314 4.78733184 362.63397666 4.31622314 360.69256592 C3.07174429 355.58556802 1.80287302 350.48492368 0.52947998 345.3850708 C-0.50840368 341.21069962 -1.52876821 337.03214148 -2.54825211 332.85324478 C-3.76064858 327.88508713 -4.98076137 322.91883864 -6.203125 317.953125 C-6.43753548 317.00002693 -6.67194595 316.04692886 -6.91345978 315.06494904 C-7.57520059 312.38241659 -8.24215706 309.70124393 -8.91113281 307.02050781 C-9.20735786 305.81741219 -9.20735786 305.81741219 -9.50956726 304.5900116 C-10.16749525 301.00116628 -10.16749525 301.00116628 -12 298 C-14.53049402 297.92686433 -17.03304837 297.90752473 -19.5625 297.9375 C-20.62887695 297.94426758 -20.62887695 297.94426758 -21.71679688 297.95117188 C-23.47790013 297.96299136 -25.23896036 297.98092737 -27 298 Z M94 396 C93.62302979 396.67877197 93.24605957 397.35754395 92.85766602 398.05688477 C85.76070705 410.82147149 78.64847659 423.55605 71 436 C74.07259547 437.53629774 76.33720486 436.35452774 79.625 435.5625 C89.78625226 433.31139181 89.78625226 433.31139181 95 434 C98.4947121 437.43133649 99.66568526 442.21837389 101.1875 446.75 C101.46013672 447.54277344 101.73277344 448.33554687 102.01367188 449.15234375 C102.68222613 451.09936141 103.34198978 453.04939366 104 455 C106.74834761 452.5450904 108.33745346 449.87657904 110.109375 446.66015625 C110.69976562 445.59603516 111.29015625 444.53191406 111.8984375 443.43554688 C112.81496094 441.76588867 112.81496094 441.76588867 113.75 440.0625 C114.95202305 437.88610978 116.15514634 435.71032685 117.359375 433.53515625 C117.95298828 432.46023926 118.54660156 431.38532227 119.15820312 430.27783203 C121.60335105 425.92622068 124.15347423 421.63983807 126.72363281 417.36108398 C128.15851582 415.15410253 128.15851582 415.15410253 128 413 C127.01 413.04640625 126.02 413.0928125 125 413.140625 C110.41463061 413.62821998 110.41463061 413.62821998 105 409 C101.91610599 405.61196048 99.5530525 401.94809 97.25 398 C96.8375 397.34 96.425 396.68 96 396 C95.34 396 94.68 396 94 396 Z M222 396 C220.01058675 398.69593384 218.11171881 401.44950492 216.203125 404.203125 C212.830005 408.4853128 209.29127834 411.50144818 204 413 C201.35392791 413.13710218 198.82530987 413.19062972 196.1875 413.125 C195.14819336 413.11146484 195.14819336 413.11146484 194.08789062 413.09765625 C192.39177605 413.07426157 190.69584129 413.03839641 189 413 C190.39567165 416.70346195 192.07204608 420.08714331 194.01171875 423.53515625 C194.60533203 424.59283203 195.19894531 425.65050781 195.81054688 426.74023438 C196.42994141 427.83658203 197.04933594 428.93292969 197.6875 430.0625 C198.28755859 431.13177734 198.88761719 432.20105469 199.50585938 433.30273438 C203.59857847 440.57819098 207.77355908 447.80152648 212 455 C214.13413194 454.20162805 214.13413194 454.20162805 214.74609375 452.26586914 C215.08833984 451.16166626 215.08833984 451.16166626 215.4375 450.03515625 C215.69273437 449.23529297 215.94796875 448.43542969 216.2109375 447.61132812 C216.47132813 446.77021484 216.73171875 445.92910156 217 445.0625 C217.51524643 443.40580417 218.03584703 441.7507614 218.5625 440.09765625 C218.90474609 438.99176147 218.90474609 438.99176147 219.25390625 437.86352539 C220 436 220 436 222 434 C227.47542383 433.6088983 232.27362101 434.32213478 237.60546875 435.5625 C240.12002161 436.02192891 242.44952551 436.0724824 245 436 C243.536333 432.09433675 241.72534939 428.53041184 239.69921875 424.88671875 C239.38096634 424.31347366 239.06271393 423.74022858 238.7348175 423.14961243 C238.06300599 421.94114838 237.38973588 420.73349416 236.71508789 419.52661133 C235.69749796 417.70539371 234.68531243 415.88125482 233.67382812 414.05664062 C230.27203626 407.93767913 226.86661702 401.83982495 223 396 C222.67 396 222.34 396 222 396 Z " fill="#ffff" transform="translate(223,17)"/>
<path d="M0 0 C13.79196293 11.61685452 23.36493126 26.94977911 26 45 C27.3974139 66.08646007 24.12503773 85.44802584 10.0703125 101.90698242 C-2.73833664 116.08378706 -19.25589864 124.82641535 -38.3125 126.875 C-51.25345693 127.50549729 -63.23460479 125.51213398 -75 120 C-76.38058594 119.38705078 -76.38058594 119.38705078 -77.7890625 118.76171875 C-94.56490791 110.56717755 -106.02058825 95.37340514 -112.0703125 77.99609375 C-118.10939731 58.5340011 -115.58409933 38.76147748 -106.41381836 20.73803711 C-97.77784386 4.96638086 -82.73638078 -6.25375998 -65.90234375 -12.0703125 C-43.0741952 -18.53881127 -18.97679684 -14.46483116 0 0 Z M-90.1328125 21.4765625 C-99.85418756 34.39631204 -102.28081905 49.24865081 -101 65 C-100.11811746 69.56278358 -98.75971617 73.70559331 -97 78 C-96.67257812 78.85722656 -96.34515625 79.71445312 -96.0078125 80.59765625 C-90.13882228 94.11346949 -78.19419603 103.61626343 -64.9375 109.3125 C-49.71542949 114.90673096 -34.76990535 113.85250484 -19.8828125 107.71484375 C-5.2944069 100.29666017 4.62394216 88.09659525 10.08984375 72.84765625 C14.61480601 58.69015631 12.782711 43.21524686 6.5625 29.9296875 C-0.49385465 16.66509776 -11.47197523 6.87449761 -25.56640625 1.6875 C-50.75388986 -5.87662438 -73.35502407 1.99466165 -90.1328125 21.4765625 Z " fill="#ffff" transform="translate(426,272)"/>
<path d="M0 0 C3.97318025 3.95756853 5.74815298 8.6875998 7.75 13.8125 C8.06582031 14.60076172 8.38164062 15.38902344 8.70703125 16.20117188 C9.47899311 18.13107652 10.24055966 20.06513375 11 22 C11.61520508 22.0501123 12.23041016 22.10022461 12.86425781 22.15185547 C15.66028614 22.38441837 18.45507263 22.62957387 21.25 22.875 C22.21808594 22.95363281 23.18617188 23.03226562 24.18359375 23.11328125 C25.11816406 23.19707031 26.05273438 23.28085937 27.015625 23.3671875 C28.30388184 23.47716064 28.30388184 23.47716064 29.61816406 23.58935547 C32.11199725 24.01930908 33.85375682 24.66952075 36 26 C37.58856112 29.17712224 37.39634462 31.49161614 37 35 C35.09962788 37.28283695 33.50479423 38.90945867 31.25 40.75 C30.71117187 41.21792969 30.17234375 41.68585938 29.6171875 42.16796875 C27.35715679 44.11380007 25.09980117 45.93482041 22.6015625 47.56640625 C20.79571208 48.86619202 20.79571208 48.86619202 20.7578125 50.98046875 C20.93957031 52.07294922 20.93957031 52.07294922 21.125 53.1875 C21.25003906 53.98542969 21.37507813 54.78335938 21.50390625 55.60546875 C21.95142001 57.76551547 22.47868762 59.87355927 23.0625 62 C24.19698594 66.32143882 24.7115225 70.55973933 24 75 C22.4375 77.125 22.4375 77.125 20 78 C13.65777054 77.73838303 9.68584886 75.34525354 4.5625 71.9375 C3.83095703 71.46505859 3.09941406 70.99261719 2.34570312 70.50585938 C0.55664166 69.34823137 -1.22270714 68.17561628 -3 67 C-3.78503906 67.45890625 -4.57007813 67.9178125 -5.37890625 68.390625 C-7.54630495 69.65649222 -9.71701991 70.91669459 -11.890625 72.171875 C-13.65251207 73.20775835 -15.40298227 74.2656698 -17.109375 75.390625 C-20.28013505 77.45598246 -21.97065756 78.00048102 -25.8125 77.9375 C-29 77 -29 77 -31 74 C-31.44864579 68.38491755 -30.36738923 63.45352445 -29 58.0625 C-28.80921875 57.28326172 -28.6184375 56.50402344 -28.421875 55.70117188 C-27.9550862 53.79900752 -27.47854864 51.89923991 -27 50 C-28.70685693 48.43588733 -30.41555968 46.87378883 -32.125 45.3125 C-32.62620361 44.85061279 -33.12740723 44.38872559 -33.64379883 43.9128418 C-36.22998698 41.54429693 -38.8343446 39.34752168 -41.6875 37.3125 C-44 35 -44 35 -44.6875 31.4375 C-44 28 -44 28 -42.1640625 25.83203125 C-37.46762163 23.11273401 -33.026512 23.32514924 -27.6875 23.25 C-26.14739258 23.20552734 -26.14739258 23.20552734 -24.57617188 23.16015625 C-22.05070325 23.08967806 -19.52614585 23.0368734 -17 23 C-16.86190918 22.25057129 -16.72381836 21.50114258 -16.58154297 20.72900391 C-15.81303935 17.12265063 -14.4910409 13.78677044 -13.125 10.375 C-12.86847656 9.70726562 -12.61195313 9.03953125 -12.34765625 8.3515625 C-9.60414587 1.45832033 -7.76141352 -1.0893212 0 0 Z M-4 25 C-4.24492187 25.69867188 -4.48984375 26.39734375 -4.7421875 27.1171875 C-7.75917594 34.46199384 -7.75917594 34.46199384 -11.55859375 36.109375 C-14.05734972 36.57722718 -16.46141281 36.8915555 -19 37 C-18.566875 37.36609375 -18.13375 37.7321875 -17.6875 38.109375 C-14.7145316 40.99976095 -13.13573231 42.9314407 -12.6015625 47.13671875 C-12.62268414 50.11134924 -12.73730851 53.03742374 -13 56 C-12.49210937 55.69964844 -11.98421875 55.39929688 -11.4609375 55.08984375 C-8.02199668 53.19005434 -5.80643951 51.96837492 -1.8125 52.125 C0.85995921 52.95643175 3.40902384 53.94619121 6 55 C5.93039062 54.28714844 5.86078125 53.57429688 5.7890625 52.83984375 C5.48691177 47.49465338 5.35602096 43.96971552 9 39.8125 C9.97487914 38.84890418 10.96689675 37.90089063 12 37 C11.25234375 36.88785156 10.5046875 36.77570313 9.734375 36.66015625 C1.78617097 35.06843476 1.78617097 35.06843476 -0.62109375 31.796875 C-1.58617926 29.54854392 -2.38011551 27.36547923 -3 25 C-3.33 25 -3.66 25 -4 25 Z " fill="#ffff" transform="translate(385,289)"/>
</svg>
