<svg xmlns="http://www.w3.org/2000/svg" version="1.1" xmlns:xlink="http://www.w3.org/1999/xlink" xmlns:svgjs="http://svgjs.dev/svgjs" width="700" height="300" preserveAspectRatio="none" viewBox="0 0 700 300">
    <g mask="url(&quot;#SvgjsMask1147&quot;)" fill="none">
        <rect width="700" height="300" x="0" y="0" fill="rgba(174, 86, 225, 1)"></rect>
        <path d="M25 300L325 0L526 0L226 300z" fill="url(&quot;#SvgjsLinearGradient1148&quot;)"></path>
        <path d="M241 300L541 0L787 0L487 300z" fill="url(&quot;#SvgjsLinearGradient1148&quot;)"></path>
        <path d="M683 300L383 0L243.5 0L543.5 300z" fill="url(&quot;#SvgjsLinearGradient1149&quot;)"></path>
        <path d="M437 300L137 0L50 0L350 300z" fill="url(&quot;#SvgjsLinearGradient1149&quot;)"></path>
        <path d="M440.42267362341823 300L700 40.422673623418234L700 300z" fill="url(&quot;#SvgjsLinearGradient1148&quot;)"></path>
        <path d="M0 300L259.57732637658177 300L 0 40.422673623418234z" fill="url(&quot;#SvgjsLinearGradient1149&quot;)"></path>
    </g>
    <defs>
        <mask id="SvgjsMask1147">
            <rect width="700" height="300" fill="#ffffff"></rect>
        </mask>
        <linearGradient x1="0%" y1="100%" x2="100%" y2="0%" id="SvgjsLinearGradient1148">
            <stop stop-color="rgba(100, 8, 154, 1)" offset="0"></stop>
            <stop stop-opacity="0" stop-color="rgba(100, 8, 154, 1)" offset="0.66"></stop>
        </linearGradient>
        <linearGradient x1="100%" y1="100%" x2="0%" y2="0%" id="SvgjsLinearGradient1149">
            <stop stop-color="rgba(100, 8, 154, 1)" offset="0"></stop>
            <stop stop-opacity="0" stop-color="rgba(100, 8, 154, 1)" offset="0.66"></stop>
        </linearGradient>
    </defs>
</svg>