<svg xmlns="http://www.w3.org/2000/svg" version="1.1" xmlns:xlink="http://www.w3.org/1999/xlink" xmlns:svgjs="http://svgjs.dev/svgjs" width="1500" height="600" preserveAspectRatio="none" viewBox="0 0 1500 600">
    <g mask="url(&quot;#SvgjsMask1174&quot;)" fill="none">
        <rect width="1500" height="600" x="0" y="0" fill="rgba(194, 200, 255, 1)"></rect>
        <path d="M0,376.514C69.144,367.323,134.749,335.95,184.449,287.009C229.163,242.978,232.313,174.996,261.212,119.292C292.181,59.597,368.005,15.006,360.214,-51.791C352.451,-118.348,270.907,-146.184,224.598,-194.615C181.104,-240.103,152.373,-299.335,96.263,-327.841C33.837,-359.556,-38.36,-378.785,-106.542,-362.849C-176.201,-346.568,-242.02,-302.579,-277.523,-240.475C-311.152,-181.65,-286.926,-109.397,-290.126,-41.714C-292.964,18.314,-306.272,75.765,-295.267,134.844C-281.592,208.257,-276.694,293.326,-218.906,340.624C-160.503,388.425,-74.813,386.458,0,376.514" fill="#acb4ff"></path>
        <path d="M1500 1150.6660000000002C1605.635 1154.665 1708.234 1119.489 1798.527 1064.517 1890.359 1008.608 1973.071 934.2339999999999 2016.813 836.021 2060.348 738.2719999999999 2051.4719999999998 628.749 2039.991 522.361 2028.141 412.555 2035.913 279.216 1949.325 210.65699999999998 1861.406 141.04399999999998 1728.862 218.426 1620.357 190.10199999999998 1517.049 163.135 1444.054 32.85799999999995 1338.891 51.31299999999999 1235.203 69.50900000000001 1176.83 184.02499999999998 1126.892 276.7 1083.7640000000001 356.736 1099.0149999999999 451.075 1076.074 539.049 1049.2069999999999 642.079 952.297 734.53 980.747 837.135 1009.108 939.421 1124.79 987.5840000000001 1215.655 1042.45 1304.2649999999999 1095.954 1396.564 1146.75 1500 1150.6660000000002" fill="#d8dcff"></path>
    </g>
    <defs>
        <mask id="SvgjsMask1174">
            <rect width="1500" height="600" fill="#ffffff"></rect>
        </mask>
    </defs>
</svg>