<?xml version="1.0" standalone="no"?>
<!DOCTYPE svg PUBLIC "-//W3C//DTD SVG 20010904//EN"
 "http://www.w3.org/TR/2001/REC-SVG-20010904/DTD/svg10.dtd">
<svg version="1.0" xmlns="http://www.w3.org/2000/svg"
 width="459.000000pt" height="459.000000pt" viewBox="0 0 459.000000 459.000000"
 preserveAspectRatio="xMidYMid meet">

<g transform="translate(0.000000,459.000000) scale(0.100000,-0.100000)"
fill="#5647b4">
<path d="M2080 4569 c-131 -12 -253 -35 -391 -73 -626 -172 -1153 -607 -1440
-1191 -82 -167 -119 -266 -164 -440 -56 -213 -70 -330 -69 -580 1 -181 5 -243
23 -350 58 -333 172 -626 348 -893 314 -477 801 -824 1351 -961 622 -156 1278
-45 1810 306 345 227 622 543 802 915 165 340 242 712 226 1080 -21 496 -196
963 -501 1343 -477 595 -1238 917 -1995 844z m509 -640 c277 -47 555 -177 781
-367 95 -80 125 -110 213 -213 51 -61 56 -74 30 -82 -10 -3 -101 -38 -203 -77
-175 -68 -658 -252 -855 -325 -49 -18 -198 -75 -330 -125 -132 -50 -283 -107
-335 -126 -52 -19 -134 -51 -182 -70 -49 -19 -92 -34 -98 -34 -6 0 -10 75 -10
209 l0 209 53 20 c60 24 331 128 462 177 50 19 155 59 235 90 80 30 218 83
308 117 89 34 159 65 155 68 -13 11 -142 58 -207 74 -167 44 -425 46 -586 6
-397 -98 -700 -357 -859 -734 -127 -300 -118 -658 23 -960 25 -54 46 -102 46
-107 0 -4 -37 -21 -82 -37 -46 -17 -132 -49 -193 -71 -60 -23 -116 -41 -122
-41 -36 0 -141 288 -174 476 -29 166 -29 413 0 576 74 418 295 780 627 1029
130 97 162 118 281 177 302 152 663 202 1022 141z m1207 -921 c15 -29 44 -100
64 -158 196 -547 84 -1177 -287 -1617 -92 -110 -103 -121 -206 -205 -221 -180
-421 -283 -662 -342 -168 -41 -243 -49 -415 -49 -269 1 -476 48 -705 157 -104
50 -263 145 -295 177 -8 9 -22 20 -31 25 -66 37 -299 286 -299 318 0 8 36 27
83 44 132 49 296 111 377 142 221 85 1164 442 1305 495 50 18 125 47 168 64
43 17 84 31 92 31 13 0 15 -31 15 -208 l0 -209 -162 -61 c-90 -34 -228 -87
-308 -117 -228 -88 -559 -214 -630 -240 -36 -13 -83 -31 -105 -40 l-39 -17 59
-25 c196 -84 452 -119 645 -90 287 44 525 161 718 355 228 229 352 528 352
849 0 207 -37 368 -124 541 -20 39 -36 75 -36 80 0 5 42 24 93 42 50 18 137
50 192 71 55 21 103 39 107 39 4 0 20 -24 34 -52z m-798 -450 c2 -157 -1 -208
-10 -215 -7 -6 -65 -28 -128 -51 -63 -22 -214 -77 -335 -122 -264 -97 -372
-137 -615 -224 -102 -37 -213 -78 -248 -91 -34 -14 -65 -25 -67 -25 -3 0 -4
95 -3 212 l3 212 60 23 c33 12 141 52 240 88 245 90 333 123 595 220 124 46
270 100 325 120 55 19 114 42 130 50 17 7 35 12 40 11 6 -2 11 -82 13 -208z"/>
</g>
</svg>
