<svg xmlns="http://www.w3.org/2000/svg" version="1.1" xmlns:xlink="http://www.w3.org/1999/xlink" xmlns:svgjs="http://svgjs.dev/svgjs" width="700" height="300" preserveAspectRatio="none" viewBox="0 0 700 300">
    <g mask="url(&quot;#SvgjsMask1195&quot;)" fill="none">
        <rect width="700" height="300" x="0" y="0" fill="rgba(78, 61, 255, 1)"></rect>
        <path d="M38 300L338 0L483.5 0L183.5 300z" fill="url(&quot;#SvgjsLinearGradient1196&quot;)"></path>
        <path d="M254 300L554 0L759.5 0L459.5 300z" fill="url(&quot;#SvgjsLinearGradient1196&quot;)"></path>
        <path d="M696 300L396 0L55.5 0L355.5 300z" fill="url(&quot;#SvgjsLinearGradient1197&quot;)"></path>
        <path d="M443 300L143 0L-49 0L251 300z" fill="url(&quot;#SvgjsLinearGradient1197&quot;)"></path>
        <path d="M439.6010941276913 300L700 39.60109412769128L700 300z" fill="url(&quot;#SvgjsLinearGradient1196&quot;)"></path>
        <path d="M0 300L260.3989058723087 300L 0 39.60109412769128z" fill="url(&quot;#SvgjsLinearGradient1197&quot;)"></path>
    </g>
    <defs>
        <mask id="SvgjsMask1195">
            <rect width="700" height="300" fill="#ffffff"></rect>
        </mask>
        <linearGradient x1="0%" y1="100%" x2="100%" y2="0%" id="SvgjsLinearGradient1196">
            <stop stop-color="rgba(18, 16, 206, 0.79)" offset="0"></stop>
            <stop stop-opacity="0" stop-color="rgba(18, 16, 206, 0.79)" offset="0.66"></stop>
        </linearGradient>
        <linearGradient x1="100%" y1="100%" x2="0%" y2="0%" id="SvgjsLinearGradient1197">
            <stop stop-color="rgba(18, 16, 206, 0.79)" offset="0"></stop>
            <stop stop-opacity="0" stop-color="rgba(18, 16, 206, 0.79)" offset="0.66"></stop>
        </linearGradient>
    </defs>
</svg>