<svg xmlns="http://www.w3.org/2000/svg" version="1.1" xmlns:xlink="http://www.w3.org/1999/xlink" xmlns:svgjs="http://svgjs.dev/svgjs" width="400" height="500" preserveAspectRatio="none" viewBox="0 0 400 500">
    <g mask="url(&quot;#SvgjsMask1042&quot;)" fill="none">
        <rect width="400" height="500" x="0" y="0" fill="rgba(194, 200, 255, 1)"></rect>
        <path d="M0,224.498C41.037,219.652,74.866,191.422,104.536,162.661C130.198,137.784,137.367,101.476,157.424,71.893C182.864,34.369,242.058,10.933,238.018,-34.222C234.044,-78.647,171.213,-89.437,140.129,-121.423C111.482,-150.902,102.589,-203.506,62.947,-214.377C23.251,-225.263,-12.457,-188.172,-51.047,-173.85C-86.391,-160.733,-125.416,-157.916,-154.341,-133.737C-186.14,-107.155,-217.128,-73.04,-221.006,-31.776C-224.851,9.135,-191.225,42.158,-174.393,79.643C-157.429,117.423,-153.562,162.913,-121.704,189.375C-88.553,216.911,-42.799,229.552,0,224.498" fill="#acb4ff"></path>
        <path d="M400 668.457C437.953 672.7090000000001 480.175 695.39 512.092 674.419 544.048 653.422 535.918 604.102 551.254 569.075 566.258 534.808 606.888 508.044 601.121 471.08299999999997 595.347 434.076 549.307 420.15 523.745 392.774 499.427 366.731 486.414 330.132 454.574 314.139 420.025 296.786 379.085 291.608 341.662 301.31899999999996 303.693 311.171 267.255 333.974 247.512 367.869 228.788 400.01300000000003 241.412 439.762 239.385 476.907 237.569 510.179 224.788 543.496 236.22 574.796 248.043 607.1659999999999 273.05 633.88 302.966 650.988 332.085 667.64 366.665 664.722 400 668.457" fill="#d8dcff"></path>
    </g>
    <defs>
        <mask id="SvgjsMask1042">
            <rect width="400" height="500" fill="#ffffff"></rect>
        </mask>
    </defs>
</svg>