<?xml version="1.0" encoding="UTF-8"?>
<svg version="1.1" xmlns="http://www.w3.org/2000/svg" width="512" height="512">
<path d="M0 0 C0.86948745 0.27070816 1.7389749 0.54141632 2.63481045 0.82032776 C5.33379152 1.66641625 8.02616829 2.53083906 10.71704102 3.40234375 C11.93436857 3.79543732 11.93436857 3.79543732 13.1762886 4.19647217 C18.86003831 6.04025537 24.52566043 7.93653854 30.18969727 9.83984375 C32.00855555 10.44823472 33.82752316 11.05629893 35.64659119 11.6640625 C40.40320315 13.2539828 45.15868926 14.84724032 49.91381836 16.44158936 C58.33779078 19.26578747 66.76327762 22.08545635 75.18969727 24.90234375 C76.12219992 25.21416218 77.05470257 25.52598061 78.01546288 25.84724808 C91.74722618 30.43674935 105.50024894 34.9569571 119.27172852 39.42578125 C139.31113895 45.9285606 159.31362969 52.53861865 179.30029297 59.20166016 C183.95480803 60.75319992 188.61071995 62.30050598 193.26693058 63.84694862 C196.9317584 65.06484957 200.59567272 66.28548022 204.25933647 67.5068779 C205.97842672 68.07951929 207.69783477 68.65120768 209.41758919 69.22185135 C237.64038561 78.59041212 237.64038561 78.59041212 241.84594727 85.16796875 C243.95452183 90.57650977 243.71888982 97.43407542 241.87719727 102.890625 C237.59948224 110.53866096 229.08013166 112.81588721 221.14550781 115.42675781 C219.92203392 115.83728394 219.92203392 115.83728394 218.67384338 116.25610352 C216.00658728 117.14932154 213.33655652 118.03388646 210.66625977 118.91796875 C208.80144826 119.53962429 206.93677031 120.16168058 205.07221985 120.78411865 C201.17928587 122.08222321 197.28499828 123.37615581 193.38964844 124.66699219 C188.39254877 126.32319364 183.39864196 127.98879078 178.40565777 129.65735245 C174.56272105 130.94064595 170.71832677 132.21952429 166.87345314 133.49700165 C165.03060403 134.10977829 163.18817266 134.72381272 161.34616661 135.33911896 C158.77941966 136.19566864 156.21081438 137.04638797 153.64160156 137.89550781 C152.49843979 138.27881256 152.49843979 138.27881256 151.33218384 138.66986084 C148.34177648 139.65254599 145.88691802 140.40234375 142.71704102 140.40234375 C142.86737793 141.21795776 142.86737793 141.21795776 143.02075195 142.05004883 C145.47369695 155.55932357 147.37048918 169.0753648 148.90454102 182.71484375 C149.03101013 183.83628281 149.03101013 183.83628281 149.16003418 184.9803772 C150.10930569 193.44564411 150.9938556 201.91431086 151.71704102 210.40234375 C158.2213386 208.59671315 164.51980796 206.40739003 170.83813477 204.046875 C172.53276616 203.41853869 174.22742822 202.79028512 175.92211914 202.16210938 C178.54282963 201.18974015 181.16109236 200.21235303 183.77392578 199.21899414 C204.68773679 191.28725221 204.68773679 191.28725221 214.76782227 194.3203125 C228.40930739 201.97745009 236.57132636 213.49494563 241.52954102 228.27734375 C242.87792495 233.6708795 243.03263595 238.99607189 243.09204102 244.52734375 C243.105979 245.36249512 243.11991699 246.19764648 243.13427734 247.05810547 C243.07081393 255.42044085 241.13376311 263.24925304 235.33422852 269.484375 C229.87873288 273.48235762 223.28750807 275.46092279 216.93334961 277.62939453 C214.74824759 278.39146029 212.60109638 279.22388297 210.44750977 280.0703125 C206.00076011 281.65810479 202.3658719 282.35945599 197.71704102 281.40234375 C195.09204102 279.33984375 195.09204102 279.33984375 193.71704102 276.40234375 C193.77534715 273.02058775 193.82165639 270.56031714 195.93579102 267.82617188 C198.21200923 266.00669481 200.40682198 265.21491102 203.15454102 264.24609375 C204.21415039 263.86324219 205.27375977 263.48039062 206.36547852 263.0859375 C208.59985352 262.296875 210.83422852 261.5078125 213.06860352 260.71875 C214.12821289 260.33589844 215.18782227 259.95304687 216.27954102 259.55859375 C217.25020508 259.21634766 218.22086914 258.87410156 219.22094727 258.52148438 C222.47233213 257.06370384 224.1318472 255.57273138 225.71704102 252.40234375 C226.91674932 238.19436963 224.14853969 225.59021846 214.71704102 214.40234375 C211.96132339 211.67345932 211.96132339 211.67345932 208.71704102 210.40234375 C203.90272502 210.81030133 199.6746846 211.9474929 195.14257812 213.57958984 C194.52696518 213.79924911 193.91135223 214.01890839 193.27708435 214.245224 C191.26376864 214.96554132 189.25407085 215.6954048 187.24438477 216.42578125 C185.83403983 216.93331023 184.42351938 217.44035176 183.01283264 217.94692993 C180.06529755 219.00699521 177.11944374 220.0715656 174.17480469 221.13964844 C170.41271156 222.50404697 166.64737735 223.85921664 162.88083553 225.21127892 C159.97060949 226.2567017 157.06177764 227.30595784 154.15338326 228.35646439 C152.76592973 228.85732247 151.37814089 229.35725276 149.99000359 229.85621262 C148.04600463 230.5558652 146.10384629 231.26040634 144.16210938 231.96630859 C143.05959335 232.36522308 141.95707733 232.76413757 140.82115173 233.17514038 C137.68219433 234.41612031 134.71174321 235.84831273 131.71704102 237.40234375 C132.14114258 237.80582031 132.56524414 238.20929688 133.00219727 238.625 C143.54912646 249.54281022 148.79853852 265.28748987 148.90454102 280.33984375 C148.84266602 281.35046875 148.78079102 282.36109375 148.71704102 283.40234375 C153.67573628 281.94268606 158.59920918 280.45631681 163.46704102 278.71484375 C167.03849063 277.53903199 169.93643675 276.71496116 173.71704102 277.40234375 C177.03978506 279.858285 178.4932211 281.32800815 179.34204102 285.40234375 C178.47621899 289.55828948 177.09965417 290.84812566 173.71704102 293.40234375 C170.77206938 294.63351918 167.79846118 295.57660371 164.71704102 296.40234375 C165.37704102 296.91796875 166.03704102 297.43359375 166.71704102 297.96484375 C167.70704102 298.76921875 168.69704102 299.57359375 169.71704102 300.40234375 C170.34481445 300.91152344 170.97258789 301.42070312 171.61938477 301.9453125 C184.23841742 312.52979862 184.23841742 312.52979862 184.95532227 319.828125 C184.97981445 320.78074219 185.00430664 321.73335938 185.02954102 322.71484375 C185.06692383 323.65972656 185.10430664 324.60460937 185.14282227 325.578125 C184.58879964 329.25297233 183.23629666 330.69792708 180.71704102 333.40234375 C178.20019531 334.79541016 178.20019531 334.79541016 175.35375977 335.87890625 C174.29205566 336.29043945 173.23035156 336.70197266 172.13647461 337.12597656 C171.00806152 337.54717773 169.87964844 337.96837891 168.71704102 338.40234375 C167.57702637 338.84674805 166.43701172 339.29115234 165.26245117 339.74902344 C161.69749481 341.12840138 158.11676097 342.45706096 154.52954102 343.77734375 C153.32362305 344.24011719 152.11770508 344.70289063 150.87524414 345.1796875 C138.51990638 349.70075593 138.51990638 349.70075593 131.71704102 347.40234375 C126.71595995 344.61234037 124.85556746 340.40806147 122.52954102 335.40234375 C122.18729492 334.69078125 121.84504883 333.97921875 121.49243164 333.24609375 C120.17196394 330.49746973 118.87328008 327.73977672 117.59204102 324.97265625 C116.36496358 322.77049049 115.0320858 322.32836166 112.71704102 321.40234375 C111.97454102 321.01046875 111.23204102 320.61859375 110.46704102 320.21484375 C102.5748999 317.88307478 94.09403869 322.17560877 86.76391602 324.86328125 C85.48185042 325.32674893 84.19952542 325.78949957 82.91696167 326.25158691 C80.18470785 327.23780941 77.45445368 328.22931652 74.72564697 329.22503662 C70.43752285 330.78962099 66.1446428 332.3408683 61.85131836 333.89111328 C49.20823724 338.46122059 36.5796433 343.06963957 23.97570801 347.74667358 C20.35954457 349.08850822 16.74201643 350.42660688 13.12426758 351.76416016 C8.69111104 353.40339197 4.26447326 355.05878919 -0.15893555 356.72412109 C-2.16622492 357.46895722 -4.17370112 358.21329015 -6.18139648 358.95703125 C-7.0640921 359.29448364 -7.94678772 359.63193604 -8.85623169 359.97961426 C-17.80398383 363.26414619 -25.65879032 364.53026066 -34.61499023 360.81640625 C-47.27703849 354.10533528 -53.57220355 341.35692119 -58.28295898 328.40234375 C-59.27295898 323.78234375 -60.26295898 319.16234375 -61.28295898 314.40234375 C-70.85295898 312.42234375 -80.42295898 310.44234375 -90.28295898 308.40234375 C-90.19594727 311.97949219 -90.19594727 311.97949219 -90.10717773 315.62890625 C-90.06812458 317.95227741 -90.03779893 320.27561127 -90.00830078 322.59912109 C-89.98323771 324.20736193 -89.94917727 325.81548977 -89.90576172 327.42333984 C-89.8447405 329.74214614 -89.81666935 332.0594404 -89.79467773 334.37890625 C-89.76887131 335.09164703 -89.74306488 335.80438782 -89.71647644 336.53872681 C-89.7143193 340.42428261 -90.26697189 342.85189253 -92.6730957 345.82836914 C-95.13186737 348.25332983 -96.46028151 349.3140817 -99.72045898 350.21484375 C-100.80133789 350.53388672 -100.80133789 350.53388672 -101.90405273 350.859375 C-115.75855755 354.02156904 -137.64741512 355.79573307 -150.34936523 348.16015625 C-152.50160527 346.47232068 -154.05507647 344.85810878 -155.28295898 342.40234375 C-155.38237166 339.79172949 -155.42260916 337.20846683 -155.41577148 334.59765625 C-155.4177504 333.41617004 -155.4177504 333.41617004 -155.41976929 332.21081543 C-155.42168739 329.6496183 -155.41535488 327.08852976 -155.40795898 324.52734375 C-155.40662964 323.23361847 -155.40662964 323.23361847 -155.40527344 321.91375732 C-155.39004866 309.38639764 -155.18267529 296.90197387 -154.28295898 284.40234375 C-154.96100586 284.05042969 -155.63905273 283.69851563 -156.33764648 283.3359375 C-161.25205431 280.72898709 -166.07299297 278.02621481 -170.72045898 274.96484375 C-171.50291992 274.45050781 -172.28538086 273.93617188 -173.09155273 273.40625 C-177.21911428 269.6318488 -179.10107197 265.92613176 -179.75292969 260.46508789 C-179.75898787 259.03916205 -179.74326011 257.61302081 -179.70874023 256.1875 C-179.70380806 255.02739662 -179.70380806 255.02739662 -179.69877625 253.84385681 C-179.68314364 251.38360004 -179.63928628 248.92474133 -179.59545898 246.46484375 C-179.583946 244.84962088 -179.57416726 243.23438468 -179.56616211 241.61914062 C-179.5310282 236.87810452 -179.42585216 232.14128063 -179.28295898 227.40234375 C-179.26118591 226.63879578 -179.23941284 225.8752478 -179.21697998 225.08856201 C-179.14635269 222.89899831 -179.05327188 220.71172558 -178.95092773 218.5234375 C-178.89573975 217.26845459 -178.84055176 216.01347168 -178.78369141 214.72045898 C-178.20967793 210.91674514 -177.02813465 208.14751942 -174.28295898 205.40234375 C-167.2089917 204.82251037 -167.2089917 204.82251037 -164.15600586 206.73413086 C-161.13481966 211.03790353 -161.97191644 215.41168101 -162.20874023 220.51953125 C-162.26419746 222.75777775 -162.31818846 224.99606097 -162.37084961 227.234375 C-162.47627113 230.75972974 -162.5957037 234.28323075 -162.7421875 237.80712891 C-162.87532043 241.21142614 -162.95191786 244.61341943 -163.02124023 248.01953125 C-163.08024002 249.06970428 -163.13923981 250.11987732 -163.20002747 251.20187378 C-163.24123096 254.1962795 -163.18508689 256.54372394 -162.28295898 259.40234375 C-159.60335167 262.10677386 -156.74827433 263.85293786 -153.28295898 265.40234375 C-152.95295898 265.40234375 -152.62295898 265.40234375 -152.28295898 265.40234375 C-152.14720459 264.50628418 -152.0114502 263.61022461 -151.87158203 262.68701172 C-151.35493407 259.29064717 -150.83444095 255.89491449 -150.31152344 252.49951172 C-150.08802916 251.04335928 -149.86597106 249.58698552 -149.64550781 248.13037109 C-149.32422351 246.00945557 -148.99809843 243.88935285 -148.66967773 241.76953125 C-148.56233307 241.0687294 -148.4549884 240.36792755 -148.34439087 239.64588928 C-147.79874643 236.20198495 -147.17413135 232.81218282 -146.34887695 229.42358398 C-146.04997559 228.19583252 -145.75107422 226.96808105 -145.44311523 225.703125 C-145.15702393 224.62200439 -144.87093262 223.54088379 -144.57617188 222.42700195 C-144.04806072 216.97923415 -147.12522597 213.54483371 -150.28295898 209.40234375 C-152.69383591 202.16971296 -152.47065163 192.81832746 -149.22045898 185.90234375 C-145.34590015 179.32434979 -140.46912893 174.24338768 -133.28295898 171.40234375 C-132.62295898 171.40234375 -131.96295898 171.40234375 -131.28295898 171.40234375 C-131.61295898 165.46234375 -131.94295898 159.52234375 -132.28295898 153.40234375 C-139.54295898 151.09234375 -146.80295898 148.78234375 -154.28295898 146.40234375 C-154.40928711 148.10261719 -154.53561523 149.80289063 -154.66577148 151.5546875 C-155.23907361 158.40112189 -156.13922038 165.17195694 -157.15795898 171.96484375 C-157.3190918 173.12564453 -157.48022461 174.28644531 -157.64624023 175.48242188 C-157.8125293 176.59166016 -157.97881836 177.70089844 -158.15014648 178.84375 C-158.29564941 179.84092041 -158.44115234 180.83809082 -158.59106445 181.86547852 C-159.34714797 184.63769582 -160.00660968 185.69421821 -162.28295898 187.40234375 C-165.78156215 188.46713602 -167.60087002 188.66587812 -171.03295898 187.33984375 C-173.9473287 184.83024761 -174.39411876 183.13822085 -175.28295898 179.40234375 C-175.12540443 176.60908838 -174.86261945 174.04484985 -174.41967773 171.30078125 C-174.30823929 170.54189606 -174.19680084 169.78301086 -174.08198547 169.00112915 C-173.72460607 166.59101566 -173.34762086 164.18443184 -172.97045898 161.77734375 C-172.72767623 160.15252949 -172.4861273 158.52753035 -172.24584961 156.90234375 C-170.44420261 144.86599971 -170.44420261 144.86599971 -169.28295898 140.40234375 C-169.83563352 140.28862112 -170.38830805 140.17489849 -170.95773029 140.05772972 C-176.30718444 138.91875697 -181.45991956 137.49190414 -186.64501953 135.76025391 C-187.42673523 135.50304062 -188.20845093 135.24582733 -189.01385498 134.9808197 C-191.56737943 134.13905412 -194.11863893 133.29067256 -196.66967773 132.44140625 C-198.45843777 131.84837067 -200.24724161 131.25546718 -202.03608704 130.66268921 C-205.77154699 129.42350074 -209.50576209 128.18063997 -213.23925781 126.93554688 C-218.01418498 125.3438026 -222.79313036 123.76451203 -227.57321453 122.18833351 C-231.26335984 120.96941783 -234.95074055 119.74230483 -238.63739967 118.51288986 C-240.39822252 117.92712559 -242.16001446 117.34426582 -243.92279625 116.76442337 C-246.38783711 115.95257597 -248.84879109 115.12933474 -251.30908203 114.30322266 C-252.03078079 114.06827591 -252.75247955 113.83332916 -253.49604797 113.59126282 C-259.71295961 111.48042876 -265.43824652 108.77369736 -268.58764648 102.66015625 C-270.5062879 96.42996108 -270.37392917 89.70550303 -267.59545898 83.83984375 C-262.25228537 78.20784994 -257.19318573 76.04399396 -249.93286133 73.68212891 C-248.88929474 73.33339722 -247.84572815 72.98466553 -246.77053833 72.62536621 C-243.30658201 71.47064008 -239.83786083 70.3309905 -236.36889648 69.19140625 C-233.92285386 68.37957401 -231.47710906 67.56684394 -229.03164673 66.75326538 C-223.87706918 65.0406694 -218.72045294 63.33445562 -213.56176758 61.63427734 C-206.45138845 59.29086746 -199.34524469 56.93484412 -192.24010479 54.57560444 C-168.5315977 46.70472156 -144.80199789 38.90026628 -121.0408802 31.18970871 C-108.10801221 26.99185094 -95.19753668 22.73059978 -82.30249023 18.41796875 C-81.45854202 18.13577358 -80.61459381 17.85357841 -79.74507141 17.56283188 C-72.11198362 15.00985996 -64.48037179 12.45249142 -56.84960938 9.89257812 C-52.57986513 8.46039134 -48.30914301 7.03115309 -44.037817 5.6036911 C-42.44474613 5.07062032 -40.85205363 4.53641723 -39.25977516 4.00098419 C-37.06374637 3.26254099 -34.86649398 2.52785096 -32.66894531 1.79394531 C-31.43074539 1.3787262 -30.19254547 0.96350708 -28.91682434 0.53570557 C-18.39313753 -2.74651423 -10.58632989 -3.40892635 0 0 Z M-21.56958008 15.05102539 C-22.75992355 15.44140991 -23.95026703 15.83179443 -25.17668152 16.23400879 C-26.47002277 16.67653848 -27.76325773 17.11937893 -29.05639648 17.5625 C-30.43285931 18.02067603 -31.80981124 18.47738487 -33.18721008 18.93273926 C-36.90755372 20.16711214 -40.62087014 21.42149021 -44.33327866 22.67949295 C-48.24841388 24.0021499 -52.16990667 25.30567875 -56.09082031 26.61108398 C-62.59879076 28.78035054 -69.10310685 30.96024228 -75.60473633 33.1484375 C-84.75880887 36.22909716 -93.91989039 39.28840718 -103.08374023 42.33984375 C-105.22171655 43.05189359 -107.35968514 43.76396661 -109.49765301 44.47604179 C-110.90229065 44.94386425 -112.30693904 45.41165444 -113.7115984 45.8794117 C-118.58172886 47.50143712 -123.45075627 49.12674437 -128.31933594 50.75341797 C-144.12649 56.03361996 -159.95164824 61.25353401 -175.80718994 66.38684082 C-191.69279451 71.53210724 -207.54248268 76.78392069 -223.38444138 82.06171036 C-225.33550532 82.7115286 -227.28676234 83.36076404 -229.23806763 84.00985718 C-232.86949556 85.21838541 -236.50019009 86.42908818 -240.13061523 87.640625 C-241.78033325 88.18953903 -241.78033325 88.18953903 -243.46337891 88.74954224 C-244.46739746 89.08525238 -245.47141602 89.42096252 -246.50585938 89.7668457 C-247.38432022 90.05993118 -248.26278107 90.35301666 -249.16786194 90.65498352 C-251.29994174 91.35930266 -251.29994174 91.35930266 -253.28295898 92.40234375 C-253.28295898 93.72234375 -253.28295898 95.04234375 -253.28295898 96.40234375 C-242.67977198 99.94694621 -232.07556118 103.48847575 -221.47045898 107.02734375 C-220.68552818 107.28927269 -219.90059738 107.55120163 -219.0918808 107.82106781 C-197.55059403 115.0084105 -175.99876195 122.15895062 -154.39306641 129.15087891 C-153.60878769 129.40485443 -152.82450897 129.65882996 -152.01646423 129.92050171 C-150.52535536 130.4025002 -149.03373044 130.88290604 -147.54151917 131.36148071 C-144.01353463 132.49673671 -140.50444744 133.66725633 -137.01245117 134.90917969 C-136.32931854 135.14861298 -135.64618591 135.38804626 -134.94235229 135.63473511 C-133.09670312 136.28481354 -131.25578686 136.94828628 -129.4152832 137.61279297 C-124.66460862 138.810274 -122.47059666 138.10610037 -118.28686523 135.62695312 C-117.13446674 134.84099527 -115.98770802 134.04673049 -114.84545898 133.24609375 C-113.50496356 132.32977695 -112.16377478 131.41447392 -110.82202148 130.5 C-110.0953125 130.00193848 -109.36860352 129.50387695 -108.61987305 128.99072266 C-104.35213197 126.08997846 -100.03316358 123.26685184 -95.72045898 120.43359375 C-93.8323395 119.19025396 -91.94432002 117.9467623 -90.05639648 116.703125 C-87.16746397 114.80117096 -84.27843399 112.89936501 -81.3894043 110.99755859 C-80.43904297 110.37187988 -79.48868164 109.74620117 -78.50952148 109.1015625 C-77.56819366 108.48213776 -76.62686584 107.86271301 -75.65701294 107.22451782 C-73.79899421 105.99968035 -71.94273669 104.77216656 -70.08834839 103.5418396 C-65.96065093 100.80523657 -61.82435499 98.10025834 -57.60766602 95.50244141 C-56.90367676 95.05993042 -56.1996875 94.61741943 -55.47436523 94.16149902 C-54.19197118 93.35757159 -52.89941434 92.56951301 -51.5949707 91.80187988 C-48.4108226 89.78196461 -47.36711346 88.6999198 -46.32519531 85.015625 C-46.10843102 81.76430443 -46.10843102 81.76430443 -46.28686523 78.45703125 C-46.27905889 72.35246607 -42.65262144 68.77200621 -38.53295898 64.65234375 C-27.64484484 57.11441857 -15.21923605 55.85144336 -2.32983398 57.86328125 C6.87842371 60.32460799 13.8063871 65.26907321 18.71704102 73.40234375 C20.51120392 78.78483246 20.65491054 85.08694511 19.10375977 90.5703125 C16.04720233 96.66996236 10.35835404 99.45901767 4.21704102 101.65234375 C-8.17790532 104.30840368 -21.74240593 104.68818406 -33.86962891 100.51147461 C-39.1959408 100.34118197 -42.40495421 103.16995589 -46.68530273 106.12109375 C-47.59254593 106.7264949 -48.49978912 107.33189606 -49.43452454 107.9556427 C-52.37406737 109.92217253 -55.29702104 111.91197064 -58.22045898 113.90234375 C-60.21961217 115.2454803 -62.21993889 116.58687178 -64.22143555 117.92651367 C-68.1432389 120.5535725 -72.05973838 123.18823148 -75.97192383 125.82958984 C-82.4471883 130.19508371 -88.97841923 134.46948113 -95.53295898 138.71484375 C-97.28826281 139.85662404 -99.04348447 140.99853068 -100.79858398 142.140625 C-101.95991671 142.89472472 -103.12131655 143.6487212 -104.28295898 144.40234375 C-102.02837554 146.65692719 -100.59194837 147.12948385 -97.59082031 148.12304688 C-96.60889206 148.45130463 -95.62696381 148.77956238 -94.61528015 149.11776733 C-93.54268448 149.46949005 -92.47008881 149.82121277 -91.36499023 150.18359375 C-90.25190994 150.55376617 -89.13882965 150.9239386 -87.99201965 151.30532837 C-84.36189078 152.51065192 -80.72888632 153.70700339 -77.09545898 154.90234375 C-74.61735015 155.72094474 -72.13932283 156.53979257 -69.66137695 157.35888672 C-64.7700111 158.97440918 -59.87728566 160.58572581 -54.98364258 162.19433594 C-50.11046476 163.79746229 -45.2423442 165.41469189 -40.37889099 167.04705811 C-37.52490137 168.00373235 -34.66794025 168.95123797 -31.80990601 169.89575195 C-29.9609817 170.50973616 -28.11567951 171.13459436 -26.27050781 171.75976562 C-25.17375732 172.11876953 -24.07700684 172.47777344 -22.94702148 172.84765625 C-22.03388184 173.15203613 -21.12074219 173.45641602 -20.17993164 173.77001953 C-11.74769193 175.61053031 -5.35768935 173.44367791 2.64587593 170.66786003 C4.63147379 169.97987806 6.62188761 169.3079285 8.61424255 168.63978577 C13.55726179 166.97892872 18.49214163 165.29447928 23.42541504 163.60491943 C27.60623347 162.17337231 31.7907229 160.75382567 35.98130608 159.35110664 C37.93469165 158.69192223 39.88152174 158.01547756 41.82875061 157.33836365 C43.02366623 156.93787308 44.21858185 156.53738251 45.44970703 156.12475586 C47.01568382 155.58847816 47.01568382 155.58847816 48.61329651 155.04136658 C52.32740207 154.27667791 55.04299003 154.49879877 58.71704102 155.40234375 C61.1802817 159.09720478 61.1069579 161.03527467 60.71704102 165.40234375 C58.55905718 168.24278747 56.2346348 169.14213538 52.90112305 170.23999023 C51.92225128 170.56720566 50.94337952 170.89442108 49.93484497 171.23155212 C48.87554779 171.5753743 47.81625061 171.91919647 46.72485352 172.2734375 C45.62793182 172.63703873 44.53101013 173.00063995 43.40084839 173.3752594 C39.88396831 174.5385663 36.36307553 175.68918045 32.84204102 176.83984375 C30.50844483 177.61053267 28.17510833 178.38200839 25.84204102 179.15429688 C19.47327819 181.25665586 13.10306906 183.35293604 6.71704102 185.40234375 C5.01370354 185.95274574 5.01370354 185.95274574 3.2759552 186.51426697 C2.14010483 186.87420242 1.00425446 187.23413788 -0.16601562 187.60498047 C-1.70135704 188.09440628 -1.70135704 188.09440628 -3.26771545 188.59371948 C-18.18610021 192.59451339 -32.24083753 186.01518527 -46.22045898 181.21484375 C-48.66461814 180.39271415 -51.10944956 179.57258059 -53.55493164 178.75439453 C-58.46304375 177.10887077 -63.3671364 175.45217684 -68.26782227 173.78466797 C-77.37173802 170.68805031 -86.49655202 167.65501235 -95.62185669 164.62216187 C-98.12203943 163.78930916 -100.62060921 162.95179503 -103.11865234 162.11254883 C-103.87843887 161.85771225 -104.6382254 161.60287567 -105.42103577 161.34031677 C-106.82372565 160.86962522 -108.22604396 160.39782431 -109.62791443 159.92469788 C-112.39537569 158.85294065 -112.39537569 158.85294065 -115.28295898 158.40234375 C-115.28295898 162.69234375 -115.28295898 166.98234375 -115.28295898 171.40234375 C-113.77733398 172.06234375 -112.27170898 172.72234375 -110.72045898 173.40234375 C-104.13661882 176.71291494 -99.45985329 181.2939079 -96.34545898 188.02734375 C-93.89438362 195.85845245 -93.94679826 204.61938067 -97.65795898 211.96484375 C-98.09881836 212.70863281 -98.53967773 213.45242188 -98.99389648 214.21875 C-99.63198242 215.29962891 -99.63198242 215.29962891 -100.28295898 216.40234375 C-100.71092773 217.11519531 -101.13889648 217.82804688 -101.57983398 218.5625 C-102.69036568 223.04781415 -101.28723452 226.87077614 -100.15795898 231.27734375 C-97.87070613 240.90701542 -96.30212473 250.52794858 -95.09545898 260.33984375 C-94.97234344 261.33744217 -94.97234344 261.33744217 -94.84674072 262.35519409 C-94.45347861 265.56013818 -94.06909616 268.76604238 -93.68969727 271.97265625 C-93.24940323 275.68529171 -92.78703242 279.39468904 -92.31591797 283.10351562 C-91.9659925 285.86910431 -91.62437852 288.63569355 -91.28295898 291.40234375 C-87.09659126 292.38639392 -82.90867887 293.3637093 -78.72045898 294.33984375 C-77.5390332 294.61763672 -76.35760742 294.89542969 -75.14038086 295.18164062 C-69.53492022 296.48487097 -64.0024156 297.73885319 -58.28295898 298.40234375 C-57.9800293 297.7990625 -57.67709961 297.19578125 -57.36499023 296.57421875 C-56.94604492 295.775 -56.52709961 294.97578125 -56.09545898 294.15234375 C-55.6894043 293.3634375 -55.28334961 292.57453125 -54.86499023 291.76171875 C-51.36954605 286.54876002 -46.44031984 284.39318918 -40.72436523 282.28515625 C-39.56270592 281.84527878 -39.56270592 281.84527878 -38.37757874 281.39651489 C-27.66763594 277.37041894 -16.88669785 273.53160296 -6.11553955 269.67318726 C0.64767028 267.25032293 7.40730342 264.81751352 14.16625977 262.3828125 C14.85685738 262.13407946 15.54745499 261.88534641 16.2589798 261.629076 C32.07456593 255.93040535 47.84737501 250.11780207 63.61477661 244.28717041 C76.29339271 239.5991803 88.97793422 234.9304563 101.69360352 230.34375 C102.8043222 229.94306808 103.91504089 229.54238617 105.05941772 229.12956238 C110.31117557 227.23653781 115.56460996 225.34830165 120.82006836 223.46557617 C122.66073145 222.8038891 124.50138932 222.14218752 126.34204102 221.48046875 C127.18376862 221.18052505 128.02549622 220.88058136 128.89273071 220.57154846 C132.5853274 219.47303682 132.5853274 219.47303682 135.71704102 217.40234375 C135.73445925 213.66796598 135.36973509 209.93732351 135.09204102 206.21484375 C135.00575439 205.04477783 134.91946777 203.87471191 134.83056641 202.66918945 C133.31818198 183.87033579 130.90960032 164.99025435 127.71704102 146.40234375 C122.56373532 146.98446409 117.94611813 148.18534804 113.06079102 149.94140625 C111.61174891 150.44451946 110.1625245 150.94710788 108.71313477 151.44921875 C106.4596892 152.23755609 104.20816191 153.0305128 101.9597168 153.83300781 C99.76873892 154.61191598 97.57179147 155.37153696 95.37329102 156.12890625 C94.70954468 156.37154205 94.04579834 156.61417786 93.36193848 156.86416626 C88.8017658 158.41680609 85.38225426 158.63235574 80.71704102 157.40234375 C78.25380033 153.70748272 78.32712413 151.76941283 78.71704102 147.40234375 C80.84112479 144.62779222 83.0633187 143.70759604 86.33227539 142.6315918 C87.27608063 142.31607864 88.21988586 142.00056549 89.19229126 141.67549133 C90.22139618 141.34171982 91.2505011 141.0079483 92.31079102 140.6640625 C93.38783295 140.30696701 94.46487488 139.94987152 95.57455444 139.58195496 C99.11924357 138.40921317 102.66804123 137.24946837 106.21704102 136.08984375 C108.68879644 135.27497438 111.16031132 134.45937502 113.6315918 133.64306641 C120.98910875 131.21628948 128.35206716 128.80638337 135.71704102 126.40234375 C136.7387439 126.06877869 137.76044678 125.73521362 138.81311035 125.39154053 C146.77123546 122.79458858 154.73145993 120.20413344 162.69482422 117.62329102 C184.08093255 110.68692998 205.39719727 103.53924286 226.71704102 96.40234375 C226.71704102 95.08234375 226.71704102 93.76234375 226.71704102 92.40234375 C203.62872527 84.45914299 180.50382722 76.62875689 157.34204102 68.90234375 C156.2349881 68.53249359 155.12793518 68.16264343 153.98733521 67.78158569 C142.36051192 63.89880414 130.72428609 60.04733348 119.06445312 56.26489258 C118.21399571 55.9889882 117.3635383 55.71308382 116.48730946 55.4288187 C115.62022704 55.14754092 114.75314463 54.86626314 113.85978699 54.57646179 C96.36215856 48.90015141 78.89378404 43.14476379 61.45532227 37.2890625 C59.42451878 36.60782219 57.39369606 35.92663924 55.362854 35.24551392 C47.13779215 32.48612155 38.91309404 29.72570069 30.69238281 26.95336914 C25.54862838 25.21899404 20.4024613 23.49195608 15.25462914 21.76972389 C13.32608899 21.1229912 11.39845341 20.47355395 9.47179604 19.82123375 C6.8101349 18.92033145 4.14549275 18.02883605 1.47998047 17.1394043 C0.70667892 16.87512131 -0.06662262 16.61083832 -0.86335754 16.33854675 C-8.02659914 13.96852115 -14.18044612 12.57199918 -21.56958008 15.05102539 Z M-31.28295898 79.40234375 C-31.53365811 82.02805079 -31.53365811 82.02805079 -31.28295898 84.40234375 C-21.07171496 89.099516 -10.07595795 90.02931896 0.71704102 86.40234375 C3.1940747 84.949355 3.1940747 84.949355 4.71704102 83.40234375 C4.43415624 80.00772647 3.97572043 78.66102316 1.52954102 76.21484375 C-8.12402782 69.99365494 -23.46038431 69.93799415 -31.28295898 79.40234375 Z M-133.59545898 191.52734375 C-135.94842509 195.53610082 -135.96027934 198.85934135 -135.28295898 203.40234375 C-133.98250298 206.55081618 -132.73152379 208.01974436 -130.15795898 210.21484375 C-126.09708269 211.89216222 -122.60298782 212.33859573 -118.28295898 211.40234375 C-114.90924888 209.35178018 -112.06252774 206.96148127 -110.28295898 203.40234375 C-109.85915174 196.93928333 -110.48390878 193.66790232 -114.78295898 188.65234375 C-121.1265758 183.3659964 -128.38471054 186.73908842 -133.59545898 191.52734375 Z M-129.28295898 227.40234375 C-136.97837399 263.14191935 -139.80928364 298.88755859 -139.28295898 335.40234375 C-135.77540227 336.19858126 -132.53333184 336.53067958 -128.93920898 336.53515625 C-127.94018555 336.53644531 -126.94116211 336.53773438 -125.91186523 336.5390625 C-124.87932617 336.53519531 -123.84678711 336.53132813 -122.78295898 336.52734375 C-121.75041992 336.53121094 -120.71788086 336.53507812 -119.65405273 336.5390625 C-118.6550293 336.53777344 -117.65600586 336.53648437 -116.62670898 336.53515625 C-115.26835937 336.53346436 -115.26835937 336.53346436 -113.88256836 336.53173828 C-111.2593388 336.40116806 -108.8410446 335.98304533 -106.28295898 335.40234375 C-105.73459866 299.21899862 -107.82904558 262.70192896 -116.28295898 227.40234375 C-120.57295898 227.40234375 -124.86295898 227.40234375 -129.28295898 227.40234375 Z M103.46704102 245.83984375 C102.81735352 246.08283203 102.16766602 246.32582031 101.49829102 246.57617188 C99.90087285 247.17520369 98.30843507 247.78748696 96.71704102 248.40234375 C97.06895508 248.81742188 97.42086914 249.2325 97.78344727 249.66015625 C108.97162478 263.62346918 112.88258024 279.0073392 114.71704102 296.40234375 C122.64116678 294.99077999 122.64116678 294.99077999 129.71704102 291.40234375 C134.0742975 283.81228407 133.07243365 275.70514275 130.95922852 267.4375 C127.92201541 258.33862208 122.97591256 249.68198766 114.71704102 244.40234375 C110.71120107 242.55965737 107.3173882 244.34118219 103.46704102 245.83984375 Z M68.84228516 258.33911133 C67.67818619 258.76408401 66.51408722 259.1890567 65.31471252 259.62690735 C64.04381807 260.10007943 62.77298135 260.5734066 61.50219727 261.046875 C60.16899632 261.53689547 58.83553008 262.02619472 57.5018158 262.51481628 C53.97121624 263.81046881 50.44424644 265.11573425 46.91796875 266.4230957 C43.44874849 267.70756668 39.97636213 268.9834085 36.50415039 270.25976562 C31.00721673 272.28150863 25.51213988 274.30821663 20.01831055 276.33837891 C11.56746385 279.46071221 3.10981099 282.56437813 -5.34936523 285.6640625 C-6.01102125 285.90654032 -6.67267727 286.14901814 -7.35438347 286.39884377 C-10.99709483 287.73374562 -14.63995184 289.06824932 -18.28295898 290.40234375 C-16.73474492 293.58038901 -14.95584969 296.41238296 -12.97045898 299.33984375 C-4.88976862 312.12447029 -3.05492716 324.66678839 -1.28295898 339.40234375 C16.0044553 333.50438004 33.18654136 327.36475517 50.31738281 321.02587891 C53.44444863 319.86883371 56.57235232 318.71412145 59.70081806 317.56087112 C62.76523749 316.43103547 65.8290333 315.29951271 68.89282227 314.16796875 C69.99096756 313.7626593 71.08911285 313.35734985 72.22053528 312.9397583 C74.32674873 312.16009053 76.43085329 311.37469783 78.53262329 310.58312988 C80.77805566 309.75052071 83.03509323 308.94888753 85.2996521 308.1697998 C86.46501495 307.75637329 87.63037781 307.34294678 88.83105469 306.91699219 C89.88709396 306.55393982 90.94313324 306.19088745 92.03117371 305.8168335 C95.2290584 304.13269404 96.19274137 302.63336709 97.71704102 299.40234375 C100.6015968 289.03254826 97.07010112 277.79707187 92.10375977 268.625 C88.92290265 263.52666845 85.34783432 258.85679211 79.71704102 256.40234375 C75.65364544 256.06902056 72.64346275 256.93677476 68.84228516 258.33911133 Z M-40.28295898 298.40234375 C-44.51787967 302.79411335 -44.57469433 307.80686939 -44.49780273 313.625 C-43.65910687 324.46705014 -39.00187854 335.68342419 -31.28295898 343.40234375 C-28.95087105 345.18167946 -27.02529695 346.20568718 -24.28295898 347.40234375 C-20.83185115 346.56288509 -20.29527665 345.42082025 -18.28295898 342.40234375 C-15.13080656 330.90282473 -19.18500718 319.84187609 -24.70092773 309.828125 C-27.86182141 304.70120631 -31.04702098 301.40816001 -36.28295898 298.40234375 C-37.60295898 298.40234375 -38.92295898 298.40234375 -40.28295898 298.40234375 Z M125.71704102 310.40234375 C126.54204102 311.26859375 127.36704102 312.13484375 128.21704102 313.02734375 C132.97839502 318.5290997 136.24449222 325.04775572 139.71704102 331.40234375 C144.01196601 329.95348558 148.30236819 328.49167186 152.59204102 327.02734375 C153.81536133 326.61484375 155.03868164 326.20234375 156.29907227 325.77734375 C157.46567383 325.37773437 158.63227539 324.978125 159.83422852 324.56640625 C160.9130127 324.1998291 161.99179687 323.83325195 163.10327148 323.45556641 C165.82217935 322.55825985 165.82217935 322.55825985 167.71704102 320.40234375 C158.64068101 311.36983089 149.99798739 307.56518724 137.21704102 307.15234375 C132.66959552 307.17715928 129.60774583 307.87864333 125.71704102 310.40234375 Z " fill="#0018C4" transform="translate(269.282958984375,75.59765625)"/>
</svg>
