<svg xmlns="http://www.w3.org/2000/svg" version="1.1" xmlns:xlink="http://www.w3.org/1999/xlink" xmlns:svgjs="http://svgjs.dev/svgjs" width="500" height="100" preserveAspectRatio="none" viewBox="0 0 500 100">
    <g mask="url(&quot;#SvgjsMask1066&quot;)" fill="none">
        <rect width="500" height="100" x="0" y="0" fill="rgba(52, 38, 221, 1)"></rect>
        <path d="M1 100L101 0L120.5 0L20.5 100z" fill="url(&quot;#SvgjsLinearGradient1067&quot;)"></path>
        <path d="M88.5 100L188.5 0L241 0L141 100z" fill="url(&quot;#SvgjsLinearGradient1067&quot;)"></path>
        <path d="M173 100L273 0L340.5 0L240.5 100z" fill="url(&quot;#SvgjsLinearGradient1067&quot;)"></path>
        <path d="M261.5 100L361.5 0L399 0L299 100z" fill="url(&quot;#SvgjsLinearGradient1067&quot;)"></path>
        <path d="M498 100L398 0L285.5 0L385.5 100z" fill="url(&quot;#SvgjsLinearGradient1068&quot;)"></path>
        <path d="M404.5 100L304.5 0L186 0L286 100z" fill="url(&quot;#SvgjsLinearGradient1068&quot;)"></path>
        <path d="M334 100L234 0L150 0L250 100z" fill="url(&quot;#SvgjsLinearGradient1068&quot;)"></path>
        <path d="M248.5 100L148.5 0L70.5 0L170.5 100z" fill="url(&quot;#SvgjsLinearGradient1068&quot;)"></path>
        <path d="M439.450177124354 100L500 39.45017712435399L500 100z" fill="url(&quot;#SvgjsLinearGradient1067&quot;)"></path>
        <path d="M0 100L60.54982287564601 100L 0 39.45017712435399z" fill="url(&quot;#SvgjsLinearGradient1068&quot;)"></path>
    </g>
    <defs>
        <mask id="SvgjsMask1066">
            <rect width="500" height="100" fill="#ffffff"></rect>
        </mask>
        <linearGradient x1="0%" y1="100%" x2="100%" y2="0%" id="SvgjsLinearGradient1067">
            <stop stop-color="rgba(52, 57, 198, 1)" offset="0"></stop>
            <stop stop-opacity="0" stop-color="rgba(52, 57, 198, 1)" offset="0.66"></stop>
        </linearGradient>
        <linearGradient x1="100%" y1="100%" x2="0%" y2="0%" id="SvgjsLinearGradient1068">
            <stop stop-color="rgba(52, 57, 198, 1)" offset="0"></stop>
            <stop stop-opacity="0" stop-color="rgba(52, 57, 198, 1)" offset="0.66"></stop>
        </linearGradient>
    </defs>
</svg>