<svg id="visual" viewBox="0 0 1300 600" width="1300" height="600" xmlns="http://www.w3.org/2000/svg" xmlns:xlink="http://www.w3.org/1999/xlink" version="1.1"><rect x="0" y="0" width="1300" height="600" fill="#3426dd"></rect><defs><linearGradient id="grad1_0" x1="53.8%" y1="0%" x2="100%" y2="100%"><stop offset="6.666666666666669%" stop-color="#2a1ea7" stop-opacity="1"></stop><stop offset="93.33333333333333%" stop-color="#2a1ea7" stop-opacity="1"></stop></linearGradient></defs><defs><linearGradient id="grad1_1" x1="53.8%" y1="0%" x2="100%" y2="100%"><stop offset="6.666666666666669%" stop-color="#2a1ea7" stop-opacity="1"></stop><stop offset="93.33333333333333%" stop-color="#2f22c2" stop-opacity="1"></stop></linearGradient></defs><defs><linearGradient id="grad1_2" x1="53.8%" y1="0%" x2="100%" y2="100%"><stop offset="6.666666666666669%" stop-color="#3426dd" stop-opacity="1"></stop><stop offset="93.33333333333333%" stop-color="#2f22c2" stop-opacity="1"></stop></linearGradient></defs><defs><linearGradient id="grad2_0" x1="0%" y1="0%" x2="46.2%" y2="100%"><stop offset="6.666666666666669%" stop-color="#2a1ea7" stop-opacity="1"></stop><stop offset="93.33333333333333%" stop-color="#2a1ea7" stop-opacity="1"></stop></linearGradient></defs><defs><linearGradient id="grad2_1" x1="0%" y1="0%" x2="46.2%" y2="100%"><stop offset="6.666666666666669%" stop-color="#2f22c2" stop-opacity="1"></stop><stop offset="93.33333333333333%" stop-color="#2a1ea7" stop-opacity="1"></stop></linearGradient></defs><defs><linearGradient id="grad2_2" x1="0%" y1="0%" x2="46.2%" y2="100%"><stop offset="6.666666666666669%" stop-color="#2f22c2" stop-opacity="1"></stop><stop offset="93.33333333333333%" stop-color="#3426dd" stop-opacity="1"></stop></linearGradient></defs><g transform="translate(1300, 0)"><path d="M0 600C-97.4 572.2 -194.8 544.5 -287.5 498C-380.2 451.4 -468.3 386.1 -519.6 300C-570.9 213.9 -585.5 106.9 -600 0L0 0Z" fill="#3124cf"></path><path d="M0 400C-64.9 381.5 -129.8 363 -191.7 332C-253.5 301 -312.2 257.4 -346.4 200C-380.6 142.6 -390.3 71.3 -400 0L0 0Z" fill="#2c20b4"></path><path d="M0 200C-32.5 190.7 -64.9 181.5 -95.8 166C-126.7 150.5 -156.1 128.7 -173.2 100C-190.3 71.3 -195.2 35.6 -200 0L0 0Z" fill="#2a1ea7"></path></g><g transform="translate(0, 600)"><path d="M0 -600C96.9 -571.3 193.7 -542.6 286.5 -496.2C379.3 -449.8 468 -385.7 519.6 -300C571.2 -214.3 585.6 -107.2 600 0L0 0Z" fill="#3124cf"></path><path d="M0 -400C64.6 -380.9 129.1 -361.8 191 -330.8C252.9 -299.9 312 -257.1 346.4 -200C380.8 -142.9 390.4 -71.4 400 0L0 0Z" fill="#2c20b4"></path><path d="M0 -200C32.3 -190.4 64.6 -180.9 95.5 -165.4C126.4 -149.9 156 -128.6 173.2 -100C190.4 -71.4 195.2 -35.7 200 0L0 0Z" fill="#2a1ea7"></path></g></svg>